<svg id="Layer_1" data-name="Layer 1" xmlns="http://www.w3.org/2000/svg" xmlns:xlink="http://www.w3.org/1999/xlink" viewBox="0 0 205.73 205.73">
	<defs>
		<style>.cls-1{fill:none;stroke-width:7px;}.cls-1,.cls-3,.cls-4,.cls-6{stroke:#1bc398;}.cls-1,.cls-3,.cls-4,.cls-5,.cls-6{stroke-miterlimit:10;}.cls-2{clip-path:url(#clip-path);}.cls-3,.cls-5,.cls-7{fill:#1bc398;}.cls-3,.cls-4{stroke-width:2px;}.cls-4,.cls-6,.cls-8{fill:#fff;}.cls-5{stroke:#fff;}</style>
		<clipPath id="clip-path">
			<circle class="cls-1" cx="102.87" cy="102.74" r="99" transform="translate(-42.52 102.83) rotate(-45)"/>
		</clipPath>
	</defs>
	<title>LyfSquad</title>
	<g class="cls-2">
		<path class="cls-3" d="M58.64,97.37c.33,1,7.53,81.17,7.53,81.17l74.64.33,2.57-84.74Z"/>
		<path class="cls-4" d="M157.82,174.6a26.39,26.39,0,0,0-8.57-4.47l-28.92-9h0a5.54,5.54,0,0,1-3.59-4.67c-1-6-.92-21.93-.89-24.52a.36.36,0,0,0-.37-.36H90a.35.35,0,0,0-.37.36c0,2.56.13,18.17-.89,24.52a5.49,5.49,0,0,1-3.59,4.67h0l-29,9a25.29,25.29,0,0,0-7.48,3.67c-11.76,8.66-12.1,22.82-12.59,25.45a.36.36,0,0,0,.36.43H169a.36.36,0,0,0,.36-.43C168.92,196.72,168.75,183.3,157.82,174.6Z"/>
		<path class="cls-4" d="M157.82,174.6a26.39,26.39,0,0,0-8.57-4.47l-28.92-9h0a5.54,5.54,0,0,1-3.59-4.67c-1-6-.92-21.93-.89-24.52a.36.36,0,0,0-.37-.36H90a.35.35,0,0,0-.37.36c0,2.56.13,18.17-.89,24.52a5.49,5.49,0,0,1-3.59,4.67h0l-29,9a25.29,25.29,0,0,0-7.48,3.67c-11.76,8.66-12.1,22.82-12.59,25.45a.36.36,0,0,0,.36.43H169a.36.36,0,0,0,.36-.43C168.92,196.72,168.75,183.3,157.82,174.6Z"/>
		<path class="cls-4" d="M157.82,174.6a26.39,26.39,0,0,0-8.57-4.47l-3.2-1-25.72-8a5.54,5.54,0,0,1-3.59-4.67c-1-6-.92-21.93-.89-24.52a.36.36,0,0,0-.37-.36H90a.35.35,0,0,0-.37.36c0,2.56.13,18.17-.89,24.52a5.49,5.49,0,0,1-3.59,4.67l-25.72,8-3.28,1a25.29,25.29,0,0,0-7.48,3.67c-11.76,8.66-12.1,22.82-12.59,25.45a.36.36,0,0,0,.36.43H169a.36.36,0,0,0,.36-.43C168.92,196.72,168.75,183.3,157.82,174.6Z"/>
		<path class="cls-4" d="M136.22,73.77S119.14,52,101.14,52v2c-18,0-37.07,21.81-37.07,21.81s3.05,32.77,4.29,43.91,19.1,29.5,34.47,29.5,32.63-20.32,33.87-31.46S136.22,73.77,136.22,73.77Z"/>
		<path class="cls-3" d="M80.92,66.57c23.42-.67,33.38-3.41,40.46-.06,5.87,2.78,9.42,7.12,12.19,14.08,1.7,4.25,2.05,15.63,2.66,29.78.26,5.91-3.65,19.88-6.54,26.08-3,6.5-.38,12.2.56,17.85.65,3.93,5.81,5.36,7.18,8.65,3,7.11-.4,15.21-1.3,17.88,0,0,12.41-7.64,12.41-82.23,0-25.26-8.09-43.07-34.89-47.17C93,48.28,82.87,53.87,82.87,53.87S67.31,52.15,58.75,81.42c-7.17,24.5-1.49,82.4,10.57,95.49,0,0-3.38-7.52-.26-13.63,1.29-2.53,9.49-2,10.33-5.07,1.76-6.45,1.86-13.74-2.46-20.43-4.43-6.87-7.86-15.68-8-21.28-.14-4.54-.31-8.65-.52-12C67.69,93.69,69.2,80.14,80.92,66.57Z"/>
		<path class="cls-3" d="M158.2,174.39a26.2,26.2,0,0,0-8.57-4.47l-12-3.76c-9.81,11.56-21.68,18.34-34.48,18.34s-24.68-6.78-34.48-18.34L56.5,169.94A25.32,25.32,0,0,0,49,173.62c-11.76,8.65-12.1,22.82-12.58,25.45a.36.36,0,0,0,.36.43H169.42a.36.36,0,0,0,.36-.43C169.31,196.51,169.13,183.09,158.2,174.39Z"/>
	</g>
	<circle class="cls-1" cx="102.87" cy="102.74" r="99" transform="translate(-42.52 102.83) rotate(-45)"/>
	<g id="_3H3JZn" data-name="3H3JZn">
		<path class="cls-5" d="M104.05,45.85,89.9,48c-6.42-7.94-1.32-15.41,5.24-17.63,7.69-2.6,13.81-1.74,17.34,3.72a13,13,0,0,1,2.06,8.41c-.65,3.88-3.13,6.66-7.54,3.17"/>
	</g>
	<path class="cls-6" d="M86.78,52.15S83.29,46.8,84,45.21s1.64-3.54,4-2.31,3.49,1.37,4.28.29.79-2.09,3-2.38,1.45.86,3.09,1.08a3.61,3.61,0,0,0,3.56-1.13c1.25-1.11,3.49-2.84,4.93-.68s1.78,3,3.1,2.68,3.46-2.79,5.12-1,2.51,3,1.72,4.21-4.54,3.62-4.54,3.62Z"/>
	<path class="cls-5" d="M70.89,58S78.46,66.64,82.5,68.3c4.81,2,11.06,1.91,19.48,1.9,11,0,14.38-.41,18.8-2.64S128,61.09,130.2,56c0,0-3.7-8.39-29.3-8.36C75.79,47.7,70.89,58,70.89,58Z"/>
	<path class="cls-7" d="M87.88,132.38a4.65,4.65,0,0,0,1.36,1.38C89.49,134,91,135,91,135s4.6,3,8,3.09a34.79,34.79,0,0,0,8.28-.73,39.67,39.67,0,0,0,6.4-3,7,7,0,0,0,1.4-1.52s-5.65-1.52-6.67-1.77-3-.89-4-.2-.48,1.23-2.1,1a9.57,9.57,0,0,1-3.45-.86,4.38,4.38,0,0,0-2.94-.33C95.19,131,90.94,133.14,87.88,132.38Z"/>
	<path class="cls-7" d="M88.36,133c8.53,5.13,17.14,5.72,26,.74a19.64,19.64,0,0,1-13.07,4.71A19.08,19.08,0,0,1,88.36,133Z"/>
	<path class="cls-7" d="M87.88,132.38c2.86.5,5.69-1.18,8.39-2.21a3.7,3.7,0,0,1,3.54.54,3.28,3.28,0,0,0,3.78,0c1.21-.8,1.8-.77,3.57-.58a3.89,3.89,0,0,1,1.38.43c3.59,1.84,4.19,1.51,6.53,2.32a26,26,0,0,1-4.66-.81,22,22,0,0,1-3-.84,3.38,3.38,0,0,0-3.09.35c-.13.08-.27.13-.39.22a3.41,3.41,0,0,1-4.33,0,3.92,3.92,0,0,0-3.82-.51c-2.23.75-3.46,1-5.79,1.63a5.52,5.52,0,0,0-1.22.39C88.75,133.15,87.91,132.48,87.88,132.38Z"/>
	<path class="cls-8" d="M92.13,133.25s9.21,3.89,18.44.13C110.57,133.38,98.35,134.67,92.13,133.25Z"/>
	<path class="cls-7" d="M134.73,92.19c-1.75-.33-3.34-.57-4.9-.93-7.61-1.75-15.09-1.84-22.37,1.47a4.81,4.81,0,0,1-1.91.2c-2.22,0-4.43,0-6.64-.06a13.82,13.82,0,0,1-3-.42c-2.14-.58-4.21-1.43-6.37-1.88-6.92-1.46-13.6.37-20.62,1.71a25.15,25.15,0,0,0,.6,2.84,24,24,0,0,1,1.11,2.29c.4,2,.48,4,.93,6,1.15,5,3.82,8.87,9.13,10.16s10.13.06,13.92-4.13a22.51,22.51,0,0,0,4.91-10,4.5,4.5,0,0,0-.07-2c-.28-1.28.2-2.2,1.49-2.39a7.92,7.92,0,0,1,2.12,0,1.72,1.72,0,0,1,1.52,2.46,3,3,0,0,0-.18,1.33,22.45,22.45,0,0,0,5.38,10.94c3.74,3.92,8.35,5,13.52,3.8s7.84-4.71,9-9.58c.53-2.19.68-4.48,1-6.72.09-.55.11-1.34.47-1.58C135.21,94.78,134.73,93.47,134.73,92.19ZM85.28,112.85a10.82,10.82,0,0,1-11.66-7.31,16.9,16.9,0,0,1-1-8.9,5,5,0,0,1,3.85-4.43c2.14-.52,4.34-.81,6.52-1.2a27.59,27.59,0,0,1,10.33,1.75c3.15,1.29,4.2,3,4.14,6.35C97.28,106.17,92,112.16,85.28,112.85Zm44.14-4.94c-3.11,5.29-10.88,6.76-16.38,3-4.47-3-6.49-7.49-6.43-12.86a5.28,5.28,0,0,1,3.21-5c3.18-1.55,6.59-1.93,11-2.07,1.55.21,4,.44,6.39.93,2.81.57,4.26,2.51,4.51,5.3A17.45,17.45,0,0,1,129.42,107.91Z"/>
</svg>