<svg id="Layer_1" data-name="Layer 1" xmlns="http://www.w3.org/2000/svg" xmlns:xlink="http://www.w3.org/1999/xlink" viewBox="0 0 205.73 205.73">
	<defs>
		<style>.cls-1{fill:none;stroke-width:7px;}.cls-1,.cls-3,.cls-4,.cls-5{stroke:#1bc398;stroke-miterlimit:10;}.cls-2{clip-path:url(#clip-path);}.cls-3,.cls-7{fill:#fff;}.cls-3,.cls-4{stroke-width:2px;}.cls-4,.cls-5,.cls-6{fill:#1bc398;}.cls-5{fill-rule:evenodd;}</style>
		<clipPath id="clip-path">
			<circle class="cls-1" cx="102.79" cy="102.74" r="99"/>
		</clipPath>
	</defs>
	<title>LyfSquad</title>
	<g class="cls-2">
		<path class="cls-3" d="M158.83,175.55a26.2,26.2,0,0,0-8.57-4.47l-28.91-9h0a5.52,5.52,0,0,1-3.6-4.67c-1-6-.92-21.93-.89-24.52a.36.36,0,0,0-.36-.36H91a.35.35,0,0,0-.36.36c0,2.57.12,18.17-.9,24.52a5.47,5.47,0,0,1-3.59,4.67h0l-29,9a25.08,25.08,0,0,0-7.48,3.68c-11.76,8.65-12.1,22.81-12.58,25.45a.36.36,0,0,0,.36.43H170.05a.37.37,0,0,0,.36-.43C169.94,197.67,169.76,184.25,158.83,175.55Z"/>
		<path class="cls-3" d="M158.83,175.55a26.2,26.2,0,0,0-8.57-4.47l-28.91-9h0a5.52,5.52,0,0,1-3.6-4.67c-1-6-.92-21.93-.89-24.52a.36.36,0,0,0-.36-.36H91a.35.35,0,0,0-.36.36c0,2.57.12,18.17-.9,24.52a5.47,5.47,0,0,1-3.59,4.67h0l-29,9a25.08,25.08,0,0,0-7.48,3.68c-11.76,8.65-12.1,22.81-12.58,25.45a.36.36,0,0,0,.36.43H170.05a.37.37,0,0,0,.36-.43C169.94,197.67,169.76,184.25,158.83,175.55Z"/>
		<path class="cls-4" d="M81.16,137c-5.22,5.32-10.63-8.55-13.62-10.52s-6.41-2.4-9.16-4.46c-3.48-2.62-2.22-5.05-2.46-8.89-.29-4.69-5.54-6.56-7.18-11-1.76-4.74,2-9.43.08-14.64-.85-2.24-2.94-4.34-3-6.8-.17-3.63,3.18-5.17,4.16-8.44,1.42-4.75-3.31-9.65-.11-14,2.08-2.87,4.76-1.88,7.71-2.8,3.74-1.17,4.7-3.28,6-6.34.92-2.18,2.1-4.88,4.36-5.82,3.45-1.44,7.22.38,10.1-2.89,2.56-2.9,2.73-5.49,7.25-6.11,2.57-.34,5.19.4,7.64-.39,3.33-1,5.06-3.28,8.84-2.57,3.14.59,4.79,1.8,8.15,1.16,2.82-.54,7.09-1.75,9.85-.54,3.42,1.5,2.8,6.18,5.59,8.18,1.11.79,2.67.8,3.85,1.56,1.48,1,1.49,2,2.63,3.06,2.94,2.78,6.24.48,9.71,1.14,5.46,1,2.37,5,3.46,8.64S150.56,57,151.59,61c.41,1.57-.37,3.4,0,5,.6,2.29,2.13,2.52,3.8,4,3.7,3.38,2.64,7.42,1.12,11.61-1.73,4.75,1.83,7.71,1.31,12.18s-6.1,5.93-7,10.56c-.73,3.56,2.17,7.23-1.54,9.51-2.28,1.4-3.16.29-4,3.2-.51,1.71,0,3.44-.27,5.16-.73,5.06-6.34,5.59-9,9.4-2.44,3.44-3.14,7.54-8,8.41-5.39,1-9.67-4.16-15.18-2.17-2.42.87-4,2.5-6.76,2.64-4,.21-6.07-2.83-9.47-4.32-2.56-1.13-7.09-2.28-9.92-2-3.12.25-4.5,3.36-5.47,2.87"/>
		<path class="cls-3" d="M143.16,93.61c-1.4-1.12-2.5,1.52-2.5,1.52s.66-14.25-3.71-24c-4.13-9.22-9.79-13-18.53-15.83a48.21,48.21,0,0,0-14.74-2.56A48.16,48.16,0,0,0,89,55.3c-8.75,2.85-14.4,6.61-18.53,15.83-4.38,9.75-3.71,24-3.71,24s-1.11-2.64-2.5-1.52c-3.26,2.62-.76,9.49.38,14.75,1.56,7.2,5.31,6.41,5.31,6.41s1.3,3.82,2.77,7.08A54,54,0,0,0,85,139.34a37.67,37.67,0,0,0,16.49,9.34,11.31,11.31,0,0,0,4.22,0,38.89,38.89,0,0,0,16.6-9.37,54,54,0,0,0,12.35-17.49c1.48-3.26,2.78-7.08,2.78-7.08s3.75.79,5.31-6.41c1.14-5.26,3.64-12.13.38-14.75"/>
		<path class="cls-4" d="M114.36,53c-2.19,1.06-5.23,4-7.46,5.41s-3.84,1.21-6.32,1.44c-3.4.31-7,1-10.43,1.46-4.19.63-7.83,2.3-8.42,6.95-.28,2.2.3,4-1.29,5.81s-4.13,2.07-6,3.41c-4,2.87-1.91,6-2.31,10.15-.43,4.53-2,9.75-4.89,11.71-1.56,1-3-1-5.27-3.69-2.41-2.92-2.15-8-2.6-11.49C59.12,82,58,80,58.24,77.71c.33-3.43,3-4.46,4.48-7.14,1.6-2.93,1.56-6,3.6-8.89a22.79,22.79,0,0,1,7.77-7c3.47-2,4.08-4.19,6.79-6.9,3.64-3.65,10.84-4.22,15.71-4.48a17.83,17.83,0,0,0,7-1.56c2.26-.9,6.07-1.9,8.34-.45,4,2.56,3.53,10.07,2.42,11.71"/>
		<path class="cls-4" d="M113.35,47.36c.32,3.24-3.4,4.47-1.6,7.36,1.5,2.4,7.31,4,8.78,6.33,1.68,2.67.2,5.87,3.09,8.08,2.31,1.76,5.53,2.08,7.57,4.19,2.63,2.72.85,5.5,2.22,8.27s6,2,6.93,5.8c.72,2.91-2.18,9.06-.2,11.82,1,1.32,2.34-1.23,3.36-2,2.83-2.16,1-8.51,0-11-2-5.17-1.17-10.3-2.9-15.39s-6.13-8.35-8.7-12.9c-3.79-6.7-10.67-14-18.57-10.59"/>
		<path class="cls-5" d="M123.62,106.69v-1.06a62.58,62.58,0,0,0,11.36-1c1.21-.22,1.76-1.13,2.23-2.28,1-2.42,2-5.67,1.5-8.53a2.66,2.66,0,0,0-2.24-2.29,60.5,60.5,0,0,0-12.85-.61v-1a69.53,69.53,0,0,1,10,.17c1.29.13,4.57.38,5.77.61s1.84,1.35,1.84,2.8c0,.84-1.3,1.4-1.35,2.25a24,24,0,0,1-1.72,7.23c-.51,1.32-1.1,2.36-2.39,2.6A62.67,62.67,0,0,1,123.62,106.69ZM84.26,90.93a88.07,88.07,0,0,1,13,1.59c1.21.24,2.27,1,2.24,2.27a23.32,23.32,0,0,1-1.63,7.57c-.43,1.17-1,2.08-2.24,2.28a71.56,71.56,0,0,1-11.35,1v1.06a72.69,72.69,0,0,0,12.17-1.14c1.3-.22,1.93-1.26,2.39-2.6a32.11,32.11,0,0,0,1.51-5.89c.93-2.06,6-3.17,7.21.41,0,.14.09.26.13.36a35.24,35.24,0,0,0,1.38,5.12c.46,1.34,1.1,2.38,2.4,2.6a72.59,72.59,0,0,0,12.17,1.14v-1.06a71.59,71.59,0,0,1-11.36-1c-1.21-.2-1.8-1.11-2.23-2.28a22.81,22.81,0,0,1-1.63-7.57c0-1.25,1-2,2.23-2.27a88.22,88.22,0,0,1,13-1.59v-1a91.84,91.84,0,0,0-11.22,1.28h-.09a77.53,77.53,0,0,1-8.61,1.27,30.7,30.7,0,0,1-5.3-.7l-.23,0a88.42,88.42,0,0,0-13.91-1.81Zm-12.86.61a60.6,60.6,0,0,1,12.86-.61v-1a69.53,69.53,0,0,0-10,.17c-1.29.13-4.58.38-5.78.61s-1.83,1.35-1.84,2.8c0,.84,1.31,1.4,1.35,2.25A24.56,24.56,0,0,0,69.68,103c.51,1.32,1.1,2.36,2.4,2.6a62.59,62.59,0,0,0,12.18,1.14v-1.06a62.69,62.69,0,0,1-11.37-1c-1.21-.22-1.75-1.13-2.23-2.28-1-2.42-2-5.67-1.49-8.53A2.65,2.65,0,0,1,71.4,91.54Z"/>
		<path class="cls-4" d="M60.61,169.93l-3.28,1a25.14,25.14,0,0,0-7.47,3.68c-11.77,8.65-12.1,22.82-12.59,25.45a.36.36,0,0,0,.36.43H170.25a.36.36,0,0,0,.36-.43c-.47-2.56-.64-16-11.57-24.68a26.2,26.2,0,0,0-8.57-4.47l-3.2-1a132.76,132.76,0,0,1-86.66,0Z"/>
	</g>
	<circle class="cls-1" cx="102.79" cy="102.74" r="99"/>
	<path class="cls-6" d="M114.42,130.36h0c-2-.5-3.49-.92-5.35-1.55a8.11,8.11,0,0,0-1.91-.4,3.12,3.12,0,0,0-.86,0,5.33,5.33,0,0,0-1.8.34l-.23.07a5.14,5.14,0,0,1-2.63.08,6.22,6.22,0,0,1-.87-.25,5,5,0,0,0-3.07-.07c-1.19.36-2.38.7-3.58,1a27.77,27.77,0,0,1-3,.58,20,20,0,0,0,11.39,3.74,22.38,22.38,0,0,0,11.81-3.52Z"/>
	<path class="cls-7" d="M109.74,130.65l.45-.13s-4.21.19-5.29.27-2,.17-2.49.22-1.56-.17-2.21-.19L95,130.56l.13,0A24.66,24.66,0,0,0,109.74,130.65Z"/>
</svg>