<svg id="Layer_1" data-name="Layer 1" xmlns="http://www.w3.org/2000/svg" xmlns:xlink="http://www.w3.org/1999/xlink" viewBox="0 0 205.18 205.01"><defs><style>.cls-1,.cls-8{fill:none;}.cls-1,.cls-4,.cls-5,.cls-8{stroke:#1bc398;}.cls-1,.cls-2,.cls-4,.cls-5,.cls-6,.cls-8{stroke-miterlimit:10;}.cls-1{stroke-width:7px;}.cls-2,.cls-5,.cls-6,.cls-7,.cls-9{fill:#1bc398;}.cls-2,.cls-6,.cls-7{stroke:#fff;}.cls-3{clip-path:url(#clip-path);}.cls-4{fill:#fff;}.cls-4,.cls-5{stroke-width:2px;}.cls-6,.cls-7{stroke-width:1.5px;}.cls-7{stroke-linejoin:round;}.cls-8{stroke-width:6px;}</style><clipPath id="clip-path"><circle class="cls-1" cx="102.62" cy="102.44" r="99"/></clipPath></defs><title>LyfSquad</title><path class="cls-2" d="M74.67,154.85a36.6,36.6,0,0,1,7-.93s1.35,10.07-8,11.36"/><path class="cls-2" d="M126.59,161.83s-10.17-1.92-10-9.09l7.83.74"/><g class="cls-3"><path class="cls-4" d="M165.22,175.67a32.2,32.2,0,0,0-10-4.63l-3.8-1,.07,0-29.95-9.74a5.9,5.9,0,0,1-4.19-4.83c-1.21-6.24-1.07-21.27-1-23.95a.38.38,0,0,0-.42-.37H83.33a.4.4,0,0,0-.43.37c0,2.65.15,17.38-1,23.95a5.81,5.81,0,0,1-4.19,4.83L47.72,170l.08,0-3.9,1a31.05,31.05,0,0,0-8.71,3.8c-13.7,9-14.09,23.63-14.66,26.36a.39.39,0,0,0,.42.44H178.29a.4.4,0,0,0,.42-.44C178.16,198.58,178,184.68,165.22,175.67Z"/><path class="cls-5" d="M165.22,175.67a32.2,32.2,0,0,0-10-4.63l-3.8-1,.07,0-24.92-8.53c.11,3.4-.21,10.3-3,13.26-1.69,1.79-7.16,5.73-9,7.69-3,3.18-5,3.8-6.82,6.31-2.78,3.84-6.42,11-8.68,9.36-1.08-.77-9.75-9.9-10.73-12.34-1.12-2.81-6-7.11-7.07-8.44-6.76-8.22-2.72-10.84-7.77-15.69L47.72,170l.08,0-3.9,1a31.05,31.05,0,0,0-8.71,3.8c-13.7,9-14.09,23.63-14.66,26.36a.39.39,0,0,0,.42.44H178.29a.4.4,0,0,0,.42-.44C178.16,198.58,178,184.68,165.22,175.67Z"/></g><circle class="cls-1" cx="102.62" cy="102.44" r="99"/><path class="cls-4" d="M71.19,98.53c2.2,6.47.94,16.59-2.8,18.54s-8.56-5-10.75-11.47-1-13.3,2.79-15.25S69,92.06,71.19,98.53Z"/><path class="cls-4" d="M130.09,98.53c-2.2,6.47-1,16.59,2.8,18.54s8.55-5,10.75-11.47,1-13.3-2.79-15.25S132.29,92.06,130.09,98.53Z"/><path class="cls-4" d="M100.29,41.14C63.18,39.8,62.63,78.66,63.19,91.46a168.78,168.78,0,0,0,4.24,29.61c1,3.87,2.91,10.34,5.61,13.15,7.24,7.55,16.23,14.24,21.79,16.56a17.23,17.23,0,0,0,5.46.59,17.15,17.15,0,0,0,5.46-.59c5.56-2.32,14.56-9,21.8-16.56,2.69-2.81,4.57-9.28,5.61-13.15a169.72,169.72,0,0,0,4.24-29.61C138,78.66,137.41,39.8,100.29,41.14Z"/><path class="cls-5" d="M142.4,84.08c-1.26,2.7-1.58,2.5-2.66,4-1.26,6.43-.89,10.5-4.16,16.54.47-5-1-7.67-1.39-12.64-.49-5.94.26-12-1.63-17.83A35.06,35.06,0,0,0,128,65.49c-1.15-1.71-4.5-2.39-7.49-1.8s-6.17,1.51-9.43,1.2-6.36-.66-9.5-1.1c-3.66-.52-6.89.25-10.21,1.07a6,6,0,0,1-2,.17c-3.56-.28-7.09-.86-10.71-.82-4.79.07-7.91,2-7.16,6.75l.5,3.12-3-2.15a29.23,29.23,0,0,0-1.87,13.12l-3.68-2c.19,7.21,1.28,15.21,1.23,22.21-2.35-2.37-2.17-6.33-3-9.11-.77-2.59-.89-5.27-2.14-7.8a7.63,7.63,0,0,0-3.17-3.58c-.31-3.43-.77-6.86-.88-10.29-.14-3.95.91-7.81,2-11.65a4.61,4.61,0,0,0,.12-1.51,2.8,2.8,0,0,0-.41,0c-.89.13-1.82,1.15-2.44.62s.46-1.42.85-2.11a4.6,4.6,0,0,1,2-2.27c-2.5.42-3.63,1.69-5.54,2.59,3.57-6,11.29-8.77,15.7-14-2.4-.21-4,1.06-6.44,2a16,16,0,0,1,7.94-7.46,42.17,42.17,0,0,1,5.9-2.11c1.27-.32.87-.63.48-1.18a7.46,7.46,0,0,1-1.53-4.19,21.56,21.56,0,0,0,12,3.16c1.55,0,3-.51,4.58-.39.94.07,1.47-.32.54-1a4.38,4.38,0,0,1-1.82-5.06,9.27,9.27,0,0,0,6,3.67c0-1-1.43-1.4-1.14-2.39,8.6,4,18.31,6,27.27,9.35a14.4,14.4,0,0,0,7.65,1.1,2.65,2.65,0,0,0,1.88-1c.21-.3.33-.71.84-.59s.41.54.56.85c.62,1.24.25,2.3-.79,3.37,1.92.43,3.78-.13,5.67.2l-3.11,1.14c5.44,2.09,8.1,5.42,8.52,10.13s1.18,9.69,1.34,14.57a33.66,33.66,0,0,1,.3,4.63c-1.49-.42-.42-1.48-1.12-2.28-.69,1.7-1.51,3.24-.73,4.95C143.63,79.77,143.07,81.92,142.4,84.08Z"/><path class="cls-6" d="M126.92,179.32s-5.42,2.14-10.19,15.21c-1,2.58-1.71,4.76-2.34,6.59"/><path class="cls-6" d="M116.43,179.94a34.43,34.43,0,0,0-4.72,3.64c-1.79,1.6-6.49,5.75-9.37,9.88a76.89,76.89,0,0,0-4.7,8.21"/><path class="cls-6" d="M71.85,178.84s3.19,2.09,3.68,3.62,3.13,4.62,4.44,7.43c.81,1.73,2.88,6.32,4.36,10.28"/><path class="cls-6" d="M80.54,178.84s4.61.91,5.43,2.36,12.58,12.26,13.73,16.58"/><path class="cls-6" d="M86.3,186.2s-4-.46-2.79,3.28c1.17,3.57,5.44,1.19,5-1.13A2.3,2.3,0,0,0,86.3,186.2Z"/><path class="cls-7" d="M125.09,154.75a21.87,21.87,0,0,1,.76,10.29c-1,5.5-2.3,10.08-4.27,10.54a7.47,7.47,0,0,0-5.15,4.36s3.67-3.75,10.49-.62,6.52,15.87,8.83,12c1.13-1.9,6.43-13.35,3.59-20.7-2.52-6.53-4.37-9.37-7.25-11.71s-5.25-4.64-7.63-5.17Z"/><path class="cls-7" d="M74.71,154s-.72,14.29,11.2,26.75a25,25,0,0,0-17.12-1.23c-9.05,2.83-6.83,9.25-8.72,9.32s-.79-7.94-.57-12.68c.24-5.26,1.51-8.91,3.21-11.13C64.86,162.28,70.43,154.87,74.71,154Z"/><circle class="cls-8" cx="102.62" cy="102.44" r="99"/><path class="cls-9" d="M104.52,135.55s-7.24.44-9.61,0C94.91,135.55,100.85,133.41,104.52,135.55Z"/><path class="cls-9" d="M88.74,130.12a13.76,13.76,0,0,1,3.93,1.14,17.31,17.31,0,0,0,8.88,1.2,13.38,13.38,0,0,0,3.71-1,22.51,22.51,0,0,1,4.9-1.58,1.26,1.26,0,0,1,.48,0,25.3,25.3,0,0,0-5.25,2.32A16.4,16.4,0,0,1,93,132.07C91.58,131.38,90.09,130.73,88.74,130.12Z"/><path class="cls-9" d="M105.6,129.2c-.79.17-1.69.32-2.5.53a14.79,14.79,0,0,1-6.88.14c-.78-.16-1.59-.3-2.39-.45l.07-.17a18,18,0,0,1,2.4.13,14,14,0,0,0,6.21,0A6.25,6.25,0,0,1,105.6,129.2Z"/><path class="cls-9" d="M128.25,87.94c-.07-.18-.14-.37-.22-.56a9.66,9.66,0,0,0-5.78-5.53,10.31,10.31,0,0,0-2.83-.58,57,57,0,0,0-10,.89,10.5,10.5,0,0,0-1.52.44l.38-.54c-.78,0-1.2.52-1.7,1l.14-.9-.1-.06a3.7,3.7,0,0,0-.38.42,4.13,4.13,0,0,0,0,4.3,1.53,1.53,0,0,0,1.58.75,21.76,21.76,0,0,0,2.42-.38c3.08-.73,5.73-1.56,8.9-2.39.65-.18,3.39-1.21,6.5,1.63,0,0,1.56,1.47,2.2,2a4.7,4.7,0,0,0,.74.61l.06-.07C128.51,88.68,128.42,88.35,128.25,87.94Z"/><path class="cls-9" d="M71.18,87.94c.07-.18.14-.37.22-.56a9.66,9.66,0,0,1,5.78-5.53A10.31,10.31,0,0,1,80,81.27a57,57,0,0,1,10,.89,10.5,10.5,0,0,1,1.52.44l-.38-.54c.78,0,1.2.52,1.7,1l-.14-.9.1-.06a5,5,0,0,1,.38.42,4.11,4.11,0,0,1,0,4.3,1.52,1.52,0,0,1-1.57.75,21.76,21.76,0,0,1-2.42-.38c-3.09-.73-5.73-1.56-8.9-2.39-.66-.18-3.39-1.21-6.5,1.63,0,0-1.56,1.47-2.2,2a5.2,5.2,0,0,1-.74.61L70.78,89C70.92,88.68,71,88.35,71.18,87.94Z"/></svg>