<svg id="Layer_1" data-name="Layer 1" xmlns="http://www.w3.org/2000/svg" xmlns:xlink="http://www.w3.org/1999/xlink" viewBox="0 0 205.13 205.07"><defs><style>.cls-1{fill:none;stroke-width:7px;}.cls-1,.cls-3,.cls-4{stroke:#1bc398;}.cls-1,.cls-3,.cls-4,.cls-6{stroke-miterlimit:10;}.cls-2{clip-path:url(#clip-path);}.cls-3{fill:#fff;}.cls-3,.cls-4{stroke-width:2px;}.cls-4,.cls-5,.cls-6,.cls-7,.cls-8{fill:#1bc398;}.cls-6{stroke:#fff;stroke-width:0.5px;}.cls-7{fill-rule:evenodd;}.cls-8{opacity:0.3;}</style><clipPath id="clip-path"><circle class="cls-1" cx="102.59" cy="102.46" r="99" transform="matrix(0.16, -0.99, 0.99, 0.16, -14.98, 187.31)"/></clipPath></defs><title>LyfSquad</title><g class="cls-2"><path class="cls-3" d="M169.79,174.49a32,32,0,0,0-10-4.63l-3.81-1,.08,0-30-9.73a5.87,5.87,0,0,1-4.19-4.83c-1.22-6.25-1.07-21.28-1-24a.4.4,0,0,0-.43-.37H87.89a.38.38,0,0,0-.42.37c0,2.66.15,17.38-1,24a5.84,5.84,0,0,1-4.19,4.83l-29.95,9.73.07,0-3.89,1a31,31,0,0,0-8.72,3.81c-13.69,9-14.09,23.62-14.66,26.35a.4.4,0,0,0,.42.44H182.85a.39.39,0,0,0,.42-.44C182.72,197.39,182.52,183.49,169.79,174.49Z"/><path class="cls-4" d="M169.79,174.49a32,32,0,0,0-10-4.63l-3.81-1,.08,0-25.77-8.37a74.1,74.1,0,0,1-52.26,0l-25.76,8.37.07,0-3.89,1a31,31,0,0,0-8.72,3.81c-13.69,9-14.09,23.62-14.66,26.35a.4.4,0,0,0,.42.44H182.85a.39.39,0,0,0,.42-.44C182.72,197.39,182.52,183.49,169.79,174.49Z"/><path class="cls-5" d="M141,107a2.17,2.17,0,0,0,0-.26l-.18.75C140.91,107.32,141,107.16,141,107Z"/><path class="cls-3" d="M146,81.19a122,122,0,0,0,.93-12.75c-2.53-23.18-20.29-36.85-41.06-37.69v0l-.28,0-.27,0v0c-20.78.84-38.54,14.51-41.07,37.69-.16,1.46.4,7.64,1.14,14.8-1.88,1-3.64,3.31-3.55,8.87,0,.08,0,.15,0,.22.1,1.11,1,10.41,4,12.71a2.12,2.12,0,0,0,2,.29c-1,.33-.35,11.14-.36,12.36-.07,6.92,1.3,14.31,6.29,19.68,6.47,7,18.35,13,28.22,14.27,7.36,1,14.54-1.78,20.92-4.87,7.08-3.44,13.77-8.82,17.26-15.62s2.65-13.84,2.11-21.14c-.07-1-.6-7.64,1.53-7.78l.86,0c4.52.64,5.8-11.67,5.8-11.67C150.53,84,148.15,81.84,146,81.19Z"/><path class="cls-6" d="M145.42,79.12c-1.28-1.46-6.37-2.2-15.12-2.2-2.44,0-4.4.06-4.94.09-1,0-1.91.08-2.86.16a53.05,53.05,0,0,0-10,1.47A32,32,0,0,1,106.15,80h-.3c-1.42.1-5.18-.87-6.59-1.3a52.93,52.93,0,0,0-10-1.47c-1-.08-1.9-.13-2.86-.16-.54,0-2.49-.09-4.94-.09-8.75,0-13.83.74-15.12,2.2a1.47,1.47,0,0,0-.38,1c0,1.18.09,2.4.16,3.58v.19a2.4,2.4,0,0,0,.38,1.21l.06.11a12.61,12.61,0,0,0,.89,1.24,4.09,4.09,0,0,1,.81,1.38l.94,2.68a30.32,30.32,0,0,0,1.53,3.67,5.53,5.53,0,0,0,2.61,2.56,11,11,0,0,0,2.27.76,42.39,42.39,0,0,0,8.56.88A64.22,64.22,0,0,0,91,98c2.68-.29,6-.65,8-3.44a20.5,20.5,0,0,0,2.64-5.43c.22-.63.42-1.27.62-1.9l.29-.9A1.83,1.83,0,0,1,103.85,85a6.48,6.48,0,0,1,1.68-.23,2.56,2.56,0,0,1,.37,0,5.94,5.94,0,0,1,2,.21,1.83,1.83,0,0,1,1.26,1.33l.28.87c.2.65.4,1.3.62,1.93a20.81,20.81,0,0,0,2.64,5.43c2,2.79,5.35,3.15,8,3.44a64.37,64.37,0,0,0,6.86.42,42.32,42.32,0,0,0,8.56-.88,10.63,10.63,0,0,0,2.27-.76A5.53,5.53,0,0,0,141,94.17a28.79,28.79,0,0,0,1.53-3.67l.51-1.44.44-1.24a4.23,4.23,0,0,1,.8-1.38,12.51,12.51,0,0,0,1-1.35,2.37,2.37,0,0,0,.37-1.21v-.14c.07-1.2.14-2.44.16-3.63A1.42,1.42,0,0,0,145.42,79.12Zm-24.29,17c-1.07-.14-2.13-.34-3.13-.54a5.24,5.24,0,0,1-3.63-2.26A18,18,0,0,1,112,86.85a14.58,14.58,0,0,1-.25-2.92,4.18,4.18,0,0,1,.22-1.4,2.41,2.41,0,0,1,1.35-1.38,29.54,29.54,0,0,1,8.62-1.79c2.42-.23,5-.34,7.56-.34,2.27,0,4.61.09,6.93.26a12.16,12.16,0,0,1,4.34,1.08,2.15,2.15,0,0,1,.82,1.77,26.88,26.88,0,0,1-.83,6.87,15.86,15.86,0,0,1-2,5,4.61,4.61,0,0,1-2.36,1.52,15.3,15.3,0,0,1-1.58.41,32,32,0,0,1-7,.72A49.46,49.46,0,0,1,121.13,96.12ZM73,94a15.84,15.84,0,0,1-2-5,27.12,27.12,0,0,1-.83-6.87A2.15,2.15,0,0,1,71,80.36a12.16,12.16,0,0,1,4.33-1.08C77.67,79.11,80,79,82.28,79c2.59,0,5.13.11,7.56.34a29.6,29.6,0,0,1,8.62,1.79,2.41,2.41,0,0,1,1.35,1.38,4.76,4.76,0,0,1,.22,1.4,14.48,14.48,0,0,1-.26,2.92,17.82,17.82,0,0,1-2.39,6.47,5.22,5.22,0,0,1-3.63,2.26c-1,.2-2,.4-3.13.54a49.46,49.46,0,0,1-6.69.49,32,32,0,0,1-7-.72,16,16,0,0,1-1.58-.41A4.65,4.65,0,0,1,73,94Z"/><path class="cls-5" d="M104.71,109.32a29,29,0,0,0-1.66-3c-.35-.51-9.62,5.31-10.54,5.86-2.92,1.73-6,3.62-7.91,6.55-2.32,3.62-.79,7.36-1.18,11.31,0,0-.19,1.9-.22,2.12,0-.3,2.32-1.11,2.71-1.39,2.37-1.71,3.66-4.45,5.79-6.41,2.71-2.49,6.09-2.28,9.5-2.9a3.28,3.28,0,0,0,3-2.77l.21-1.5.43-.42C104.68,114.32,104.7,111.82,104.71,109.32Z"/><path class="cls-5" d="M104.39,109.32a31.08,31.08,0,0,1,1.66-3c.36-.51,9.63,5.31,10.55,5.86,2.91,1.73,6,3.62,7.91,6.55,2.32,3.62.78,7.36,1.18,11.31,0,0,.19,1.9.21,2.12,0-.3-2.31-1.11-2.7-1.39-2.38-1.71-3.67-4.45-5.79-6.41-2.72-2.49-6.09-2.28-9.51-2.9a3.28,3.28,0,0,1-3-2.77l-.21-1.5-.42-.42C104.43,114.32,104.4,111.82,104.39,109.32Z"/><path class="cls-5" d="M142.11,51l-1-.28,0-1c0-.33-.38-8.32-12.29-14-7.61-3.61-10.44-3.79-12.71-3.93a14.39,14.39,0,0,1-3.69-.57,40.36,40.36,0,0,0-10.74-1.43,29.66,29.66,0,0,0-6.59.68l-.34,0a37.29,37.29,0,0,0-6.34.52l-.22,0c-1.71.13-4.54.56-5.45,1.12l-.25.15-.29.05c-3.63.6-9.07,2.25-9.8,4.06l-.17.4-.37.24c-1,.64-2.74,2.05-3.12,3.1l-.13.37-.32.24s-4.67,3.72-4,8l0,.19,0,.18c0,.11-.25,1.91-.64,3.74l4.13-4.1-1.91,5.63A40.71,40.71,0,0,0,64,62c-.42,7-.15,14.83.84,19.58.6-6.8,1.75-17.9,3.08-20.86.16-.34.32-.71.48-1.08a27.11,27.11,0,0,1,3.66-6.31c10.49-13,30.21-11.56,45.53-10.27,4.62.38,10.57,1.14,14.61,3.47.39.23,2.78,2.59,2.78,2.59.48,0,.89-.1,1.24-.15a8.52,8.52,0,0,1,1.15-.11A2.8,2.8,0,0,1,140,50.55c.69,1.22,2.12,7.67,4.35,18.41.39,1.91.7,3.36.82,3.91a81.53,81.53,0,0,1,.88,8.57,25.49,25.49,0,0,0,1.61-7.26C147.54,65.32,145.54,52,142.11,51Z"/><path class="cls-7" d="M102.2,75.09a5.73,5.73,0,0,0-2.35-2l.44.76a9.58,9.58,0,0,0-4.41-1.35,18.3,18.3,0,0,1,2.58,1.55,36,36,0,0,0-4.41-2C88.55,70.42,81.38,71,76.4,74c.55-.14,1.11-.27,1.66-.37a8.69,8.69,0,0,0-4.79,6.51c.7-3.38,3.14-4.23,6.28-3.87,1.52.18,3,.62,4.54.81,1.74.21,3.7-.32,5.38,0,2.12.42,3.88,1.31,6.09,1.41,1.62.08,4.91,1.65,6.35.73S103.41,77,102.2,75.09Z"/><path class="cls-7" d="M109.14,74.92a5.6,5.6,0,0,1,2.35-2l-.44.76a9.66,9.66,0,0,1,4.41-1.35,18.3,18.3,0,0,0-2.58,1.55,37.58,37.58,0,0,1,4.41-2c5.5-1.64,12.67-1.06,17.65,2-.55-.14-1.11-.26-1.66-.36a8.65,8.65,0,0,1,4.79,6.5c-.7-3.38-3.14-4.23-6.28-3.86-1.53.17-3,.61-4.54.8-1.74.21-3.7-.32-5.38,0-2.12.42-3.88,1.31-6.09,1.42-1.63.07-4.91,1.64-6.36.72S107.93,76.79,109.14,74.92Z"/></g><circle class="cls-1" cx="102.59" cy="102.46" r="99" transform="matrix(0.16, -0.99, 0.99, 0.16, -14.98, 187.31)"/><path class="cls-8" d="M142.69,103.09c-.36,1-1.9,1.81-2,2.88-.67,5.07-.27,8.55-1.58,12-1.85,5-2.58,4.92-6.6,6.65-3.12,1.35-7.64-2-10.32-3.84-5.55-3.84-7.46-6.71-15.59-6.46l-2.57.25c-7.62.2-11.22,2.34-16.82,6.21-2.67,1.85-4.73,4.42-8.21,3.92-4.54-.66-6-1.69-7.9-6.64-1.31-3.51-1.4-8.36-2.66-11.89-.37-1-1.21.21-1.58-.83-.18,0,0,.91-.16.91.73,8.21-.77,13.41,1.09,18.9,1.19,3.5,3.33,9.36,6.41,11.91C82.42,144,92.68,150,99,152.11a21.16,21.16,0,0,0,5.2.53h.86a21.19,21.19,0,0,0,5.21-.53c6.34-2.1,16.61-8.16,24.87-15,3.07-2.55,5.22-8.41,6.4-11.91,1.86-5.49.4-13.9,1.12-22.11C142.5,103.08,142.88,103.09,142.69,103.09ZM113.08,137c-2.32-.62-6.08-2.48-8.38-2.38-2.29-.1-6,1.65-8.36,2.27-5.25,1.42-6.89-.55-9-6.46-.54-1.5-1.47-4.73,0-5.63,3.73-2.23,12.46-8.91,17.36-8.89s12.39,6,17.21,9.06a5.18,5.18,0,0,1,1.56,5.57C120.83,135.9,118.28,138.36,113.08,137Z"/><path class="cls-5" d="M110.42,134.3s-9,.68-11.92,0C98.5,134.3,105.87,131,110.42,134.3Z"/></svg>