<svg id="Layer_1" data-name="Layer 1" xmlns="http://www.w3.org/2000/svg" xmlns:xlink="http://www.w3.org/1999/xlink" viewBox="0 0 205.95 205.99"><defs><style>.cls-1{fill:none;stroke-width:7px;}.cls-1,.cls-3,.cls-4{stroke:#1bc398;}.cls-1,.cls-3,.cls-4,.cls-6{stroke-miterlimit:10;}.cls-2{clip-path:url(#clip-path);}.cls-3{fill:#fff;}.cls-3,.cls-4{stroke-width:2px;}.cls-4,.cls-5,.cls-6{fill:#1bc398;}.cls-6{stroke:#fff;}</style><clipPath id="clip-path"><circle class="cls-1" cx="103.02" cy="102.99" r="99" transform="translate(-42.65 103.01) rotate(-45)"/></clipPath></defs><title>LyfSquad</title><g class="cls-2"><path class="cls-3" d="M167.5,173.79a30.9,30.9,0,0,0-9.84-4.82l-3.75-1.05.07,0-29.54-10.14a6,6,0,0,1-4.13-5c-1.2-6.5-1.06-22.14-1-24.93a.39.39,0,0,0-.42-.39H86.73a.39.39,0,0,0-.42.39c0,2.76.14,18.08-1,24.93a6,6,0,0,1-4.13,5L51.61,167.9l.08,0L47.84,169a29.6,29.6,0,0,0-8.59,4c-13.51,9.32-13.9,24.58-14.46,27.42a.4.4,0,0,0,.41.47H180.39a.4.4,0,0,0,.41-.47C180.26,197.63,180.06,183.16,167.5,173.79Z"/><path class="cls-4" d="M167.5,173.79a30.9,30.9,0,0,0-9.84-4.82l-3.75-1.05.07,0-25.41-8.72a69.58,69.58,0,0,1-51.55,0L51.61,167.9l.08,0L47.84,169a29.6,29.6,0,0,0-8.59,4c-13.51,9.32-13.9,24.58-14.46,27.42a.4.4,0,0,0,.41.47H180.39a.4.4,0,0,0,.41-.47C180.26,197.63,180.06,183.16,167.5,173.79Z"/><path class="cls-3" d="M72.46,94.29c2.26,6.44,1,16.49-2.88,18.43s-8.82-5-11.08-11.4-1-13.22,2.88-15.16S70.2,87.86,72.46,94.29Z"/><path class="cls-3" d="M133.13,94.29c-2.26,6.44-1,16.49,2.88,18.43s8.82-5,11.08-11.4,1-13.22-2.88-15.16S135.4,87.86,133.13,94.29Z"/><path class="cls-3" d="M102.44,37.24c-38.23-1.34-38.79,37.3-38.22,50,.42,9.27,2.5,22.75,4.37,29.44,1.06,3.84,3,10.27,5.78,13.06,7.45,7.51,16.72,14.16,22.45,16.47a18.17,18.17,0,0,0,5.62.59,18.17,18.17,0,0,0,5.62-.59c5.73-2.31,15-9,22.45-16.47,2.78-2.79,4.72-9.22,5.78-13.06,1.87-6.69,4-20.17,4.37-29.44C141.23,74.54,140.67,35.9,102.44,37.24Z"/></g><circle class="cls-1" cx="103.02" cy="102.99" r="99" transform="translate(-42.65 103.01) rotate(-45)"/><path class="cls-5" d="M139,90.49a21,21,0,0,0-1,3.41,74.45,74.45,0,0,1-2.6,13.8c-1.67,5.43-4.7,6.91-8.32,8.81-2.82,1.48-6.9-2.18-9.31-4.22-5-4.22-8-3.9-15.35-3.62h-.88c-6.87.22-10.29-.63-15.34,3.62-2.42,2-4.28,4.85-7.42,4.3-4.1-.72-7.45-1.77-9.11-7.2C68.54,105.54,67.36,96.9,66.22,93c-.33-1.14-.85-1.4-1.18-2.54l-.51,0a163.2,163.2,0,0,0,4.2,26.58c1.06,3.84,3,10.27,5.78,13.07C82,137.66,91.23,144.32,97,146.63a16.13,16.13,0,0,0,4.69.58h.78a16.26,16.26,0,0,0,4.7-.58c5.72-2.31,15-9,22.45-16.47,2.77-2.8,4.71-9.23,5.78-13.07a163.3,163.3,0,0,0,4.19-26.58Zm-29.52,41.9c-2.09-.69-5.41-3.27-7.48-3.16-2.07-.11-4.73,3.3-6.82,4-5.44,1.78-11.87-5.18-14-12.8,5.42-2.26,15.55-6,20.87-6s16.45,3.42,21.86,5.67C121.73,127.71,115,134.17,109.52,132.39Z"/><path class="cls-6" d="M138,75.29s0-.06,0-.08a.28.28,0,0,0-.17-.21h0l0,0c-2.94-1.37-15.3-2.1-22-1.21s-10.7,3-12.91,3.11-6.22-2.17-12.94-3-19,0-22,1.37l0,0h0a.3.3,0,0,0-.17.22v.07c0,.48-.12,2.52-.09,3.69a1,1,0,0,1,0,.17,1,1,0,0,0,.52.74h0c.58.26,1.61,1.4,2.67,6.95.48,2.78,1.07,8.62,5.81,10.38,2.15.79,12.56,2.37,17.85-2.79,1.12-1.08,2.32-3.46,3.32-5.9.6-1.65,2.18-6.4,2.42-7.13a2.39,2.39,0,0,1,2.3-2.08h.51c1.21,0,2,.79,2.31,2.06.25.72,1.86,5.47,2.46,7.12a20.19,20.19,0,0,0,3.36,5.87c5.32,5.12,15.73,3.46,17.87,2.66,4.72-1.8,5.27-7.65,5.74-10.42,1-5.56,2.05-6.7,2.63-7l0,0a.91.91,0,0,0,.52-.74,1,1,0,0,0,0-.17C138.17,77.81,138.05,75.76,138,75.29Z"/><path class="cls-4" d="M67.21,51.7a9.24,9.24,0,0,0-1.93,2.74c-4.37,8.59-1.42,17.77-1.54,25A52.65,52.65,0,0,0,66.22,93c1.16-6.47.75-23.41,2.2-29.93C68.42,63.1,72.77,45.91,67.21,51.7Z"/><path class="cls-4" d="M138.81,51.7a3.49,3.49,0,0,1,1.62,2.14c4.37,8.59,1.73,18.37,1.85,25.57A52.23,52.23,0,0,1,139.8,93c-1.16-6.47-.75-13.12-2.19-19.64a80.64,80.64,0,0,0-4.46-14S132.12,49.56,138.81,51.7Z"/><path class="cls-5" d="M78.14,45.85S80,44.2,87.5,44.31s8.19,2,18.94,1.06,12.55-1.87,16.89-.8c4.69,1.15,4.06,1.15,6.51,1.53s2.75-1.92.88-3.87c-2.18-2.28-3.62-2.7-6.11-3.72-2.17-.89-5.22.05-7-1.78-3.78-4-12.16,0-21.94,1.55-3.58.59-6.56,1-9.07,1.32L83.59,40c-5.37.8-8.12,1.61-10.52,4.56C71.79,46.17,74.23,48.51,78.14,45.85Z"/><path class="cls-5" d="M129.84,41.94c-2.14-2.65-7.17-5.86-7.17-5.86s1.06,1.66.07,1.72-1.56-1.12-1.56-1.12a1.07,1.07,0,0,1-1.45,1c-.78-.25.59-1.9.59-1.9a6,6,0,0,1-2.38,0,3.22,3.22,0,0,0,2-1.21c-2.08.53-7.64-.14-7.64-.14a10.48,10.48,0,0,0,2.77-1.67c-1.78.94-6,1.48-6,1.48A1.81,1.81,0,0,0,110.35,33c-1,.87-4.41,1-4.41,1a1.16,1.16,0,0,0,.57-1.32c-.57,1.32-4.68,1.55-4.94,1.47s1.32-1,1.32-1a37.46,37.46,0,0,0-5.13,1.42c-.05-.39,1.21-1.3,1.21-1.3a10.92,10.92,0,0,0-5.9,2.84c-.22-1,3.21-3,3.21-3C87.86,33.83,85,38.8,85,38.8c-.46-1.18,2.21-3.57,2.21-3.57-3.9,1-8.18,5.05-8.18,5.05a13,13,0,0,0,.15-3.47A15.78,15.78,0,0,1,75,43"/><path class="cls-5" d="M111.27,125.44s-13,.69-17.21,0C94.06,125.44,104.7,122.1,111.27,125.44Z"/><path class="cls-5" d="M139,89.49a21,21,0,0,0-1,3.41,74.45,74.45,0,0,1-2.6,13.8c-1.67,5.43-4.7,6.91-8.32,8.81-2.82,1.48-6.9-2.18-9.31-4.22-5-4.22-8-3.9-15.35-3.62h-.88c-6.87.22-10.29-.63-15.34,3.62-2.42,2-4.28,4.85-7.42,4.3-4.1-.72-7.45-1.77-9.11-7.2C68.54,104.54,67.36,95.9,66.22,92c-.33-1.14-.85-1.4-1.18-2.54l-.51,0a163.2,163.2,0,0,0,4.2,26.58c1.06,3.84,3,10.27,5.78,13.07C82,136.66,91.23,143.32,97,145.63a16.13,16.13,0,0,0,4.69.58h.78a16.26,16.26,0,0,0,4.7-.58c5.72-2.31,15-9,22.45-16.47,2.77-2.8,4.71-9.23,5.78-13.07a163.3,163.3,0,0,0,4.19-26.58Zm-29.52,41.9c-2.09-.69-5.41-3.27-7.48-3.16-2.07-.11-4.73,3.3-6.82,4-5.44,1.78-11.87-5.18-14-12.8,5.42-2.26,15.55-6,20.87-6s16.45,3.42,21.86,5.67C121.73,126.71,115,133.17,109.52,131.39Z"/></svg>