<svg id="Layer_1" data-name="Layer 1" xmlns="http://www.w3.org/2000/svg" xmlns:xlink="http://www.w3.org/1999/xlink" viewBox="0 0 205.51 205.46"><defs><style>.cls-1{fill:none;stroke-width:7px;}.cls-1,.cls-3,.cls-4,.cls-5{stroke:#1bc398;stroke-miterlimit:10;}.cls-2{clip-path:url(#clip-path);}.cls-3{fill:#fff;}.cls-3,.cls-4{stroke-width:2px;}.cls-4,.cls-5,.cls-6{fill:#1bc398;}</style><clipPath id="clip-path"><circle class="cls-1" cx="102.75" cy="102.52" r="99"/></clipPath></defs><title>LyfSquad</title><g class="cls-2"><path class="cls-3" d="M171.19,174.68a32.2,32.2,0,0,0-10-4.63l-3.8-1,.08,0-30-9.74a5.87,5.87,0,0,1-4.18-4.83c-1.22-6.25-1.08-21.28-1-24a.4.4,0,0,0-.43-.37H89.3a.4.4,0,0,0-.43.37c0,2.66.15,17.38-1,24a5.82,5.82,0,0,1-4.19,4.83L53.69,169l.08,0-3.9,1a31.08,31.08,0,0,0-8.71,3.81c-13.7,9-14.09,23.62-14.66,26.35a.39.39,0,0,0,.42.45H184.26a.4.4,0,0,0,.42-.45C184.12,197.58,183.92,183.69,171.19,174.68Z"/><path class="cls-4" d="M171.19,174.68a32.2,32.2,0,0,0-10-4.63l-3.8-1,.08,0-25.77-8.38a74.1,74.1,0,0,1-52.26,0L53.69,169l.08,0-3.9,1a31.08,31.08,0,0,0-8.71,3.81c-13.7,9-14.09,23.62-14.66,26.35a.39.39,0,0,0,.42.45H184.26a.4.4,0,0,0,.42-.45C184.12,197.58,183.92,183.69,171.19,174.68Z"/><path class="cls-3" d="M74.83,98.29c2.3,6.18,1,15.84-2.92,17.71s-8.94-4.77-11.23-11-1-12.71,2.92-14.58S72.54,92.1,74.83,98.29Z"/><path class="cls-3" d="M136.34,98.29c-2.29,6.18-1,15.84,2.93,17.71s8.93-4.77,11.23-11,1-12.71-2.92-14.58S138.64,92.1,136.34,98.29Z"/><path class="cls-3" d="M105.23,43.47C66.46,42.18,65.89,79.3,66.47,91.54a150.32,150.32,0,0,0,4.43,28.29c1.09,3.69,3,9.87,5.86,12.55,7.56,7.21,17,13.61,22.77,15.83a19.54,19.54,0,0,0,5.7.56,19.58,19.58,0,0,0,5.7-.56c5.81-2.22,15.2-8.62,22.76-15.83,2.82-2.68,4.78-8.86,5.86-12.55A148.71,148.71,0,0,0,144,91.54C144.56,79.3,144,42.18,105.23,43.47Z"/><path class="cls-5" d="M143.43,84.48V84.4a.31.31,0,0,0-.18-.21h0l-.05,0C140,82.8,126.74,82.06,119.57,83s-11.51,3.06-13.9,3.13-6.69-2.17-13.92-3-20.46,0-23.63,1.37l0,0h0a.33.33,0,0,0-.18.22s0,0,0,.08c0,.48-.13,2.53-.09,3.7a1.15,1.15,0,0,0,0,.18.94.94,0,0,0,.56.73l0,0c.63.26,1.73,1.4,2.87,7,.53,2.79,1.16,8.65,6.25,10.42,2.32.79,13.52,2.38,19.21-2.8,1.2-1.09,2.5-3.48,3.58-5.93.64-1.65,2.34-6.43,2.6-7.16a2.5,2.5,0,0,1,2.48-2.08H106a2.5,2.5,0,0,1,2.48,2.06c.27.73,2,5.5,2.64,7.15,1.11,2.44,2.42,4.82,3.63,5.9,5.72,5.13,16.92,3.47,19.22,2.67,5.09-1.81,5.68-7.68,6.18-10.47,1.11-5.58,2.2-6.73,2.83-7l.05,0a.94.94,0,0,0,.56-.74v-.17C143.58,87,143.46,85,143.43,84.48Z"/><path class="cls-6" d="M68.88,119.14c0-9.3-3.27-32.86-3.27-32.86s4.56,43.27,39.58,43.27h1.14c35,0,39.58-43.27,39.58-43.27s-3.28,23.56-3.28,32.86c0,8.35-2.06,15.12-3.85,21.17-5.18,17.55-23.49,19.27-30.37,19.27-1.66,0-4.08.06-6.36,0-7.46-.15-24-2.4-29.31-18.78C71.27,136.29,68.88,127.49,68.88,119.14Z"/><path class="cls-6" d="M141.61,87.63c-1-11.93-1.2-18.79-4.41-23.42-3.7-5.32-9.08-6.78-20.68-3.76s-14.63-4.2-22.36-3.86S75,62.27,71.63,67.57c-3.76,6-4.17,23-4,27.89l-.41-.5c-.51-1.83-1.65-5.63-2.23-8.38-1.84-8.84-3.73-20.24-3.73-20.24S59.76,68.46,59.76,60s19.92-34.42,47.66-34.42,26.64,17.66,26.64,17.66c13.9.45,16.81,13.45,17.48,24.1.32,5-2.25,12.19-5.08,18.47-1.32,2.93-1.82,7.23-3,9.43A65.66,65.66,0,0,1,141.61,87.63Z"/><path class="cls-6" d="M122.24,125c-.63-2.93-2.94-5.15-5.19-6.92-2.56-2-6.45-1.31-9.5-.83-.29,0-.56.09-.81.14l-.8-.14c-3.06-.48-7-1.19-9.51.83-2.24,1.77-4.56,4-5.18,6.92s1.31,8.47,5.36,6.76c.42-.18.11,0,.33-.34v-.33c0-5.16,4-10.2,8.92-10.13h1.77c4.9-.07,8.89,5,8.91,10.13v.33c.24.33-.09.16.33.34C120.93,133.47,122.87,128,122.24,125Z"/></g><circle class="cls-1" cx="102.75" cy="102.52" r="99"/></svg>