<svg id="Layer_1" data-name="Layer 1" xmlns="http://www.w3.org/2000/svg" xmlns:xlink="http://www.w3.org/1999/xlink" viewBox="0 0 206.84 206.09"><defs><style>.cls-1{fill:none;stroke-width:7px;}.cls-1,.cls-3,.cls-4{stroke:#1bc398;}.cls-1,.cls-3,.cls-4,.cls-7{stroke-miterlimit:10;}.cls-2{clip-path:url(#clip-path);}.cls-3,.cls-6,.cls-7{fill:#fff;}.cls-3,.cls-4{stroke-width:2px;}.cls-4,.cls-5{fill:#1bc398;}.cls-7{stroke:#fff;}</style><clipPath id="clip-path"><circle class="cls-1" cx="103.37" cy="102.88" r="99"/></clipPath></defs><title>LyfSquad</title><g class="cls-2"><path class="cls-3" d="M169.93,174.27a32.67,32.67,0,0,0-10.16-4.71l-3.87-1,.08,0-30.49-9.91a6,6,0,0,1-4.26-4.91c-1.24-6.36-1.09-21.66-1.06-24.39a.41.41,0,0,0-.43-.38H86.57a.42.42,0,0,0-.44.38c0,2.7.16,17.69-1.06,24.39a5.91,5.91,0,0,1-4.26,4.91L50.32,168.5l.08,0-4,1.05a31.45,31.45,0,0,0-8.86,3.88c-13.95,9.12-14.35,24-14.93,26.82a.4.4,0,0,0,.43.45H183.23a.39.39,0,0,0,.43-.45C183.1,197.59,182.89,183.44,169.93,174.27Z"/><path class="cls-4" d="M169.93,174.27a32.67,32.67,0,0,0-10.16-4.71l-3.87-1,.08,0L129.75,160a75.52,75.52,0,0,1-53.2,0L50.32,168.5l.08,0-4,1.05a31.45,31.45,0,0,0-8.86,3.88c-13.95,9.12-14.35,24-14.93,26.82a.4.4,0,0,0,.43.45H183.23a.39.39,0,0,0,.43-.45C183.1,197.59,182.89,183.44,169.93,174.27Z"/><path class="cls-3" d="M75,97.88c2.1,6.71.9,17.2-2.67,19.22s-8.16-5.18-10.26-11.88-.9-13.79,2.67-15.82S72.94,91.17,75,97.88Z"/><path class="cls-3" d="M131.24,97.88c-2.09,6.71-.9,17.2,2.67,19.22s8.17-5.18,10.27-11.88.9-13.79-2.67-15.82S133.34,91.17,131.24,97.88Z"/><path class="cls-3" d="M102.72,39.27C67.3,37.92,66.78,77,67.31,89.84a179.94,179.94,0,0,0,4,29.77c1,3.88,2.79,10.38,5.36,13.2,6.91,7.59,15.49,12,20.8,14.36a15.66,15.66,0,0,0,5.21.59,15.63,15.63,0,0,0,5.2-.59c5.31-2.34,13.89-6.77,20.8-14.36,2.57-2.82,4.37-9.32,5.36-13.2a179.94,179.94,0,0,0,4-29.77C138.65,77,138.13,37.92,102.72,39.27Z"/></g><circle class="cls-1" cx="103.37" cy="102.88" r="99"/><path class="cls-5" d="M133.4,88.8c-.7-.24-1.43-.45-2.1-.73-1.33-.56-2.66-1.14-4-1.75a20.36,20.36,0,0,0-11.1-1.73c-2.25.22-4.58.22-6.87.29a12.38,12.38,0,0,1-1.45-.13c-.08-1.76,2.13-2.5,3.13-3.79l.36.4A11.1,11.1,0,0,1,116,80.7c1.76,0,3.52-.11,5.26-.25a10.65,10.65,0,0,1,6.94,1.79,14.3,14.3,0,0,1,4.59,5.05c.28.46.53.93.79,1.39Z"/><path class="cls-5" d="M71.89,89.11c1.61-3,3.09-5.87,7.23-7.8a9.46,9.46,0,0,1,4.24-.87c2.54,0,5.09,0,7.61.12A28.54,28.54,0,0,1,94,81s.09-.11.19-.23c.61,0,3.3,2.92,3.29,3.65a14.24,14.24,0,0,1-1.83.21c-2.6,0-5.2-.07-7.77-.21a19.23,19.23,0,0,0-9.5,1.9c-1.66.79-3.34,1.55-5,2.31C73,88.81,72.52,88.91,71.89,89.11Z"/><path class="cls-5" d="M137.87,95.74c.17-1.25,1.81-4.4.58-4.26S137.07,93,137,94.06c-.35,3.2-1.7,8.8-2.09,12-.48,3.92-1.09,8.72-3.85,11.81a91.27,91.27,0,0,0-6.88,9.39,1,1,0,0,1-1.65,0c-1.91-2.37-2.86-3.32-5.77-4.34-4.38-1.53-8.67-2.11-13.1-.29a2.52,2.52,0,0,1-2.33.29c-3.6-1.8-7.86-1.65-11.73-.78a12.89,12.89,0,0,0-7.42,4.17c-.67.68-1.07.36-1.7-.51-1.84-2.5-2.76-5.33-5.06-7.54s-2.48-5.54-3.82-8.79-1.37-8.94-2.38-12.28c-.68-2.24-1.33-7.33-1.67-9.15-.17-.89.56.62-.6.67s.67.77,1,1.9c.65,2.09.49,4.06.5,6.39,0,3,.72,5.59,1,8.57.39,1.43.26,4.73.83,6.09,2.15,5.17,1.26,9.9,3.27,15.12a20.21,20.21,0,0,0,6.12,8.88c10.06,7.9,9.93,11.47,21.85,11.76,12.33.3,17.54-7.61,29.31-17.47,1.58-1.33,2.9-10.43,4.74-18.32.13-.91.88-3.39.91-4.28C136.63,103.18,137.12,101.23,137.87,95.74ZM116.09,134a24.85,24.85,0,0,1-6.63,3.38c-2,.56-3.23-.13-3.46-1.83-.15-1.11.65-2.43-.91-3.28a7.77,7.77,0,0,0-5.83-.59,2.66,2.66,0,0,0-2.33,3.09c.19,2.46-1,3.26-3.47,2.58a21.1,21.1,0,0,1-7.6-4.29c-2-1.6-1.34-3.92,1.1-4.68a9.28,9.28,0,0,1,1.7-.39,68.22,68.22,0,0,1,11.93-.48c.9,0,1.8,0,2.7,0,3.71-.18,7.4.61,11.14.54,1.34,0,3.21.16,3.71,1.78C118.68,131.65,117.64,133.05,116.09,134Z"/><path class="cls-5" d="M141.56,76.81c.1.12.31,0,.29-.1-.37-3.19.83-5.75,1.9-8.29,1.57-3.71.31-7.17-1.14-10.57-.62-1.46.92-1.43,2-.7,1.43,1,0-1.49-.21-2.08-1.71-5.83-3.66-10.93-9.19-14.7a4.86,4.86,0,0,0-2.48-.8,14.41,14.41,0,0,1-10.82-5c-5.31-5.56-20-6.39-27.36-2.68a.07.07,0,0,0,0,.11c.94.82,3.41-.24,4.24.89a30,30,0,0,0-8.34,1.27c-.9.26-2.08.54-3.4.86-7.81,1.88-13.61,5.53-19.74,10.51-4.29,3.49-8,7.27-9.22,10-.33.77-1.46,3.15,0,2.26.25-.16,2-.35,2,0a4.29,4.29,0,0,1-.46,1.15,13,13,0,0,0-.87,7.38,8.52,8.52,0,0,0,.51,1.79c.31.83.27,1.85.5,1.62A5.38,5.38,0,0,1,61,68.51c1.52-.62.34,7.47,1,6.77a21.12,21.12,0,0,0,1.78-1.55c4.83,9.37,1.39,18.37,5.3,27.9-1.58-10.33,1.1-12.54,1.1-19.27,0-4.34,2.75-4.34,7.86-6.78,4.33-2.52,4.28-9.44,1.61-4.45,0,0-5.37,5.63-5.39,5.66C72,80,61.79,82.1,72.15,85.79a10.66,10.66,0,0,0,2.95.59c13.52.71,22.6-18.91,42.36-25a7.31,7.31,0,0,1,9.22,4.93c1.94,7.35,5.06,17.38,6.63,21.62.9-2.68,1.52-4.51,1.48-6.93,1.7,5.76,2.84,10.71,2.84,15.92.33,0-.33,4.64,0,4.7,1.55-3.71-.21-9.1,1.27-12.83,1.76-4.42-2.79-7.48-.28-11.67C139.63,75.43,140.29,75.05,141.56,76.81Z"/><path class="cls-6" d="M79.25,71.94a15.48,15.48,0,0,1-4,5.25,18,18,0,0,1-5.73,3.41,13.29,13.29,0,0,0-2.86,1.15,1.11,1.11,0,0,0-.32.37c0,.09,0,.15,0,.3a2.88,2.88,0,0,0,.94.88,13.78,13.78,0,0,0,2.82,1.33c1,.37,2,.66,3.07.94l-.13.71a17,17,0,0,1-6.4-2,3.65,3.65,0,0,1-1.38-1.36,1.58,1.58,0,0,1-.06-1.28A2.31,2.31,0,0,1,66,80.8a11.46,11.46,0,0,1,3.19-1.27,19.69,19.69,0,0,0,2.93-1.22,25.44,25.44,0,0,0,2.7-1.7A18.76,18.76,0,0,0,79.25,71.94Z"/><path class="cls-6" d="M91.67,79.26A31.28,31.28,0,0,1,83,85.12a21.72,21.72,0,0,1-5.11,1.54,14.34,14.34,0,0,1-5.38-.25l.23-1a17.44,17.44,0,0,0,5,.1,25.16,25.16,0,0,0,4.91-1.27,35.36,35.36,0,0,0,4.66-2.2,41.16,41.16,0,0,0,4.37-2.82Z"/><path class="cls-7" d="M90.8,79.78s-8.37,6.44-13.19,7.4"/></svg>