<svg id="Layer_1" data-name="Layer 1" xmlns="http://www.w3.org/2000/svg" xmlns:xlink="http://www.w3.org/1999/xlink" viewBox="0 0 205.95 205.73"><defs><style>.cls-1{fill:none;stroke-width:7px;}.cls-1,.cls-2,.cls-4{stroke:#1bc398;}.cls-1,.cls-2,.cls-4,.cls-6{stroke-miterlimit:10;}.cls-2,.cls-6,.cls-7{fill:#1bc398;}.cls-2,.cls-4{stroke-width:2px;}.cls-3{clip-path:url(#clip-path);}.cls-4,.cls-5{fill:#fff;}.cls-6{stroke:#fff;}</style><clipPath id="clip-path"><circle class="cls-1" cx="102.95" cy="102.73" r="99" transform="translate(-42.49 102.88) rotate(-45)"/></clipPath></defs><title>LyfSquad</title><path class="cls-2" d="M152.86,114.79c-.69-13.9-3.34-27.91-9.2-39.4C135,58.42,119.37,50,104.06,50s-30.95,8.45-39.6,25.42c-5.87,11.49-8.51,25.5-9.2,39.4s1.88,59.15-.78,66.91c0,0,36.7,17.72,49.58,17.72s49.58-17.72,49.58-17.72C151,173.94,153.55,128.69,152.86,114.79Z"/><g class="cls-3"><path class="cls-4" d="M160.81,176.43a26.2,26.2,0,0,0-8.57-4.47l-28.92-9h0c-2.07-.63-3.22-2.53-3.59-4.67-1-6-.92-21.93-.89-24.52a.36.36,0,0,0-.37-.36H93a.36.36,0,0,0-.37.36c0,2.57.13,18.17-.89,24.52a5.49,5.49,0,0,1-3.59,4.67h0l-29,9a25.08,25.08,0,0,0-7.48,3.68c-11.76,8.65-12.1,22.82-12.59,25.45a.36.36,0,0,0,.36.43H172a.36.36,0,0,0,.36-.43C171.91,198.55,171.74,185.13,160.81,176.43Z"/><path class="cls-4" d="M159.81,167.81a26.39,26.39,0,0,0-8.57-4.47l-28.92-9h0c-2.07-.62-3.22-2.53-3.59-4.66-1-6-.92-21.93-.89-24.52a.35.35,0,0,0-.37-.36H92a.35.35,0,0,0-.37.36c0,2.56.13,18.17-.89,24.52a5.46,5.46,0,0,1-3.59,4.66h0l-29,9.05A25.29,25.29,0,0,0,50.63,167C38.87,175.7,38.53,189.86,38,192.49a.36.36,0,0,0,.36.43H171a.36.36,0,0,0,.36-.43C170.91,189.93,170.74,176.51,159.81,167.81Z"/><path class="cls-2" d="M160.19,168.22a26.2,26.2,0,0,0-8.57-4.47l-12-3.76c-9.8,11.55-21.68,18.33-34.48,18.33S80.42,171.54,70.62,160l-12.13,3.78A25.2,25.2,0,0,0,51,167.45c-11.76,8.65-12.1,22.81-12.58,25.45a.36.36,0,0,0,.36.43l65.19,17,67.43-17a.37.37,0,0,0,.36-.43C171.3,190.34,171.12,176.92,160.19,168.22Z"/></g><circle class="cls-1" cx="102.95" cy="102.73" r="99" transform="translate(-42.49 102.88) rotate(-45)"/><path class="cls-5" d="M95.38,127.16a22.49,22.49,0,0,0,17.36-.26"/><path class="cls-6" d="M107.69,43.68V37.52l-1.3-.26c-.47,2.14-.94,4.28-1.46,6.6l-13.26,2c-6-7.43-1.23-14.43,4.91-16.51,7.21-2.44,12.94-1.63,16.25,3.48a12.26,12.26,0,0,1,1.93,7.88C114.15,44.34,111.83,47,107.69,43.68Z"/><path class="cls-4" d="M137.7,76.82s-17.29-19.15-34.45-19.15V59.4C85,59.4,66.59,78.54,66.59,78.54s3,28.75,4.17,38.52,18.79,25.88,33.94,25.88,32.2-17.83,33.42-27.6S137.7,76.82,137.7,76.82Z"/><path class="cls-7" d="M131.22,93.23c-1.74-.67-3.29-1.14-4.73-1.86-3.28-1.64-6.62-2.59-10.25-1.84-1.91.39-3.84.69-5.77.94a26.35,26.35,0,0,1-3,0l.85-1.64s.1-.08.14-.13c1.48-2,3.65-2.14,5.74-2.45,1.72-.26,3.45-.38,5.15-.71a8.55,8.55,0,0,1,6.53,1.5A19.88,19.88,0,0,1,131,92.54,5.56,5.56,0,0,1,131.22,93.23Z"/><path class="cls-7" d="M97,90.78c-2.4-.33-4.83-.49-7.19-1a16.21,16.21,0,0,0-11.67,1.71A22,22,0,0,1,73.68,93c2.26-3.61,4.8-6.78,9-7.48a10.8,10.8,0,0,1,2.89.09c1.84.2,3.68.42,5.51.73a28.07,28.07,0,0,0,2.91.72c1.31.07,1.74,1.27,2.56,2a4.15,4.15,0,0,1,.68,1.29Z"/><path class="cls-7" d="M97.74,90.81l.19-2.33c1.33,1.73,1.33,1.73.84,2.61l-.08-1Z"/><path class="cls-7" d="M106.87,88.57l.15,2.14c-1-.3-1-1.1-.86-1.84Z"/><path class="cls-7" d="M109.61,124a5.22,5.22,0,0,0-3.74.21,2.92,2.92,0,0,1-3.35,0,4.14,4.14,0,0,0-3.06-.33c-2.37.67-4.76,1.87-7.2,1.71a.71.71,0,0,0,.3.72c2.74,2.39,6.19,5,10.85,5a16.17,16.17,0,0,0,11.69-4.69,3,3,0,0,0,.78-1.32C113.45,125.4,112,124.52,109.61,124Z"/><path class="cls-5" d="M94.84,126.7a24,24,0,0,0,18.61-.29"/><path class="cls-6" d="M119.35,64.69s11.61,5.77,13.91,11.5c1.94,4.85,3,13.84,7.79,13.93s8.55-5.66,8.55-5.66S148,55.93,127.92,50.79"/><path class="cls-6" d="M121.18,44.87c7.47,2.44,7.34,3.75,8,7,1.08,5.61-.68,6.22-4.87,10.76-3.19,3.45-2.77,4.55-8.92,4.37-4.88-.14-4.52,1.24-8.33,3.68-1.68.88-2.38,2.44-7.13,0s-13.32-1.24-13.32-1.24c-12.83,2.61-13.78,14-18.44,18.66s-10.68-.2-10.68-.2C63.55,67.65,59.05,59.56,84,47.05a40.72,40.72,0,0,1,16.88-4.4C106,42.47,113,42.21,121.18,44.87Z"/></svg>