<svg id="lyf_squad" data-name="Lyf Squad" xmlns="http://www.w3.org/2000/svg" xmlns:xlink="http://www.w3.org/1999/xlink">
	<symbol id="brooke"  viewBox="0 0 205.73 205.73">
		<defs>
			<style>.cls-1{fill:none;stroke-width:7px;}.cls-1,.cls-3,.cls-4,.cls-6{stroke:#1bc398;}.cls-1,.cls-3,.cls-4,.cls-5,.cls-6{stroke-miterlimit:10;}.cls-2{clip-path:url(#clip-path);}.cls-3,.cls-5,.cls-7{fill:#1bc398;}.cls-3,.cls-4{stroke-width:2px;}.cls-4,.cls-6,.cls-8{fill:#fff;}.cls-5{stroke:#fff;}</style>
			<clipPath id="clip-path">
				<circle class="cls-1" cx="102.87" cy="102.74" r="99" transform="translate(-42.52 102.83) rotate(-45)"/>
			</clipPath>
		</defs>
		<title>Brooke</title>
		<g class="cls-2">
			<path class="cls-3" d="M58.64,97.37c.33,1,7.53,81.17,7.53,81.17l74.64.33,2.57-84.74Z"/>
			<path class="cls-4" d="M157.82,174.6a26.39,26.39,0,0,0-8.57-4.47l-28.92-9h0a5.54,5.54,0,0,1-3.59-4.67c-1-6-.92-21.93-.89-24.52a.36.36,0,0,0-.37-.36H90a.35.35,0,0,0-.37.36c0,2.56.13,18.17-.89,24.52a5.49,5.49,0,0,1-3.59,4.67h0l-29,9a25.29,25.29,0,0,0-7.48,3.67c-11.76,8.66-12.1,22.82-12.59,25.45a.36.36,0,0,0,.36.43H169a.36.36,0,0,0,.36-.43C168.92,196.72,168.75,183.3,157.82,174.6Z"/>
			<path class="cls-4" d="M157.82,174.6a26.39,26.39,0,0,0-8.57-4.47l-28.92-9h0a5.54,5.54,0,0,1-3.59-4.67c-1-6-.92-21.93-.89-24.52a.36.36,0,0,0-.37-.36H90a.35.35,0,0,0-.37.36c0,2.56.13,18.17-.89,24.52a5.49,5.49,0,0,1-3.59,4.67h0l-29,9a25.29,25.29,0,0,0-7.48,3.67c-11.76,8.66-12.1,22.82-12.59,25.45a.36.36,0,0,0,.36.43H169a.36.36,0,0,0,.36-.43C168.92,196.72,168.75,183.3,157.82,174.6Z"/>
			<path class="cls-4" d="M157.82,174.6a26.39,26.39,0,0,0-8.57-4.47l-3.2-1-25.72-8a5.54,5.54,0,0,1-3.59-4.67c-1-6-.92-21.93-.89-24.52a.36.36,0,0,0-.37-.36H90a.35.35,0,0,0-.37.36c0,2.56.13,18.17-.89,24.52a5.49,5.49,0,0,1-3.59,4.67l-25.72,8-3.28,1a25.29,25.29,0,0,0-7.48,3.67c-11.76,8.66-12.1,22.82-12.59,25.45a.36.36,0,0,0,.36.43H169a.36.36,0,0,0,.36-.43C168.92,196.72,168.75,183.3,157.82,174.6Z"/>
			<path class="cls-4" d="M136.22,73.77S119.14,52,101.14,52v2c-18,0-37.07,21.81-37.07,21.81s3.05,32.77,4.29,43.91,19.1,29.5,34.47,29.5,32.63-20.32,33.87-31.46S136.22,73.77,136.22,73.77Z"/>
			<path class="cls-3" d="M80.92,66.57c23.42-.67,33.38-3.41,40.46-.06,5.87,2.78,9.42,7.12,12.19,14.08,1.7,4.25,2.05,15.63,2.66,29.78.26,5.91-3.65,19.88-6.54,26.08-3,6.5-.38,12.2.56,17.85.65,3.93,5.81,5.36,7.18,8.65,3,7.11-.4,15.21-1.3,17.88,0,0,12.41-7.64,12.41-82.23,0-25.26-8.09-43.07-34.89-47.17C93,48.28,82.87,53.87,82.87,53.87S67.31,52.15,58.75,81.42c-7.17,24.5-1.49,82.4,10.57,95.49,0,0-3.38-7.52-.26-13.63,1.29-2.53,9.49-2,10.33-5.07,1.76-6.45,1.86-13.74-2.46-20.43-4.43-6.87-7.86-15.68-8-21.28-.14-4.54-.31-8.65-.52-12C67.69,93.69,69.2,80.14,80.92,66.57Z"/>
			<path class="cls-3" d="M158.2,174.39a26.2,26.2,0,0,0-8.57-4.47l-12-3.76c-9.81,11.56-21.68,18.34-34.48,18.34s-24.68-6.78-34.48-18.34L56.5,169.94A25.32,25.32,0,0,0,49,173.62c-11.76,8.65-12.1,22.82-12.58,25.45a.36.36,0,0,0,.36.43H169.42a.36.36,0,0,0,.36-.43C169.31,196.51,169.13,183.09,158.2,174.39Z"/>
		</g>
		<circle class="cls-1" cx="102.87" cy="102.74" r="99" transform="translate(-42.52 102.83) rotate(-45)"/>
		<g id="_3H3JZn" data-name="3H3JZn">
			<path class="cls-5" d="M104.05,45.85,89.9,48c-6.42-7.94-1.32-15.41,5.24-17.63,7.69-2.6,13.81-1.74,17.34,3.72a13,13,0,0,1,2.06,8.41c-.65,3.88-3.13,6.66-7.54,3.17"/>
		</g>
		<path class="cls-6" d="M86.78,52.15S83.29,46.8,84,45.21s1.64-3.54,4-2.31,3.49,1.37,4.28.29.79-2.09,3-2.38,1.45.86,3.09,1.08a3.61,3.61,0,0,0,3.56-1.13c1.25-1.11,3.49-2.84,4.93-.68s1.78,3,3.1,2.68,3.46-2.79,5.12-1,2.51,3,1.72,4.21-4.54,3.62-4.54,3.62Z"/>
		<path class="cls-5" d="M70.89,58S78.46,66.64,82.5,68.3c4.81,2,11.06,1.91,19.48,1.9,11,0,14.38-.41,18.8-2.64S128,61.09,130.2,56c0,0-3.7-8.39-29.3-8.36C75.79,47.7,70.89,58,70.89,58Z"/>
		<path class="cls-7" d="M87.88,132.38a4.65,4.65,0,0,0,1.36,1.38C89.49,134,91,135,91,135s4.6,3,8,3.09a34.79,34.79,0,0,0,8.28-.73,39.67,39.67,0,0,0,6.4-3,7,7,0,0,0,1.4-1.52s-5.65-1.52-6.67-1.77-3-.89-4-.2-.48,1.23-2.1,1a9.57,9.57,0,0,1-3.45-.86,4.38,4.38,0,0,0-2.94-.33C95.19,131,90.94,133.14,87.88,132.38Z"/>
		<path class="cls-7" d="M88.36,133c8.53,5.13,17.14,5.72,26,.74a19.64,19.64,0,0,1-13.07,4.71A19.08,19.08,0,0,1,88.36,133Z"/>
		<path class="cls-7" d="M87.88,132.38c2.86.5,5.69-1.18,8.39-2.21a3.7,3.7,0,0,1,3.54.54,3.28,3.28,0,0,0,3.78,0c1.21-.8,1.8-.77,3.57-.58a3.89,3.89,0,0,1,1.38.43c3.59,1.84,4.19,1.51,6.53,2.32a26,26,0,0,1-4.66-.81,22,22,0,0,1-3-.84,3.38,3.38,0,0,0-3.09.35c-.13.08-.27.13-.39.22a3.41,3.41,0,0,1-4.33,0,3.92,3.92,0,0,0-3.82-.51c-2.23.75-3.46,1-5.79,1.63a5.52,5.52,0,0,0-1.22.39C88.75,133.15,87.91,132.48,87.88,132.38Z"/>
		<path class="cls-8" d="M92.13,133.25s9.21,3.89,18.44.13C110.57,133.38,98.35,134.67,92.13,133.25Z"/>
		<path class="cls-7" d="M134.73,92.19c-1.75-.33-3.34-.57-4.9-.93-7.61-1.75-15.09-1.84-22.37,1.47a4.81,4.81,0,0,1-1.91.2c-2.22,0-4.43,0-6.64-.06a13.82,13.82,0,0,1-3-.42c-2.14-.58-4.21-1.43-6.37-1.88-6.92-1.46-13.6.37-20.62,1.71a25.15,25.15,0,0,0,.6,2.84,24,24,0,0,1,1.11,2.29c.4,2,.48,4,.93,6,1.15,5,3.82,8.87,9.13,10.16s10.13.06,13.92-4.13a22.51,22.51,0,0,0,4.91-10,4.5,4.5,0,0,0-.07-2c-.28-1.28.2-2.2,1.49-2.39a7.92,7.92,0,0,1,2.12,0,1.72,1.72,0,0,1,1.52,2.46,3,3,0,0,0-.18,1.33,22.45,22.45,0,0,0,5.38,10.94c3.74,3.92,8.35,5,13.52,3.8s7.84-4.71,9-9.58c.53-2.19.68-4.48,1-6.72.09-.55.11-1.34.47-1.58C135.21,94.78,134.73,93.47,134.73,92.19ZM85.28,112.85a10.82,10.82,0,0,1-11.66-7.31,16.9,16.9,0,0,1-1-8.9,5,5,0,0,1,3.85-4.43c2.14-.52,4.34-.81,6.52-1.2a27.59,27.59,0,0,1,10.33,1.75c3.15,1.29,4.2,3,4.14,6.35C97.28,106.17,92,112.16,85.28,112.85Zm44.14-4.94c-3.11,5.29-10.88,6.76-16.38,3-4.47-3-6.49-7.49-6.43-12.86a5.28,5.28,0,0,1,3.21-5c3.18-1.55,6.59-1.93,11-2.07,1.55.21,4,.44,6.39.93,2.81.57,4.26,2.51,4.51,5.3A17.45,17.45,0,0,1,129.42,107.91Z"/>
	</symbol>
	<symbol id="claudia" viewBox="0 0 205.73 205.73">
		<defs>
			<style>.cls-1{fill:none;stroke-width:7px;}.cls-1,.cls-3,.cls-4,.cls-5{stroke:#1bc398;stroke-miterlimit:10;}.cls-2{clip-path:url(#clip-path);}.cls-3,.cls-7{fill:#fff;}.cls-3,.cls-4{stroke-width:2px;}.cls-4,.cls-5,.cls-6{fill:#1bc398;}.cls-5{fill-rule:evenodd;}</style>
			<clipPath id="clip-path">
				<circle class="cls-1" cx="102.79" cy="102.74" r="99"/>
			</clipPath>
		</defs>
		<title>Claudia</title>
		<g class="cls-2">
			<path class="cls-3" d="M158.83,175.55a26.2,26.2,0,0,0-8.57-4.47l-28.91-9h0a5.52,5.52,0,0,1-3.6-4.67c-1-6-.92-21.93-.89-24.52a.36.36,0,0,0-.36-.36H91a.35.35,0,0,0-.36.36c0,2.57.12,18.17-.9,24.52a5.47,5.47,0,0,1-3.59,4.67h0l-29,9a25.08,25.08,0,0,0-7.48,3.68c-11.76,8.65-12.1,22.81-12.58,25.45a.36.36,0,0,0,.36.43H170.05a.37.37,0,0,0,.36-.43C169.94,197.67,169.76,184.25,158.83,175.55Z"/>
			<path class="cls-3" d="M158.83,175.55a26.2,26.2,0,0,0-8.57-4.47l-28.91-9h0a5.52,5.52,0,0,1-3.6-4.67c-1-6-.92-21.93-.89-24.52a.36.36,0,0,0-.36-.36H91a.35.35,0,0,0-.36.36c0,2.57.12,18.17-.9,24.52a5.47,5.47,0,0,1-3.59,4.67h0l-29,9a25.08,25.08,0,0,0-7.48,3.68c-11.76,8.65-12.1,22.81-12.58,25.45a.36.36,0,0,0,.36.43H170.05a.37.37,0,0,0,.36-.43C169.94,197.67,169.76,184.25,158.83,175.55Z"/>
			<path class="cls-4" d="M81.16,137c-5.22,5.32-10.63-8.55-13.62-10.52s-6.41-2.4-9.16-4.46c-3.48-2.62-2.22-5.05-2.46-8.89-.29-4.69-5.54-6.56-7.18-11-1.76-4.74,2-9.43.08-14.64-.85-2.24-2.94-4.34-3-6.8-.17-3.63,3.18-5.17,4.16-8.44,1.42-4.75-3.31-9.65-.11-14,2.08-2.87,4.76-1.88,7.71-2.8,3.74-1.17,4.7-3.28,6-6.34.92-2.18,2.1-4.88,4.36-5.82,3.45-1.44,7.22.38,10.1-2.89,2.56-2.9,2.73-5.49,7.25-6.11,2.57-.34,5.19.4,7.64-.39,3.33-1,5.06-3.28,8.84-2.57,3.14.59,4.79,1.8,8.15,1.16,2.82-.54,7.09-1.75,9.85-.54,3.42,1.5,2.8,6.18,5.59,8.18,1.11.79,2.67.8,3.85,1.56,1.48,1,1.49,2,2.63,3.06,2.94,2.78,6.24.48,9.71,1.14,5.46,1,2.37,5,3.46,8.64S150.56,57,151.59,61c.41,1.57-.37,3.4,0,5,.6,2.29,2.13,2.52,3.8,4,3.7,3.38,2.64,7.42,1.12,11.61-1.73,4.75,1.83,7.71,1.31,12.18s-6.1,5.93-7,10.56c-.73,3.56,2.17,7.23-1.54,9.51-2.28,1.4-3.16.29-4,3.2-.51,1.71,0,3.44-.27,5.16-.73,5.06-6.34,5.59-9,9.4-2.44,3.44-3.14,7.54-8,8.41-5.39,1-9.67-4.16-15.18-2.17-2.42.87-4,2.5-6.76,2.64-4,.21-6.07-2.83-9.47-4.32-2.56-1.13-7.09-2.28-9.92-2-3.12.25-4.5,3.36-5.47,2.87"/>
			<path class="cls-3" d="M143.16,93.61c-1.4-1.12-2.5,1.52-2.5,1.52s.66-14.25-3.71-24c-4.13-9.22-9.79-13-18.53-15.83a48.21,48.21,0,0,0-14.74-2.56A48.16,48.16,0,0,0,89,55.3c-8.75,2.85-14.4,6.61-18.53,15.83-4.38,9.75-3.71,24-3.71,24s-1.11-2.64-2.5-1.52c-3.26,2.62-.76,9.49.38,14.75,1.56,7.2,5.31,6.41,5.31,6.41s1.3,3.82,2.77,7.08A54,54,0,0,0,85,139.34a37.67,37.67,0,0,0,16.49,9.34,11.31,11.31,0,0,0,4.22,0,38.89,38.89,0,0,0,16.6-9.37,54,54,0,0,0,12.35-17.49c1.48-3.26,2.78-7.08,2.78-7.08s3.75.79,5.31-6.41c1.14-5.26,3.64-12.13.38-14.75"/>
			<path class="cls-4" d="M114.36,53c-2.19,1.06-5.23,4-7.46,5.41s-3.84,1.21-6.32,1.44c-3.4.31-7,1-10.43,1.46-4.19.63-7.83,2.3-8.42,6.95-.28,2.2.3,4-1.29,5.81s-4.13,2.07-6,3.41c-4,2.87-1.91,6-2.31,10.15-.43,4.53-2,9.75-4.89,11.71-1.56,1-3-1-5.27-3.69-2.41-2.92-2.15-8-2.6-11.49C59.12,82,58,80,58.24,77.71c.33-3.43,3-4.46,4.48-7.14,1.6-2.93,1.56-6,3.6-8.89a22.79,22.79,0,0,1,7.77-7c3.47-2,4.08-4.19,6.79-6.9,3.64-3.65,10.84-4.22,15.71-4.48a17.83,17.83,0,0,0,7-1.56c2.26-.9,6.07-1.9,8.34-.45,4,2.56,3.53,10.07,2.42,11.71"/>
			<path class="cls-4" d="M113.35,47.36c.32,3.24-3.4,4.47-1.6,7.36,1.5,2.4,7.31,4,8.78,6.33,1.68,2.67.2,5.87,3.09,8.08,2.31,1.76,5.53,2.08,7.57,4.19,2.63,2.72.85,5.5,2.22,8.27s6,2,6.93,5.8c.72,2.91-2.18,9.06-.2,11.82,1,1.32,2.34-1.23,3.36-2,2.83-2.16,1-8.51,0-11-2-5.17-1.17-10.3-2.9-15.39s-6.13-8.35-8.7-12.9c-3.79-6.7-10.67-14-18.57-10.59"/>
			<path class="cls-5" d="M123.62,106.69v-1.06a62.58,62.58,0,0,0,11.36-1c1.21-.22,1.76-1.13,2.23-2.28,1-2.42,2-5.67,1.5-8.53a2.66,2.66,0,0,0-2.24-2.29,60.5,60.5,0,0,0-12.85-.61v-1a69.53,69.53,0,0,1,10,.17c1.29.13,4.57.38,5.77.61s1.84,1.35,1.84,2.8c0,.84-1.3,1.4-1.35,2.25a24,24,0,0,1-1.72,7.23c-.51,1.32-1.1,2.36-2.39,2.6A62.67,62.67,0,0,1,123.62,106.69ZM84.26,90.93a88.07,88.07,0,0,1,13,1.59c1.21.24,2.27,1,2.24,2.27a23.32,23.32,0,0,1-1.63,7.57c-.43,1.17-1,2.08-2.24,2.28a71.56,71.56,0,0,1-11.35,1v1.06a72.69,72.69,0,0,0,12.17-1.14c1.3-.22,1.93-1.26,2.39-2.6a32.11,32.11,0,0,0,1.51-5.89c.93-2.06,6-3.17,7.21.41,0,.14.09.26.13.36a35.24,35.24,0,0,0,1.38,5.12c.46,1.34,1.1,2.38,2.4,2.6a72.59,72.59,0,0,0,12.17,1.14v-1.06a71.59,71.59,0,0,1-11.36-1c-1.21-.2-1.8-1.11-2.23-2.28a22.81,22.81,0,0,1-1.63-7.57c0-1.25,1-2,2.23-2.27a88.22,88.22,0,0,1,13-1.59v-1a91.84,91.84,0,0,0-11.22,1.28h-.09a77.53,77.53,0,0,1-8.61,1.27,30.7,30.7,0,0,1-5.3-.7l-.23,0a88.42,88.42,0,0,0-13.91-1.81Zm-12.86.61a60.6,60.6,0,0,1,12.86-.61v-1a69.53,69.53,0,0,0-10,.17c-1.29.13-4.58.38-5.78.61s-1.83,1.35-1.84,2.8c0,.84,1.31,1.4,1.35,2.25A24.56,24.56,0,0,0,69.68,103c.51,1.32,1.1,2.36,2.4,2.6a62.59,62.59,0,0,0,12.18,1.14v-1.06a62.69,62.69,0,0,1-11.37-1c-1.21-.22-1.75-1.13-2.23-2.28-1-2.42-2-5.67-1.49-8.53A2.65,2.65,0,0,1,71.4,91.54Z"/>
			<path class="cls-4" d="M60.61,169.93l-3.28,1a25.14,25.14,0,0,0-7.47,3.68c-11.77,8.65-12.1,22.82-12.59,25.45a.36.36,0,0,0,.36.43H170.25a.36.36,0,0,0,.36-.43c-.47-2.56-.64-16-11.57-24.68a26.2,26.2,0,0,0-8.57-4.47l-3.2-1a132.76,132.76,0,0,1-86.66,0Z"/>
		</g>
		<circle class="cls-1" cx="102.79" cy="102.74" r="99"/>
		<path class="cls-6" d="M114.42,130.36h0c-2-.5-3.49-.92-5.35-1.55a8.11,8.11,0,0,0-1.91-.4,3.12,3.12,0,0,0-.86,0,5.33,5.33,0,0,0-1.8.34l-.23.07a5.14,5.14,0,0,1-2.63.08,6.22,6.22,0,0,1-.87-.25,5,5,0,0,0-3.07-.07c-1.19.36-2.38.7-3.58,1a27.77,27.77,0,0,1-3,.58,20,20,0,0,0,11.39,3.74,22.38,22.38,0,0,0,11.81-3.52Z"/>
		<path class="cls-7" d="M109.74,130.65l.45-.13s-4.21.19-5.29.27-2,.17-2.49.22-1.56-.17-2.21-.19L95,130.56l.13,0A24.66,24.66,0,0,0,109.74,130.65Z"/>
	</symbol>
	<symbol id="eddie"  viewBox="0 0 205.18 205.01">
		<defs>
			<style>.cls-1,.cls-8{fill:none;}.cls-1,.cls-4,.cls-5,.cls-8{stroke:#1bc398;}.cls-1,.cls-2,.cls-4,.cls-5,.cls-6,.cls-8{stroke-miterlimit:10;}.cls-1{stroke-width:7px;}.cls-2,.cls-5,.cls-6,.cls-7,.cls-9{fill:#1bc398;}.cls-2,.cls-6,.cls-7{stroke:#fff;}.cls-3{clip-path:url(#clip-path);}.cls-4{fill:#fff;}.cls-4,.cls-5{stroke-width:2px;}.cls-6,.cls-7{stroke-width:1.5px;}.cls-7{stroke-linejoin:round;}.cls-8{stroke-width:6px;}
			</style>
			<clipPath id="clip-path">
				<circle class="cls-1" cx="102.62" cy="102.44" r="99"/>
			</clipPath>
		</defs>
		<title>Eddie</title>
		<path class="cls-2" d="M74.67,154.85a36.6,36.6,0,0,1,7-.93s1.35,10.07-8,11.36"/>
		<path class="cls-2" d="M126.59,161.83s-10.17-1.92-10-9.09l7.83.74"/>
		<g class="cls-3">
			<path class="cls-4" d="M165.22,175.67a32.2,32.2,0,0,0-10-4.63l-3.8-1,.07,0-29.95-9.74a5.9,5.9,0,0,1-4.19-4.83c-1.21-6.24-1.07-21.27-1-23.95a.38.38,0,0,0-.42-.37H83.33a.4.4,0,0,0-.43.37c0,2.65.15,17.38-1,23.95a5.81,5.81,0,0,1-4.19,4.83L47.72,170l.08,0-3.9,1a31.05,31.05,0,0,0-8.71,3.8c-13.7,9-14.09,23.63-14.66,26.36a.39.39,0,0,0,.42.44H178.29a.4.4,0,0,0,.42-.44C178.16,198.58,178,184.68,165.22,175.67Z"/>
			<path class="cls-5" d="M165.22,175.67a32.2,32.2,0,0,0-10-4.63l-3.8-1,.07,0-24.92-8.53c.11,3.4-.21,10.3-3,13.26-1.69,1.79-7.16,5.73-9,7.69-3,3.18-5,3.8-6.82,6.31-2.78,3.84-6.42,11-8.68,9.36-1.08-.77-9.75-9.9-10.73-12.34-1.12-2.81-6-7.11-7.07-8.44-6.76-8.22-2.72-10.84-7.77-15.69L47.72,170l.08,0-3.9,1a31.05,31.05,0,0,0-8.71,3.8c-13.7,9-14.09,23.63-14.66,26.36a.39.39,0,0,0,.42.44H178.29a.4.4,0,0,0,.42-.44C178.16,198.58,178,184.68,165.22,175.67Z"/>
		</g>
		<circle class="cls-1" cx="102.62" cy="102.44" r="99"/>
		<path class="cls-4" d="M71.19,98.53c2.2,6.47.94,16.59-2.8,18.54s-8.56-5-10.75-11.47-1-13.3,2.79-15.25S69,92.06,71.19,98.53Z"/>
		<path class="cls-4" d="M130.09,98.53c-2.2,6.47-1,16.59,2.8,18.54s8.55-5,10.75-11.47,1-13.3-2.79-15.25S132.29,92.06,130.09,98.53Z"/>
		<path class="cls-4" d="M100.29,41.14C63.18,39.8,62.63,78.66,63.19,91.46a168.78,168.78,0,0,0,4.24,29.61c1,3.87,2.91,10.34,5.61,13.15,7.24,7.55,16.23,14.24,21.79,16.56a17.23,17.23,0,0,0,5.46.59,17.15,17.15,0,0,0,5.46-.59c5.56-2.32,14.56-9,21.8-16.56,2.69-2.81,4.57-9.28,5.61-13.15a169.72,169.72,0,0,0,4.24-29.61C138,78.66,137.41,39.8,100.29,41.14Z"/>
		<path class="cls-5" d="M142.4,84.08c-1.26,2.7-1.58,2.5-2.66,4-1.26,6.43-.89,10.5-4.16,16.54.47-5-1-7.67-1.39-12.64-.49-5.94.26-12-1.63-17.83A35.06,35.06,0,0,0,128,65.49c-1.15-1.71-4.5-2.39-7.49-1.8s-6.17,1.51-9.43,1.2-6.36-.66-9.5-1.1c-3.66-.52-6.89.25-10.21,1.07a6,6,0,0,1-2,.17c-3.56-.28-7.09-.86-10.71-.82-4.79.07-7.91,2-7.16,6.75l.5,3.12-3-2.15a29.23,29.23,0,0,0-1.87,13.12l-3.68-2c.19,7.21,1.28,15.21,1.23,22.21-2.35-2.37-2.17-6.33-3-9.11-.77-2.59-.89-5.27-2.14-7.8a7.63,7.63,0,0,0-3.17-3.58c-.31-3.43-.77-6.86-.88-10.29-.14-3.95.91-7.81,2-11.65a4.61,4.61,0,0,0,.12-1.51,2.8,2.8,0,0,0-.41,0c-.89.13-1.82,1.15-2.44.62s.46-1.42.85-2.11a4.6,4.6,0,0,1,2-2.27c-2.5.42-3.63,1.69-5.54,2.59,3.57-6,11.29-8.77,15.7-14-2.4-.21-4,1.06-6.44,2a16,16,0,0,1,7.94-7.46,42.17,42.17,0,0,1,5.9-2.11c1.27-.32.87-.63.48-1.18a7.46,7.46,0,0,1-1.53-4.19,21.56,21.56,0,0,0,12,3.16c1.55,0,3-.51,4.58-.39.94.07,1.47-.32.54-1a4.38,4.38,0,0,1-1.82-5.06,9.27,9.27,0,0,0,6,3.67c0-1-1.43-1.4-1.14-2.39,8.6,4,18.31,6,27.27,9.35a14.4,14.4,0,0,0,7.65,1.1,2.65,2.65,0,0,0,1.88-1c.21-.3.33-.71.84-.59s.41.54.56.85c.62,1.24.25,2.3-.79,3.37,1.92.43,3.78-.13,5.67.2l-3.11,1.14c5.44,2.09,8.1,5.42,8.52,10.13s1.18,9.69,1.34,14.57a33.66,33.66,0,0,1,.3,4.63c-1.49-.42-.42-1.48-1.12-2.28-.69,1.7-1.51,3.24-.73,4.95C143.63,79.77,143.07,81.92,142.4,84.08Z"/>
		<path class="cls-6" d="M126.92,179.32s-5.42,2.14-10.19,15.21c-1,2.58-1.71,4.76-2.34,6.59"/>
		<path class="cls-6" d="M116.43,179.94a34.43,34.43,0,0,0-4.72,3.64c-1.79,1.6-6.49,5.75-9.37,9.88a76.89,76.89,0,0,0-4.7,8.21"/>
		<path class="cls-6" d="M71.85,178.84s3.19,2.09,3.68,3.62,3.13,4.62,4.44,7.43c.81,1.73,2.88,6.32,4.36,10.28"/>
		<path class="cls-6" d="M80.54,178.84s4.61.91,5.43,2.36,12.58,12.26,13.73,16.58"/>
		<path class="cls-6" d="M86.3,186.2s-4-.46-2.79,3.28c1.17,3.57,5.44,1.19,5-1.13A2.3,2.3,0,0,0,86.3,186.2Z"/>
		<path class="cls-7" d="M125.09,154.75a21.87,21.87,0,0,1,.76,10.29c-1,5.5-2.3,10.08-4.27,10.54a7.47,7.47,0,0,0-5.15,4.36s3.67-3.75,10.49-.62,6.52,15.87,8.83,12c1.13-1.9,6.43-13.35,3.59-20.7-2.52-6.53-4.37-9.37-7.25-11.71s-5.25-4.64-7.63-5.17Z"/>
		<path class="cls-7" d="M74.71,154s-.72,14.29,11.2,26.75a25,25,0,0,0-17.12-1.23c-9.05,2.83-6.83,9.25-8.72,9.32s-.79-7.94-.57-12.68c.24-5.26,1.51-8.91,3.21-11.13C64.86,162.28,70.43,154.87,74.71,154Z"/>
		<circle class="cls-8" cx="102.62" cy="102.44" r="99"/>
		<path class="cls-9" d="M104.52,135.55s-7.24.44-9.61,0C94.91,135.55,100.85,133.41,104.52,135.55Z"/>
		<path class="cls-9" d="M88.74,130.12a13.76,13.76,0,0,1,3.93,1.14,17.31,17.31,0,0,0,8.88,1.2,13.38,13.38,0,0,0,3.71-1,22.51,22.51,0,0,1,4.9-1.58,1.26,1.26,0,0,1,.48,0,25.3,25.3,0,0,0-5.25,2.32A16.4,16.4,0,0,1,93,132.07C91.58,131.38,90.09,130.73,88.74,130.12Z"/>
		<path class="cls-9" d="M105.6,129.2c-.79.17-1.69.32-2.5.53a14.79,14.79,0,0,1-6.88.14c-.78-.16-1.59-.3-2.39-.45l.07-.17a18,18,0,0,1,2.4.13,14,14,0,0,0,6.21,0A6.25,6.25,0,0,1,105.6,129.2Z"/>
		<path class="cls-9" d="M128.25,87.94c-.07-.18-.14-.37-.22-.56a9.66,9.66,0,0,0-5.78-5.53,10.31,10.31,0,0,0-2.83-.58,57,57,0,0,0-10,.89,10.5,10.5,0,0,0-1.52.44l.38-.54c-.78,0-1.2.52-1.7,1l.14-.9-.1-.06a3.7,3.7,0,0,0-.38.42,4.13,4.13,0,0,0,0,4.3,1.53,1.53,0,0,0,1.58.75,21.76,21.76,0,0,0,2.42-.38c3.08-.73,5.73-1.56,8.9-2.39.65-.18,3.39-1.21,6.5,1.63,0,0,1.56,1.47,2.2,2a4.7,4.7,0,0,0,.74.61l.06-.07C128.51,88.68,128.42,88.35,128.25,87.94Z"/>
		<path class="cls-9" d="M71.18,87.94c.07-.18.14-.37.22-.56a9.66,9.66,0,0,1,5.78-5.53A10.31,10.31,0,0,1,80,81.27a57,57,0,0,1,10,.89,10.5,10.5,0,0,1,1.52.44l-.38-.54c.78,0,1.2.52,1.7,1l-.14-.9.1-.06a5,5,0,0,1,.38.42,4.11,4.11,0,0,1,0,4.3,1.52,1.52,0,0,1-1.57.75,21.76,21.76,0,0,1-2.42-.38c-3.09-.73-5.73-1.56-8.9-2.39-.66-.18-3.39-1.21-6.5,1.63,0,0-1.56,1.47-2.2,2a5.2,5.2,0,0,1-.74.61L70.78,89C70.92,88.68,71,88.35,71.18,87.94Z"/>
	</symbol>
	<symbol id="fahad" viewBox="0 0 205.13 205.07">
		<defs>
			<style>.cls-1{fill:none;stroke-width:7px;}.cls-1,.cls-3,.cls-4{stroke:#1bc398;}.cls-1,.cls-3,.cls-4,.cls-6{stroke-miterlimit:10;}.cls-2{clip-path:url(#clip-path);}.cls-3{fill:#fff;}.cls-3,.cls-4{stroke-width:2px;}.cls-4,.cls-5,.cls-6,.cls-7,.cls-8{fill:#1bc398;}.cls-6{stroke:#fff;stroke-width:0.5px;}.cls-7{fill-rule:evenodd;}.cls-8{opacity:0.3;}
			</style>
			<clipPath id="clip-path">
				<circle class="cls-1" cx="102.59" cy="102.46" r="99" transform="matrix(0.16, -0.99, 0.99, 0.16, -14.98, 187.31)"/>
			</clipPath>
		</defs>
		<title>Fahad</title>
		<g class="cls-2">
			<path class="cls-3" d="M169.79,174.49a32,32,0,0,0-10-4.63l-3.81-1,.08,0-30-9.73a5.87,5.87,0,0,1-4.19-4.83c-1.22-6.25-1.07-21.28-1-24a.4.4,0,0,0-.43-.37H87.89a.38.38,0,0,0-.42.37c0,2.66.15,17.38-1,24a5.84,5.84,0,0,1-4.19,4.83l-29.95,9.73.07,0-3.89,1a31,31,0,0,0-8.72,3.81c-13.69,9-14.09,23.62-14.66,26.35a.4.4,0,0,0,.42.44H182.85a.39.39,0,0,0,.42-.44C182.72,197.39,182.52,183.49,169.79,174.49Z"/>
			<path class="cls-4" d="M169.79,174.49a32,32,0,0,0-10-4.63l-3.81-1,.08,0-25.77-8.37a74.1,74.1,0,0,1-52.26,0l-25.76,8.37.07,0-3.89,1a31,31,0,0,0-8.72,3.81c-13.69,9-14.09,23.62-14.66,26.35a.4.4,0,0,0,.42.44H182.85a.39.39,0,0,0,.42-.44C182.72,197.39,182.52,183.49,169.79,174.49Z"/>
			<path class="cls-5" d="M141,107a2.17,2.17,0,0,0,0-.26l-.18.75C140.91,107.32,141,107.16,141,107Z"/>
			<path class="cls-3" d="M146,81.19a122,122,0,0,0,.93-12.75c-2.53-23.18-20.29-36.85-41.06-37.69v0l-.28,0-.27,0v0c-20.78.84-38.54,14.51-41.07,37.69-.16,1.46.4,7.64,1.14,14.8-1.88,1-3.64,3.31-3.55,8.87,0,.08,0,.15,0,.22.1,1.11,1,10.41,4,12.71a2.12,2.12,0,0,0,2,.29c-1,.33-.35,11.14-.36,12.36-.07,6.92,1.3,14.31,6.29,19.68,6.47,7,18.35,13,28.22,14.27,7.36,1,14.54-1.78,20.92-4.87,7.08-3.44,13.77-8.82,17.26-15.62s2.65-13.84,2.11-21.14c-.07-1-.6-7.64,1.53-7.78l.86,0c4.52.64,5.8-11.67,5.8-11.67C150.53,84,148.15,81.84,146,81.19Z"/>
			<path class="cls-6" d="M145.42,79.12c-1.28-1.46-6.37-2.2-15.12-2.2-2.44,0-4.4.06-4.94.09-1,0-1.91.08-2.86.16a53.05,53.05,0,0,0-10,1.47A32,32,0,0,1,106.15,80h-.3c-1.42.1-5.18-.87-6.59-1.3a52.93,52.93,0,0,0-10-1.47c-1-.08-1.9-.13-2.86-.16-.54,0-2.49-.09-4.94-.09-8.75,0-13.83.74-15.12,2.2a1.47,1.47,0,0,0-.38,1c0,1.18.09,2.4.16,3.58v.19a2.4,2.4,0,0,0,.38,1.21l.06.11a12.61,12.61,0,0,0,.89,1.24,4.09,4.09,0,0,1,.81,1.38l.94,2.68a30.32,30.32,0,0,0,1.53,3.67,5.53,5.53,0,0,0,2.61,2.56,11,11,0,0,0,2.27.76,42.39,42.39,0,0,0,8.56.88A64.22,64.22,0,0,0,91,98c2.68-.29,6-.65,8-3.44a20.5,20.5,0,0,0,2.64-5.43c.22-.63.42-1.27.62-1.9l.29-.9A1.83,1.83,0,0,1,103.85,85a6.48,6.48,0,0,1,1.68-.23,2.56,2.56,0,0,1,.37,0,5.94,5.94,0,0,1,2,.21,1.83,1.83,0,0,1,1.26,1.33l.28.87c.2.65.4,1.3.62,1.93a20.81,20.81,0,0,0,2.64,5.43c2,2.79,5.35,3.15,8,3.44a64.37,64.37,0,0,0,6.86.42,42.32,42.32,0,0,0,8.56-.88,10.63,10.63,0,0,0,2.27-.76A5.53,5.53,0,0,0,141,94.17a28.79,28.79,0,0,0,1.53-3.67l.51-1.44.44-1.24a4.23,4.23,0,0,1,.8-1.38,12.51,12.51,0,0,0,1-1.35,2.37,2.37,0,0,0,.37-1.21v-.14c.07-1.2.14-2.44.16-3.63A1.42,1.42,0,0,0,145.42,79.12Zm-24.29,17c-1.07-.14-2.13-.34-3.13-.54a5.24,5.24,0,0,1-3.63-2.26A18,18,0,0,1,112,86.85a14.58,14.58,0,0,1-.25-2.92,4.18,4.18,0,0,1,.22-1.4,2.41,2.41,0,0,1,1.35-1.38,29.54,29.54,0,0,1,8.62-1.79c2.42-.23,5-.34,7.56-.34,2.27,0,4.61.09,6.93.26a12.16,12.16,0,0,1,4.34,1.08,2.15,2.15,0,0,1,.82,1.77,26.88,26.88,0,0,1-.83,6.87,15.86,15.86,0,0,1-2,5,4.61,4.61,0,0,1-2.36,1.52,15.3,15.3,0,0,1-1.58.41,32,32,0,0,1-7,.72A49.46,49.46,0,0,1,121.13,96.12ZM73,94a15.84,15.84,0,0,1-2-5,27.12,27.12,0,0,1-.83-6.87A2.15,2.15,0,0,1,71,80.36a12.16,12.16,0,0,1,4.33-1.08C77.67,79.11,80,79,82.28,79c2.59,0,5.13.11,7.56.34a29.6,29.6,0,0,1,8.62,1.79,2.41,2.41,0,0,1,1.35,1.38,4.76,4.76,0,0,1,.22,1.4,14.48,14.48,0,0,1-.26,2.92,17.82,17.82,0,0,1-2.39,6.47,5.22,5.22,0,0,1-3.63,2.26c-1,.2-2,.4-3.13.54a49.46,49.46,0,0,1-6.69.49,32,32,0,0,1-7-.72,16,16,0,0,1-1.58-.41A4.65,4.65,0,0,1,73,94Z"/>
			<path class="cls-5" d="M104.71,109.32a29,29,0,0,0-1.66-3c-.35-.51-9.62,5.31-10.54,5.86-2.92,1.73-6,3.62-7.91,6.55-2.32,3.62-.79,7.36-1.18,11.31,0,0-.19,1.9-.22,2.12,0-.3,2.32-1.11,2.71-1.39,2.37-1.71,3.66-4.45,5.79-6.41,2.71-2.49,6.09-2.28,9.5-2.9a3.28,3.28,0,0,0,3-2.77l.21-1.5.43-.42C104.68,114.32,104.7,111.82,104.71,109.32Z"/>
			<path class="cls-5" d="M104.39,109.32a31.08,31.08,0,0,1,1.66-3c.36-.51,9.63,5.31,10.55,5.86,2.91,1.73,6,3.62,7.91,6.55,2.32,3.62.78,7.36,1.18,11.31,0,0,.19,1.9.21,2.12,0-.3-2.31-1.11-2.7-1.39-2.38-1.71-3.67-4.45-5.79-6.41-2.72-2.49-6.09-2.28-9.51-2.9a3.28,3.28,0,0,1-3-2.77l-.21-1.5-.42-.42C104.43,114.32,104.4,111.82,104.39,109.32Z"/>
			<path class="cls-5" d="M142.11,51l-1-.28,0-1c0-.33-.38-8.32-12.29-14-7.61-3.61-10.44-3.79-12.71-3.93a14.39,14.39,0,0,1-3.69-.57,40.36,40.36,0,0,0-10.74-1.43,29.66,29.66,0,0,0-6.59.68l-.34,0a37.29,37.29,0,0,0-6.34.52l-.22,0c-1.71.13-4.54.56-5.45,1.12l-.25.15-.29.05c-3.63.6-9.07,2.25-9.8,4.06l-.17.4-.37.24c-1,.64-2.74,2.05-3.12,3.1l-.13.37-.32.24s-4.67,3.72-4,8l0,.19,0,.18c0,.11-.25,1.91-.64,3.74l4.13-4.1-1.91,5.63A40.71,40.71,0,0,0,64,62c-.42,7-.15,14.83.84,19.58.6-6.8,1.75-17.9,3.08-20.86.16-.34.32-.71.48-1.08a27.11,27.11,0,0,1,3.66-6.31c10.49-13,30.21-11.56,45.53-10.27,4.62.38,10.57,1.14,14.61,3.47.39.23,2.78,2.59,2.78,2.59.48,0,.89-.1,1.24-.15a8.52,8.52,0,0,1,1.15-.11A2.8,2.8,0,0,1,140,50.55c.69,1.22,2.12,7.67,4.35,18.41.39,1.91.7,3.36.82,3.91a81.53,81.53,0,0,1,.88,8.57,25.49,25.49,0,0,0,1.61-7.26C147.54,65.32,145.54,52,142.11,51Z"/>
			<path class="cls-7" d="M102.2,75.09a5.73,5.73,0,0,0-2.35-2l.44.76a9.58,9.58,0,0,0-4.41-1.35,18.3,18.3,0,0,1,2.58,1.55,36,36,0,0,0-4.41-2C88.55,70.42,81.38,71,76.4,74c.55-.14,1.11-.27,1.66-.37a8.69,8.69,0,0,0-4.79,6.51c.7-3.38,3.14-4.23,6.28-3.87,1.52.18,3,.62,4.54.81,1.74.21,3.7-.32,5.38,0,2.12.42,3.88,1.31,6.09,1.41,1.62.08,4.91,1.65,6.35.73S103.41,77,102.2,75.09Z"/>
			<path class="cls-7" d="M109.14,74.92a5.6,5.6,0,0,1,2.35-2l-.44.76a9.66,9.66,0,0,1,4.41-1.35,18.3,18.3,0,0,0-2.58,1.55,37.58,37.58,0,0,1,4.41-2c5.5-1.64,12.67-1.06,17.65,2-.55-.14-1.11-.26-1.66-.36a8.65,8.65,0,0,1,4.79,6.5c-.7-3.38-3.14-4.23-6.28-3.86-1.53.17-3,.61-4.54.8-1.74.21-3.7-.32-5.38,0-2.12.42-3.88,1.31-6.09,1.42-1.63.07-4.91,1.64-6.36.72S107.93,76.79,109.14,74.92Z"/>
		</g>
		<circle class="cls-1" cx="102.59" cy="102.46" r="99" transform="matrix(0.16, -0.99, 0.99, 0.16, -14.98, 187.31)"/>
		<path class="cls-8" d="M142.69,103.09c-.36,1-1.9,1.81-2,2.88-.67,5.07-.27,8.55-1.58,12-1.85,5-2.58,4.92-6.6,6.65-3.12,1.35-7.64-2-10.32-3.84-5.55-3.84-7.46-6.71-15.59-6.46l-2.57.25c-7.62.2-11.22,2.34-16.82,6.21-2.67,1.85-4.73,4.42-8.21,3.92-4.54-.66-6-1.69-7.9-6.64-1.31-3.51-1.4-8.36-2.66-11.89-.37-1-1.21.21-1.58-.83-.18,0,0,.91-.16.91.73,8.21-.77,13.41,1.09,18.9,1.19,3.5,3.33,9.36,6.41,11.91C82.42,144,92.68,150,99,152.11a21.16,21.16,0,0,0,5.2.53h.86a21.19,21.19,0,0,0,5.21-.53c6.34-2.1,16.61-8.16,24.87-15,3.07-2.55,5.22-8.41,6.4-11.91,1.86-5.49.4-13.9,1.12-22.11C142.5,103.08,142.88,103.09,142.69,103.09ZM113.08,137c-2.32-.62-6.08-2.48-8.38-2.38-2.29-.1-6,1.65-8.36,2.27-5.25,1.42-6.89-.55-9-6.46-.54-1.5-1.47-4.73,0-5.63,3.73-2.23,12.46-8.91,17.36-8.89s12.39,6,17.21,9.06a5.18,5.18,0,0,1,1.56,5.57C120.83,135.9,118.28,138.36,113.08,137Z"/>
		<path class="cls-5" d="M110.42,134.3s-9,.68-11.92,0C98.5,134.3,105.87,131,110.42,134.3Z"/>
	</symbol>
	<symbol id="gareth" viewBox="0 0 205.95 205.99">
		<defs>
			<style>.cls-1{fill:none;stroke-width:7px;}.cls-1,.cls-3,.cls-4{stroke:#1bc398;}.cls-1,.cls-3,.cls-4,.cls-6{stroke-miterlimit:10;}.cls-2{clip-path:url(#clip-path);}.cls-3{fill:#fff;}.cls-3,.cls-4{stroke-width:2px;}.cls-4,.cls-5,.cls-6{fill:#1bc398;}.cls-6{stroke:#fff;}
			</style>
			<clipPath id="clip-path">
				<circle class="cls-1" cx="103.02" cy="102.99" r="99" transform="translate(-42.65 103.01) rotate(-45)"/>
			</clipPath>
		</defs>
		<title>Gareth</title>
		<g class="cls-2">
			<path class="cls-3" d="M167.5,173.79a30.9,30.9,0,0,0-9.84-4.82l-3.75-1.05.07,0-29.54-10.14a6,6,0,0,1-4.13-5c-1.2-6.5-1.06-22.14-1-24.93a.39.39,0,0,0-.42-.39H86.73a.39.39,0,0,0-.42.39c0,2.76.14,18.08-1,24.93a6,6,0,0,1-4.13,5L51.61,167.9l.08,0L47.84,169a29.6,29.6,0,0,0-8.59,4c-13.51,9.32-13.9,24.58-14.46,27.42a.4.4,0,0,0,.41.47H180.39a.4.4,0,0,0,.41-.47C180.26,197.63,180.06,183.16,167.5,173.79Z"/>
			<path class="cls-4" d="M167.5,173.79a30.9,30.9,0,0,0-9.84-4.82l-3.75-1.05.07,0-25.41-8.72a69.58,69.58,0,0,1-51.55,0L51.61,167.9l.08,0L47.84,169a29.6,29.6,0,0,0-8.59,4c-13.51,9.32-13.9,24.58-14.46,27.42a.4.4,0,0,0,.41.47H180.39a.4.4,0,0,0,.41-.47C180.26,197.63,180.06,183.16,167.5,173.79Z"/>
			<path class="cls-3" d="M72.46,94.29c2.26,6.44,1,16.49-2.88,18.43s-8.82-5-11.08-11.4-1-13.22,2.88-15.16S70.2,87.86,72.46,94.29Z"/>
			<path class="cls-3" d="M133.13,94.29c-2.26,6.44-1,16.49,2.88,18.43s8.82-5,11.08-11.4,1-13.22-2.88-15.16S135.4,87.86,133.13,94.29Z"/>
			<path class="cls-3" d="M102.44,37.24c-38.23-1.34-38.79,37.3-38.22,50,.42,9.27,2.5,22.75,4.37,29.44,1.06,3.84,3,10.27,5.78,13.06,7.45,7.51,16.72,14.16,22.45,16.47a18.17,18.17,0,0,0,5.62.59,18.17,18.17,0,0,0,5.62-.59c5.73-2.31,15-9,22.45-16.47,2.78-2.79,4.72-9.22,5.78-13.06,1.87-6.69,4-20.17,4.37-29.44C141.23,74.54,140.67,35.9,102.44,37.24Z"/>
		</g>
		<circle class="cls-1" cx="103.02" cy="102.99" r="99" transform="translate(-42.65 103.01) rotate(-45)"/>
		<path class="cls-5" d="M139,90.49a21,21,0,0,0-1,3.41,74.45,74.45,0,0,1-2.6,13.8c-1.67,5.43-4.7,6.91-8.32,8.81-2.82,1.48-6.9-2.18-9.31-4.22-5-4.22-8-3.9-15.35-3.62h-.88c-6.87.22-10.29-.63-15.34,3.62-2.42,2-4.28,4.85-7.42,4.3-4.1-.72-7.45-1.77-9.11-7.2C68.54,105.54,67.36,96.9,66.22,93c-.33-1.14-.85-1.4-1.18-2.54l-.51,0a163.2,163.2,0,0,0,4.2,26.58c1.06,3.84,3,10.27,5.78,13.07C82,137.66,91.23,144.32,97,146.63a16.13,16.13,0,0,0,4.69.58h.78a16.26,16.26,0,0,0,4.7-.58c5.72-2.31,15-9,22.45-16.47,2.77-2.8,4.71-9.23,5.78-13.07a163.3,163.3,0,0,0,4.19-26.58Zm-29.52,41.9c-2.09-.69-5.41-3.27-7.48-3.16-2.07-.11-4.73,3.3-6.82,4-5.44,1.78-11.87-5.18-14-12.8,5.42-2.26,15.55-6,20.87-6s16.45,3.42,21.86,5.67C121.73,127.71,115,134.17,109.52,132.39Z"/>
		<path class="cls-6" d="M138,75.29s0-.06,0-.08a.28.28,0,0,0-.17-.21h0l0,0c-2.94-1.37-15.3-2.1-22-1.21s-10.7,3-12.91,3.11-6.22-2.17-12.94-3-19,0-22,1.37l0,0h0a.3.3,0,0,0-.17.22v.07c0,.48-.12,2.52-.09,3.69a1,1,0,0,1,0,.17,1,1,0,0,0,.52.74h0c.58.26,1.61,1.4,2.67,6.95.48,2.78,1.07,8.62,5.81,10.38,2.15.79,12.56,2.37,17.85-2.79,1.12-1.08,2.32-3.46,3.32-5.9.6-1.65,2.18-6.4,2.42-7.13a2.39,2.39,0,0,1,2.3-2.08h.51c1.21,0,2,.79,2.31,2.06.25.72,1.86,5.47,2.46,7.12a20.19,20.19,0,0,0,3.36,5.87c5.32,5.12,15.73,3.46,17.87,2.66,4.72-1.8,5.27-7.65,5.74-10.42,1-5.56,2.05-6.7,2.63-7l0,0a.91.91,0,0,0,.52-.74,1,1,0,0,0,0-.17C138.17,77.81,138.05,75.76,138,75.29Z"/>
		<path class="cls-4" d="M67.21,51.7a9.24,9.24,0,0,0-1.93,2.74c-4.37,8.59-1.42,17.77-1.54,25A52.65,52.65,0,0,0,66.22,93c1.16-6.47.75-23.41,2.2-29.93C68.42,63.1,72.77,45.91,67.21,51.7Z"/>
		<path class="cls-4" d="M138.81,51.7a3.49,3.49,0,0,1,1.62,2.14c4.37,8.59,1.73,18.37,1.85,25.57A52.23,52.23,0,0,1,139.8,93c-1.16-6.47-.75-13.12-2.19-19.64a80.64,80.64,0,0,0-4.46-14S132.12,49.56,138.81,51.7Z"/>
		<path class="cls-5" d="M78.14,45.85S80,44.2,87.5,44.31s8.19,2,18.94,1.06,12.55-1.87,16.89-.8c4.69,1.15,4.06,1.15,6.51,1.53s2.75-1.92.88-3.87c-2.18-2.28-3.62-2.7-6.11-3.72-2.17-.89-5.22.05-7-1.78-3.78-4-12.16,0-21.94,1.55-3.58.59-6.56,1-9.07,1.32L83.59,40c-5.37.8-8.12,1.61-10.52,4.56C71.79,46.17,74.23,48.51,78.14,45.85Z"/>
		<path class="cls-5" d="M129.84,41.94c-2.14-2.65-7.17-5.86-7.17-5.86s1.06,1.66.07,1.72-1.56-1.12-1.56-1.12a1.07,1.07,0,0,1-1.45,1c-.78-.25.59-1.9.59-1.9a6,6,0,0,1-2.38,0,3.22,3.22,0,0,0,2-1.21c-2.08.53-7.64-.14-7.64-.14a10.48,10.48,0,0,0,2.77-1.67c-1.78.94-6,1.48-6,1.48A1.81,1.81,0,0,0,110.35,33c-1,.87-4.41,1-4.41,1a1.16,1.16,0,0,0,.57-1.32c-.57,1.32-4.68,1.55-4.94,1.47s1.32-1,1.32-1a37.46,37.46,0,0,0-5.13,1.42c-.05-.39,1.21-1.3,1.21-1.3a10.92,10.92,0,0,0-5.9,2.84c-.22-1,3.21-3,3.21-3C87.86,33.83,85,38.8,85,38.8c-.46-1.18,2.21-3.57,2.21-3.57-3.9,1-8.18,5.05-8.18,5.05a13,13,0,0,0,.15-3.47A15.78,15.78,0,0,1,75,43"/>
		<path class="cls-5" d="M111.27,125.44s-13,.69-17.21,0C94.06,125.44,104.7,122.1,111.27,125.44Z"/>
		<path class="cls-5" d="M139,89.49a21,21,0,0,0-1,3.41,74.45,74.45,0,0,1-2.6,13.8c-1.67,5.43-4.7,6.91-8.32,8.81-2.82,1.48-6.9-2.18-9.31-4.22-5-4.22-8-3.9-15.35-3.62h-.88c-6.87.22-10.29-.63-15.34,3.62-2.42,2-4.28,4.85-7.42,4.3-4.1-.72-7.45-1.77-9.11-7.2C68.54,104.54,67.36,95.9,66.22,92c-.33-1.14-.85-1.4-1.18-2.54l-.51,0a163.2,163.2,0,0,0,4.2,26.58c1.06,3.84,3,10.27,5.78,13.07C82,136.66,91.23,143.32,97,145.63a16.13,16.13,0,0,0,4.69.58h.78a16.26,16.26,0,0,0,4.7-.58c5.72-2.31,15-9,22.45-16.47,2.77-2.8,4.71-9.23,5.78-13.07a163.3,163.3,0,0,0,4.19-26.58Zm-29.52,41.9c-2.09-.69-5.41-3.27-7.48-3.16-2.07-.11-4.73,3.3-6.82,4-5.44,1.78-11.87-5.18-14-12.8,5.42-2.26,15.55-6,20.87-6s16.45,3.42,21.86,5.67C121.73,126.71,115,133.17,109.52,131.39Z"/>
	</symbol>
	<symbol id="jawad" viewBox="0 0 205.51 205.46">
		<defs>
			<style>.cls-1{fill:none;stroke-width:7px;}.cls-1,.cls-3,.cls-4,.cls-5{stroke:#1bc398;stroke-miterlimit:10;}.cls-2{clip-path:url(#clip-path);}.cls-3{fill:#fff;}.cls-3,.cls-4{stroke-width:2px;}.cls-4,.cls-5,.cls-6{fill:#1bc398;}
			</style>
			<clipPath id="clip-path">
				<circle class="cls-1" cx="102.75" cy="102.52" r="99"/>
			</clipPath>
		</defs>
		<title>Jawad</title>
		<g class="cls-2">
			<path class="cls-3" d="M171.19,174.68a32.2,32.2,0,0,0-10-4.63l-3.8-1,.08,0-30-9.74a5.87,5.87,0,0,1-4.18-4.83c-1.22-6.25-1.08-21.28-1-24a.4.4,0,0,0-.43-.37H89.3a.4.4,0,0,0-.43.37c0,2.66.15,17.38-1,24a5.82,5.82,0,0,1-4.19,4.83L53.69,169l.08,0-3.9,1a31.08,31.08,0,0,0-8.71,3.81c-13.7,9-14.09,23.62-14.66,26.35a.39.39,0,0,0,.42.45H184.26a.4.4,0,0,0,.42-.45C184.12,197.58,183.92,183.69,171.19,174.68Z"/>
			<path class="cls-4" d="M171.19,174.68a32.2,32.2,0,0,0-10-4.63l-3.8-1,.08,0-25.77-8.38a74.1,74.1,0,0,1-52.26,0L53.69,169l.08,0-3.9,1a31.08,31.08,0,0,0-8.71,3.81c-13.7,9-14.09,23.62-14.66,26.35a.39.39,0,0,0,.42.45H184.26a.4.4,0,0,0,.42-.45C184.12,197.58,183.92,183.69,171.19,174.68Z"/>
			<path class="cls-3" d="M74.83,98.29c2.3,6.18,1,15.84-2.92,17.71s-8.94-4.77-11.23-11-1-12.71,2.92-14.58S72.54,92.1,74.83,98.29Z"/>
			<path class="cls-3" d="M136.34,98.29c-2.29,6.18-1,15.84,2.93,17.71s8.93-4.77,11.23-11,1-12.71-2.92-14.58S138.64,92.1,136.34,98.29Z"/>
			<path class="cls-3" d="M105.23,43.47C66.46,42.18,65.89,79.3,66.47,91.54a150.32,150.32,0,0,0,4.43,28.29c1.09,3.69,3,9.87,5.86,12.55,7.56,7.21,17,13.61,22.77,15.83a19.54,19.54,0,0,0,5.7.56,19.58,19.58,0,0,0,5.7-.56c5.81-2.22,15.2-8.62,22.76-15.83,2.82-2.68,4.78-8.86,5.86-12.55A148.71,148.71,0,0,0,144,91.54C144.56,79.3,144,42.18,105.23,43.47Z"/>
			<path class="cls-5" d="M143.43,84.48V84.4a.31.31,0,0,0-.18-.21h0l-.05,0C140,82.8,126.74,82.06,119.57,83s-11.51,3.06-13.9,3.13-6.69-2.17-13.92-3-20.46,0-23.63,1.37l0,0h0a.33.33,0,0,0-.18.22s0,0,0,.08c0,.48-.13,2.53-.09,3.7a1.15,1.15,0,0,0,0,.18.94.94,0,0,0,.56.73l0,0c.63.26,1.73,1.4,2.87,7,.53,2.79,1.16,8.65,6.25,10.42,2.32.79,13.52,2.38,19.21-2.8,1.2-1.09,2.5-3.48,3.58-5.93.64-1.65,2.34-6.43,2.6-7.16a2.5,2.5,0,0,1,2.48-2.08H106a2.5,2.5,0,0,1,2.48,2.06c.27.73,2,5.5,2.64,7.15,1.11,2.44,2.42,4.82,3.63,5.9,5.72,5.13,16.92,3.47,19.22,2.67,5.09-1.81,5.68-7.68,6.18-10.47,1.11-5.58,2.2-6.73,2.83-7l.05,0a.94.94,0,0,0,.56-.74v-.17C143.58,87,143.46,85,143.43,84.48Z"/>
			<path class="cls-6" d="M68.88,119.14c0-9.3-3.27-32.86-3.27-32.86s4.56,43.27,39.58,43.27h1.14c35,0,39.58-43.27,39.58-43.27s-3.28,23.56-3.28,32.86c0,8.35-2.06,15.12-3.85,21.17-5.18,17.55-23.49,19.27-30.37,19.27-1.66,0-4.08.06-6.36,0-7.46-.15-24-2.4-29.31-18.78C71.27,136.29,68.88,127.49,68.88,119.14Z"/>
			<path class="cls-6" d="M141.61,87.63c-1-11.93-1.2-18.79-4.41-23.42-3.7-5.32-9.08-6.78-20.68-3.76s-14.63-4.2-22.36-3.86S75,62.27,71.63,67.57c-3.76,6-4.17,23-4,27.89l-.41-.5c-.51-1.83-1.65-5.63-2.23-8.38-1.84-8.84-3.73-20.24-3.73-20.24S59.76,68.46,59.76,60s19.92-34.42,47.66-34.42,26.64,17.66,26.64,17.66c13.9.45,16.81,13.45,17.48,24.1.32,5-2.25,12.19-5.08,18.47-1.32,2.93-1.82,7.23-3,9.43A65.66,65.66,0,0,1,141.61,87.63Z"/>
			<path class="cls-6" d="M122.24,125c-.63-2.93-2.94-5.15-5.19-6.92-2.56-2-6.45-1.31-9.5-.83-.29,0-.56.09-.81.14l-.8-.14c-3.06-.48-7-1.19-9.51.83-2.24,1.77-4.56,4-5.18,6.92s1.31,8.47,5.36,6.76c.42-.18.11,0,.33-.34v-.33c0-5.16,4-10.2,8.92-10.13h1.77c4.9-.07,8.89,5,8.91,10.13v.33c.24.33-.09.16.33.34C120.93,133.47,122.87,128,122.24,125Z"/>
		</g>
		<circle class="cls-1" cx="102.75" cy="102.52" r="99"/>
	</symbol>
	<symbol id="jordan" viewBox="0 0 206.84 206.09">
		<defs>
			<style>.cls-1{fill:none;stroke-width:7px;}.cls-1,.cls-3,.cls-4{stroke:#1bc398;}.cls-1,.cls-3,.cls-4,.cls-7{stroke-miterlimit:10;}.cls-2{clip-path:url(#clip-path);}.cls-3,.cls-6,.cls-7{fill:#fff;}.cls-3,.cls-4{stroke-width:2px;}.cls-4,.cls-5{fill:#1bc398;}.cls-7{stroke:#fff;}
			</style>
			<clipPath id="clip-path">
				<circle class="cls-1" cx="103.37" cy="102.88" r="99"/>
			</clipPath>
		</defs>
		<title>Jorda</title>
		<g class="cls-2">
			<path class="cls-3" d="M169.93,174.27a32.67,32.67,0,0,0-10.16-4.71l-3.87-1,.08,0-30.49-9.91a6,6,0,0,1-4.26-4.91c-1.24-6.36-1.09-21.66-1.06-24.39a.41.41,0,0,0-.43-.38H86.57a.42.42,0,0,0-.44.38c0,2.7.16,17.69-1.06,24.39a5.91,5.91,0,0,1-4.26,4.91L50.32,168.5l.08,0-4,1.05a31.45,31.45,0,0,0-8.86,3.88c-13.95,9.12-14.35,24-14.93,26.82a.4.4,0,0,0,.43.45H183.23a.39.39,0,0,0,.43-.45C183.1,197.59,182.89,183.44,169.93,174.27Z"/>
			<path class="cls-4" d="M169.93,174.27a32.67,32.67,0,0,0-10.16-4.71l-3.87-1,.08,0L129.75,160a75.52,75.52,0,0,1-53.2,0L50.32,168.5l.08,0-4,1.05a31.45,31.45,0,0,0-8.86,3.88c-13.95,9.12-14.35,24-14.93,26.82a.4.4,0,0,0,.43.45H183.23a.39.39,0,0,0,.43-.45C183.1,197.59,182.89,183.44,169.93,174.27Z"/>
			<path class="cls-3" d="M75,97.88c2.1,6.71.9,17.2-2.67,19.22s-8.16-5.18-10.26-11.88-.9-13.79,2.67-15.82S72.94,91.17,75,97.88Z"/>
			<path class="cls-3" d="M131.24,97.88c-2.09,6.71-.9,17.2,2.67,19.22s8.17-5.18,10.27-11.88.9-13.79-2.67-15.82S133.34,91.17,131.24,97.88Z"/>
			<path class="cls-3" d="M102.72,39.27C67.3,37.92,66.78,77,67.31,89.84a179.94,179.94,0,0,0,4,29.77c1,3.88,2.79,10.38,5.36,13.2,6.91,7.59,15.49,12,20.8,14.36a15.66,15.66,0,0,0,5.21.59,15.63,15.63,0,0,0,5.2-.59c5.31-2.34,13.89-6.77,20.8-14.36,2.57-2.82,4.37-9.32,5.36-13.2a179.94,179.94,0,0,0,4-29.77C138.65,77,138.13,37.92,102.72,39.27Z"/>
		</g>
		<circle class="cls-1" cx="103.37" cy="102.88" r="99"/>
		<path class="cls-5" d="M133.4,88.8c-.7-.24-1.43-.45-2.1-.73-1.33-.56-2.66-1.14-4-1.75a20.36,20.36,0,0,0-11.1-1.73c-2.25.22-4.58.22-6.87.29a12.38,12.38,0,0,1-1.45-.13c-.08-1.76,2.13-2.5,3.13-3.79l.36.4A11.1,11.1,0,0,1,116,80.7c1.76,0,3.52-.11,5.26-.25a10.65,10.65,0,0,1,6.94,1.79,14.3,14.3,0,0,1,4.59,5.05c.28.46.53.93.79,1.39Z"/><path class="cls-5" d="M71.89,89.11c1.61-3,3.09-5.87,7.23-7.8a9.46,9.46,0,0,1,4.24-.87c2.54,0,5.09,0,7.61.12A28.54,28.54,0,0,1,94,81s.09-.11.19-.23c.61,0,3.3,2.92,3.29,3.65a14.24,14.24,0,0,1-1.83.21c-2.6,0-5.2-.07-7.77-.21a19.23,19.23,0,0,0-9.5,1.9c-1.66.79-3.34,1.55-5,2.31C73,88.81,72.52,88.91,71.89,89.11Z"/>
		<path class="cls-5" d="M137.87,95.74c.17-1.25,1.81-4.4.58-4.26S137.07,93,137,94.06c-.35,3.2-1.7,8.8-2.09,12-.48,3.92-1.09,8.72-3.85,11.81a91.27,91.27,0,0,0-6.88,9.39,1,1,0,0,1-1.65,0c-1.91-2.37-2.86-3.32-5.77-4.34-4.38-1.53-8.67-2.11-13.1-.29a2.52,2.52,0,0,1-2.33.29c-3.6-1.8-7.86-1.65-11.73-.78a12.89,12.89,0,0,0-7.42,4.17c-.67.68-1.07.36-1.7-.51-1.84-2.5-2.76-5.33-5.06-7.54s-2.48-5.54-3.82-8.79-1.37-8.94-2.38-12.28c-.68-2.24-1.33-7.33-1.67-9.15-.17-.89.56.62-.6.67s.67.77,1,1.9c.65,2.09.49,4.06.5,6.39,0,3,.72,5.59,1,8.57.39,1.43.26,4.73.83,6.09,2.15,5.17,1.26,9.9,3.27,15.12a20.21,20.21,0,0,0,6.12,8.88c10.06,7.9,9.93,11.47,21.85,11.76,12.33.3,17.54-7.61,29.31-17.47,1.58-1.33,2.9-10.43,4.74-18.32.13-.91.88-3.39.91-4.28C136.63,103.18,137.12,101.23,137.87,95.74ZM116.09,134a24.85,24.85,0,0,1-6.63,3.38c-2,.56-3.23-.13-3.46-1.83-.15-1.11.65-2.43-.91-3.28a7.77,7.77,0,0,0-5.83-.59,2.66,2.66,0,0,0-2.33,3.09c.19,2.46-1,3.26-3.47,2.58a21.1,21.1,0,0,1-7.6-4.29c-2-1.6-1.34-3.92,1.1-4.68a9.28,9.28,0,0,1,1.7-.39,68.22,68.22,0,0,1,11.93-.48c.9,0,1.8,0,2.7,0,3.71-.18,7.4.61,11.14.54,1.34,0,3.21.16,3.71,1.78C118.68,131.65,117.64,133.05,116.09,134Z"/>
		<path class="cls-5" d="M141.56,76.81c.1.12.31,0,.29-.1-.37-3.19.83-5.75,1.9-8.29,1.57-3.71.31-7.17-1.14-10.57-.62-1.46.92-1.43,2-.7,1.43,1,0-1.49-.21-2.08-1.71-5.83-3.66-10.93-9.19-14.7a4.86,4.86,0,0,0-2.48-.8,14.41,14.41,0,0,1-10.82-5c-5.31-5.56-20-6.39-27.36-2.68a.07.07,0,0,0,0,.11c.94.82,3.41-.24,4.24.89a30,30,0,0,0-8.34,1.27c-.9.26-2.08.54-3.4.86-7.81,1.88-13.61,5.53-19.74,10.51-4.29,3.49-8,7.27-9.22,10-.33.77-1.46,3.15,0,2.26.25-.16,2-.35,2,0a4.29,4.29,0,0,1-.46,1.15,13,13,0,0,0-.87,7.38,8.52,8.52,0,0,0,.51,1.79c.31.83.27,1.85.5,1.62A5.38,5.38,0,0,1,61,68.51c1.52-.62.34,7.47,1,6.77a21.12,21.12,0,0,0,1.78-1.55c4.83,9.37,1.39,18.37,5.3,27.9-1.58-10.33,1.1-12.54,1.1-19.27,0-4.34,2.75-4.34,7.86-6.78,4.33-2.52,4.28-9.44,1.61-4.45,0,0-5.37,5.63-5.39,5.66C72,80,61.79,82.1,72.15,85.79a10.66,10.66,0,0,0,2.95.59c13.52.71,22.6-18.91,42.36-25a7.31,7.31,0,0,1,9.22,4.93c1.94,7.35,5.06,17.38,6.63,21.62.9-2.68,1.52-4.51,1.48-6.93,1.7,5.76,2.84,10.71,2.84,15.92.33,0-.33,4.64,0,4.7,1.55-3.71-.21-9.1,1.27-12.83,1.76-4.42-2.79-7.48-.28-11.67C139.63,75.43,140.29,75.05,141.56,76.81Z"/>
		<path class="cls-6" d="M79.25,71.94a15.48,15.48,0,0,1-4,5.25,18,18,0,0,1-5.73,3.41,13.29,13.29,0,0,0-2.86,1.15,1.11,1.11,0,0,0-.32.37c0,.09,0,.15,0,.3a2.88,2.88,0,0,0,.94.88,13.78,13.78,0,0,0,2.82,1.33c1,.37,2,.66,3.07.94l-.13.71a17,17,0,0,1-6.4-2,3.65,3.65,0,0,1-1.38-1.36,1.58,1.58,0,0,1-.06-1.28A2.31,2.31,0,0,1,66,80.8a11.46,11.46,0,0,1,3.19-1.27,19.69,19.69,0,0,0,2.93-1.22,25.44,25.44,0,0,0,2.7-1.7A18.76,18.76,0,0,0,79.25,71.94Z"/>
		<path class="cls-6" d="M91.67,79.26A31.28,31.28,0,0,1,83,85.12a21.72,21.72,0,0,1-5.11,1.54,14.34,14.34,0,0,1-5.38-.25l.23-1a17.44,17.44,0,0,0,5,.1,25.16,25.16,0,0,0,4.91-1.27,35.36,35.36,0,0,0,4.66-2.2,41.16,41.16,0,0,0,4.37-2.82Z"/>
		<path class="cls-7" d="M90.8,79.78s-8.37,6.44-13.19,7.4"/>
	</symbol>
	<symbol id="kate" viewBox="0 0 205.95 205.73">
		<defs>
			<style>.cls-1{fill:none;stroke-width:7px;}.cls-1,.cls-2,.cls-4{stroke:#1bc398;}.cls-1,.cls-2,.cls-4,.cls-6{stroke-miterlimit:10;}.cls-2,.cls-6,.cls-7{fill:#1bc398;}.cls-2,.cls-4{stroke-width:2px;}.cls-3{clip-path:url(#clip-path);}.cls-4,.cls-5{fill:#fff;}.cls-6{stroke:#fff;}
			</style>
			<clipPath id="clip-path">
				<circle class="cls-1" cx="102.95" cy="102.73" r="99" transform="translate(-42.49 102.88) rotate(-45)"/>
			</clipPath>
		</defs>
		<title>Kate</title>
		<path class="cls-2" d="M152.86,114.79c-.69-13.9-3.34-27.91-9.2-39.4C135,58.42,119.37,50,104.06,50s-30.95,8.45-39.6,25.42c-5.87,11.49-8.51,25.5-9.2,39.4s1.88,59.15-.78,66.91c0,0,36.7,17.72,49.58,17.72s49.58-17.72,49.58-17.72C151,173.94,153.55,128.69,152.86,114.79Z"/>
		<g class="cls-3">
			<path class="cls-4" d="M160.81,176.43a26.2,26.2,0,0,0-8.57-4.47l-28.92-9h0c-2.07-.63-3.22-2.53-3.59-4.67-1-6-.92-21.93-.89-24.52a.36.36,0,0,0-.37-.36H93a.36.36,0,0,0-.37.36c0,2.57.13,18.17-.89,24.52a5.49,5.49,0,0,1-3.59,4.67h0l-29,9a25.08,25.08,0,0,0-7.48,3.68c-11.76,8.65-12.1,22.82-12.59,25.45a.36.36,0,0,0,.36.43H172a.36.36,0,0,0,.36-.43C171.91,198.55,171.74,185.13,160.81,176.43Z"/><path class="cls-4" d="M159.81,167.81a26.39,26.39,0,0,0-8.57-4.47l-28.92-9h0c-2.07-.62-3.22-2.53-3.59-4.66-1-6-.92-21.93-.89-24.52a.35.35,0,0,0-.37-.36H92a.35.35,0,0,0-.37.36c0,2.56.13,18.17-.89,24.52a5.46,5.46,0,0,1-3.59,4.66h0l-29,9.05A25.29,25.29,0,0,0,50.63,167C38.87,175.7,38.53,189.86,38,192.49a.36.36,0,0,0,.36.43H171a.36.36,0,0,0,.36-.43C170.91,189.93,170.74,176.51,159.81,167.81Z"/><path class="cls-2" d="M160.19,168.22a26.2,26.2,0,0,0-8.57-4.47l-12-3.76c-9.8,11.55-21.68,18.33-34.48,18.33S80.42,171.54,70.62,160l-12.13,3.78A25.2,25.2,0,0,0,51,167.45c-11.76,8.65-12.1,22.81-12.58,25.45a.36.36,0,0,0,.36.43l65.19,17,67.43-17a.37.37,0,0,0,.36-.43C171.3,190.34,171.12,176.92,160.19,168.22Z"/></g><circle class="cls-1" cx="102.95" cy="102.73" r="99" transform="translate(-42.49 102.88) rotate(-45)"/><path class="cls-5" d="M95.38,127.16a22.49,22.49,0,0,0,17.36-.26"/><path class="cls-6" d="M107.69,43.68V37.52l-1.3-.26c-.47,2.14-.94,4.28-1.46,6.6l-13.26,2c-6-7.43-1.23-14.43,4.91-16.51,7.21-2.44,12.94-1.63,16.25,3.48a12.26,12.26,0,0,1,1.93,7.88C114.15,44.34,111.83,47,107.69,43.68Z"/><path class="cls-4" d="M137.7,76.82s-17.29-19.15-34.45-19.15V59.4C85,59.4,66.59,78.54,66.59,78.54s3,28.75,4.17,38.52,18.79,25.88,33.94,25.88,32.2-17.83,33.42-27.6S137.7,76.82,137.7,76.82Z"/><path class="cls-7" d="M131.22,93.23c-1.74-.67-3.29-1.14-4.73-1.86-3.28-1.64-6.62-2.59-10.25-1.84-1.91.39-3.84.69-5.77.94a26.35,26.35,0,0,1-3,0l.85-1.64s.1-.08.14-.13c1.48-2,3.65-2.14,5.74-2.45,1.72-.26,3.45-.38,5.15-.71a8.55,8.55,0,0,1,6.53,1.5A19.88,19.88,0,0,1,131,92.54,5.56,5.56,0,0,1,131.22,93.23Z"/><path class="cls-7" d="M97,90.78c-2.4-.33-4.83-.49-7.19-1a16.21,16.21,0,0,0-11.67,1.71A22,22,0,0,1,73.68,93c2.26-3.61,4.8-6.78,9-7.48a10.8,10.8,0,0,1,2.89.09c1.84.2,3.68.42,5.51.73a28.07,28.07,0,0,0,2.91.72c1.31.07,1.74,1.27,2.56,2a4.15,4.15,0,0,1,.68,1.29Z"/><path class="cls-7" d="M97.74,90.81l.19-2.33c1.33,1.73,1.33,1.73.84,2.61l-.08-1Z"/><path class="cls-7" d="M106.87,88.57l.15,2.14c-1-.3-1-1.1-.86-1.84Z"/><path class="cls-7" d="M109.61,124a5.22,5.22,0,0,0-3.74.21,2.92,2.92,0,0,1-3.35,0,4.14,4.14,0,0,0-3.06-.33c-2.37.67-4.76,1.87-7.2,1.71a.71.71,0,0,0,.3.72c2.74,2.39,6.19,5,10.85,5a16.17,16.17,0,0,0,11.69-4.69,3,3,0,0,0,.78-1.32C113.45,125.4,112,124.52,109.61,124Z"/><path class="cls-5" d="M94.84,126.7a24,24,0,0,0,18.61-.29"/><path class="cls-6" d="M119.35,64.69s11.61,5.77,13.91,11.5c1.94,4.85,3,13.84,7.79,13.93s8.55-5.66,8.55-5.66S148,55.93,127.92,50.79"/><path class="cls-6" d="M121.18,44.87c7.47,2.44,7.34,3.75,8,7,1.08,5.61-.68,6.22-4.87,10.76-3.19,3.45-2.77,4.55-8.92,4.37-4.88-.14-4.52,1.24-8.33,3.68-1.68.88-2.38,2.44-7.13,0s-13.32-1.24-13.32-1.24c-12.83,2.61-13.78,14-18.44,18.66s-10.68-.2-10.68-.2C63.55,67.65,59.05,59.56,84,47.05a40.72,40.72,0,0,1,16.88-4.4C106,42.47,113,42.21,121.18,44.87Z"/>
	</symbol>
	<symbol id="maricar" viewBox="0 0 206.84 205.84">
		<defs>
			<style>.cls-1,.cls-6{fill:none;}.cls-1,.cls-3,.cls-4{stroke:#1bc398;}.cls-1,.cls-3,.cls-4,.cls-6{stroke-miterlimit:10;}.cls-1{stroke-width:7px;}.cls-2{clip-path:url(#clip-path);}.cls-3,.cls-5{fill:#1bc398;}.cls-3,.cls-4,.cls-6{stroke-width:2px;}.cls-4{fill:#fff;}.cls-6{stroke:#fff;}
			</style>
			<clipPath id="clip-path">
				<circle class="cls-1" cx="103.46" cy="102.74" r="99"/>
			</clipPath>
		</defs>
		<title>Maricar</title>
		<g class="cls-2"><path class="cls-3" d="M131.07,188.47c9.49,1.73,4.88,13.81,12.4,7.62s8.62-91,8.58-102.56c0-12.31,2.21-24-5.57-35.75-9.54-14.38-27.44-17.6-43.64-17.6s-29.13,4.07-42,17.71c-7.81,8.31-9.11,29.77-8,41,1.14,11.54,6.08,91,13.6,97.21s-1.52-5.89,8-7.62Z"/><path class="cls-4" d="M157.94,176.25a26.39,26.39,0,0,0-8.57-4.47l-28.92-9h0c-2.07-.62-3.22-2.53-3.59-4.66-1-6-.92-21.93-.9-24.52a.35.35,0,0,0-.36-.36H90.09a.35.35,0,0,0-.37.36c0,2.56.13,18.17-.89,24.52a5.47,5.47,0,0,1-3.6,4.66h0l-29,9.05a25.29,25.29,0,0,0-7.48,3.67C37,184.14,36.66,198.3,36.17,200.93a.36.36,0,0,0,.36.43H169.15a.36.36,0,0,0,.36-.43C169,198.38,168.87,185,157.94,176.25Z"/><path class="cls-4" d="M157.94,176.25a26.39,26.39,0,0,0-8.57-4.47l-28.92-9h0c-2.07-.62-3.22-2.53-3.59-4.66-1-6-.92-21.93-.9-24.52a.35.35,0,0,0-.36-.36H90.09a.35.35,0,0,0-.37.36c0,2.56.13,18.17-.89,24.52a5.47,5.47,0,0,1-3.6,4.66h0l-29,9.05a25.29,25.29,0,0,0-7.48,3.67C37,184.14,36.66,198.3,36.17,200.93a.36.36,0,0,0,.36.43H169.15a.36.36,0,0,0,.36-.43C169,198.38,168.87,185,157.94,176.25Z"/><path class="cls-4" d="M102.84,46.75c-34.7,18-37.58,39.24-37,51.52.43,8.91,1,18.9,2.92,25.33a20.52,20.52,0,0,0,5.87,9.79c4.7,4.1,13.84,9.37,20,11.77,6.33,2.48,10.87,2.72,16.77-.11,9.42-4.5,15.8-8.78,19.14-12A24,24,0,0,0,136.8,123c1.89-6.43,2.11-16.15,2.53-25.06C139.9,86.06,140.66,65.18,102.84,46.75Z"/><path class="cls-3" d="M142.23,169.56c-1,4.2-4.72,13.16-19.12,17.32-11.18,3.23-17.2,8.78-20.28,12.84-3.09-4.06-9.11-9.58-20.25-12.79-14.45-4.18-18.17-13.18-19.14-17.37l-4,1.26v30.54h86.9V170.82Z"/></g><circle class="cls-1" cx="103.46" cy="102.74" r="99"/><path class="cls-5" d="M102.52,42.34s7,16.18,9.46,18.76c2.93,3.08,7.64,4.53,13.17,8.07,9.86,6.32,12.08,17,13.9,24.83.9,3.92,10.17-14.59,13.36-18.73,0,0,1.56-23.73-23.49-30C109.94,40.44,102.52,42.34,102.52,42.34Z"/><path class="cls-5" d="M52.88,102.74s13.5-1.84,13.85-6.8c.78-10.86,3.7-20.13,12.41-24.44,11.37-5.62,31-5,35.34-8.65,3.91-3.32,13.58-13.27,13-20.12,0,0-28.67-10.07-53.57,1.25C43.15,58,52.88,102.74,52.88,102.74Z"/><path class="cls-5" d="M131.47,90.84l-2.22-.43c-2-.38-4-.92-6.08-1.1a31.82,31.82,0,0,0-8.45.82,40,40,0,0,0-4,.87,2.13,2.13,0,0,1-2.43-.88c-.3-.36-.58-.75-1-1.31l1.45.46c.08-1,.69-1,1.3-1,2.77-.4,5.54-.78,8.29-1.3a12.4,12.4,0,0,1,9,1.34c1.3.77,2.65,1.43,4,2.15a1.43,1.43,0,0,1,.27.23Z"/><path class="cls-5" d="M73.52,91.71c1-.6,1.86-1.26,2.84-1.78,1.47-.77,3-1.47,4.47-2.12,1.87-.8,3.84-.49,5.79-.3,2.92.29,5.83.58,8.74.93.36,0,.7.41,1,.62l0,.32,1.18-.44a2.82,2.82,0,0,1-3.14,2.24c-2.79-.38-5.58-.83-8.37-1.09a19.1,19.1,0,0,0-8.22.77c-1.37.47-2.81.7-4.21,1Z"/><path class="cls-5" d="M109.93,123.61a10.24,10.24,0,0,0-6.82-.34,2.62,2.62,0,0,1-1.52,0,8.49,8.49,0,0,0-6.14.25c-1.81.7-2.12,1.2-5,1.66,5.84,5.73,7.6,6,15.21,5.49,4.88-.32,6.15-2.9,9-5.62C112.68,124.81,111.8,124.23,109.93,123.61ZM94.58,125.7c2.59.23,5.26.67,7.94.66s5.38-.43,8-.67A25.37,25.37,0,0,1,94.58,125.7Z"/><path class="cls-3" d="M159,174.59a26.2,26.2,0,0,0-8.57-4.47l-12.05-3.76c-9.8,11.56-21.68,18.34-34.48,18.34s-24.68-6.78-34.48-18.34L57.3,170.14a25.08,25.08,0,0,0-7.48,3.68c-6.23,4.58-8.64,10.89,7.35,16.45,14.22,4.95,46.73,9.43,46.73,9.43s29.26-5.82,43.75-10.65C163.62,183.73,164.73,179.15,159,174.59Z"/><path class="cls-6" d="M112.81,65.26c2-1.1,8.5-6.93,7.48-17.19C118.42,29.26,91.06,33.7,91.2,33.94"/><path class="cls-5" d="M51.47,90s.18,20.71-2.92,36.39c-5.4,27.38,4.72,37.26.11,54.56-4.37,16.39,26.16,4,26.16,4"/><path class="cls-5" d="M152.41,75.27c1.54,3.47-.52,49.43,2.25,61.19,7.66,32.43,1.56,26.09-1.55,46.57l-15.33,3.19"/>
	</symbol>
	<symbol id="marty" viewBox="0 0 205.18 205.18">
		<defs>
			<style>.cls-1{fill:none;stroke-width:7px;}.cls-1,.cls-3,.cls-4,.cls-6{stroke:#1bc398;stroke-miterlimit:10;}.cls-2{clip-path:url(#clip-path);}.cls-3{fill:#fff;}.cls-3,.cls-4{stroke-width:2px;}.cls-4,.cls-5,.cls-6{fill:#1bc398;}
			</style>
			<clipPath id="clip-path">
				<circle class="cls-1" cx="102.61" cy="102.62" r="99"/>
			</clipPath>
		</defs>
		<title>Marty</title>
		<g class="cls-2">
			<path class="cls-3" d="M169.17,174A32.7,32.7,0,0,0,159,169.3l-3.87-1,.08,0-30.49-9.91a6,6,0,0,1-4.26-4.92c-1.24-6.36-1.1-21.65-1.06-24.38a.41.41,0,0,0-.44-.38H85.8a.4.4,0,0,0-.43.38c0,2.7.15,17.69-1.06,24.38a5.93,5.93,0,0,1-4.26,4.92l-30.49,9.91.08,0-4,1.06a31.9,31.9,0,0,0-8.87,3.87C22.86,182.32,22.46,197.25,21.88,200a.4.4,0,0,0,.43.45H182.47a.4.4,0,0,0,.43-.45C182.34,197.33,182.13,183.18,169.17,174Z"/><path class="cls-4" d="M169.17,174A32.7,32.7,0,0,0,159,169.3l-3.87-1,.08,0L129,159.72a75.37,75.37,0,0,1-53.2,0l-26.23,8.53.08,0-4,1.06a31.9,31.9,0,0,0-8.87,3.87C22.86,182.32,22.46,197.25,21.88,200a.4.4,0,0,0,.43.45H182.47a.4.4,0,0,0,.43-.45C182.34,197.33,182.13,183.18,169.17,174Z"/><path class="cls-3" d="M71.08,96.25c2.34,6.3,1,16.13-3,18s-9.1-4.85-11.44-11.15-1-12.93,3-14.83S68.74,90,71.08,96.25Z"/><path class="cls-3" d="M133.7,96.25c-2.34,6.3-1,16.13,3,18s9.1-4.85,11.44-11.15,1-12.93-3-14.83S136,90,133.7,96.25Z"/><path class="cls-3" d="M102,40.45C62.56,39.14,62,76.93,62.57,89.38c.44,9.07,2.59,22.25,4.51,28.8,1.1,3.76,3.1,10,6,12.78,7.69,7.34,17.26,13.85,23.17,16.11a19.8,19.8,0,0,0,5.8.57,19.88,19.88,0,0,0,5.81-.57c5.91-2.26,15.47-8.77,23.17-16.11,2.86-2.73,4.86-9,6-12.78a152,152,0,0,0,4.51-28.8C142.06,76.93,141.48,39.14,102,40.45Z"/><path class="cls-5" d="M148.19,68.3C148,63.9,141.76,53,141.76,53s-3.27-8.59-6.36-12.62-8.57-5.29-8.57-5.29,1.55,2.55.19,2.71-2.2-1.67-2.2-1.67c.09.76-.66,2.1-1.94,1.67-1.07-.35.7-3,.7-3a7,7,0,0,1-3.26.15c1.59-.15,2.74-2,2.74-2-2.82,1-10.5.3-10.5.3a14.3,14.3,0,0,0,3.7-2.82c-2.38,1.6-8.2,2.74-8.2,2.74a2.84,2.84,0,0,0,1.68-2c-1.33,1.44-6,1.82-6,1.82a2,2,0,0,0,.7-2.13c-.7,2.13-6.34,2.77-6.7,2.66s1.76-1.67,1.76-1.67a47,47,0,0,0-7,2.59c-.08-.61,1.59-2.13,1.59-2.13a14.76,14.76,0,0,0-7.94,4.86c-.35-1.52,4.24-4.86,4.24-4.86-11.52,1.7-15.18,9.72-15.18,9.72-.7-1.82,2.83-5.77,2.83-5.77-5.3,1.82-10.94,8.51-10.94,8.51a23.64,23.64,0,0,0,0-5.47,26.19,26.19,0,0,1-5.29,10C57,55,60.07,62.3,60.07,62.3c-4.25,1.13-4.63,8-4.85,11.41a41,41,0,0,0,.07,8.93c.73,4.55,2.05,6.78,4.57,10.56,2.81,4.2,5.21-4.2,5.1-6.34a59.3,59.3,0,0,1-.19-8.94c.87-8.46,6.89-12.57,15.15-12.81,4.5-.13,17.73,8,33.08,3.57,11.37-3.27,18.85-4.8,24.61,3,2.36,3.18.78,7.67-.31,11.7a.11.11,0,0,1,0,0c.26,2.29.08,4.78,1.55,6.69a2.67,2.67,0,0,1,.5,2.06,3.5,3.5,0,0,0,3.29,0C147.93,89.22,148.32,71.55,148.19,68.3Z"/></g><circle class="cls-1" cx="102.61" cy="102.62" r="99"/><path class="cls-6" d="M141,86.7s0-.07,0-.09a.33.33,0,0,0-.19-.23h0l-.05,0c-3.3-1.45-17.18-2.23-24.67-1.29s-12,3.24-14.5,3.32c-2.5-.07-7-2.31-14.54-3.22s-21.36,0-24.66,1.46l0,0h0a.34.34,0,0,0-.19.23V87c0,.5-.14,2.68-.1,3.92a1.09,1.09,0,0,1,0,.18,1,1,0,0,0,.59.79h0c.65.28,1.81,1.49,3,7.4.54,3,1.21,9.18,6.52,11,2.42.84,14.12,2.52,20.06-3,1.25-1.15,2.6-3.68,3.73-6.28.67-1.76,2.44-6.82,2.71-7.59a2.63,2.63,0,0,1,2.59-2.21h.57a2.62,2.62,0,0,1,2.6,2.19c.28.77,2.08,5.82,2.76,7.58,1.15,2.58,2.52,5.1,3.78,6.25,6,5.44,17.66,3.68,20.07,2.83,5.31-1.92,5.93-8.14,6.45-11.1,1.16-5.92,2.3-7.13,3-7.41,0,0,0,0,0,0a1,1,0,0,0,.59-.78v-.19C141.1,89.38,141,87.2,141,86.7Z"/>
	</symbol>
	<symbol id="mike" viewBox="0 0 206.18 206.15">
		<defs>
			<style>.cls-1{fill:none;stroke-width:7px;}.cls-1,.cls-3,.cls-6{stroke:#1bc398;}.cls-1,.cls-3,.cls-6,.cls-7{stroke-miterlimit:10;}.cls-2{clip-path:url(#clip-path);}.cls-3{fill:#fff;}.cls-3,.cls-6{stroke-width:2px;}.cls-4,.cls-5,.cls-6,.cls-7,.cls-8{fill:#1bc398;}.cls-5{opacity:0.3;}.cls-7,.cls-8{stroke:#fff;stroke-width:1.5px;}.cls-8{stroke-linejoin:round;}
			</style>
			<clipPath id="clip-path">
				<circle class="cls-1" cx="102.92" cy="102.91" r="99"/>
			</clipPath>
		</defs>
		<title>Mike</title>
		<g class="cls-2">
			<path class="cls-3" d="M165.52,176.14a32.2,32.2,0,0,0-10-4.63l-3.8-1,.08,0-30-9.74a5.87,5.87,0,0,1-4.18-4.83c-1.22-6.25-1.08-21.28-1-24a.4.4,0,0,0-.43-.37H83.63a.4.4,0,0,0-.43.37c0,2.66.15,17.38-1,24A5.83,5.83,0,0,1,78,160.74l-30,9.74.08,0-3.9,1a31.37,31.37,0,0,0-8.71,3.81c-13.7,9-14.09,23.63-14.66,26.35a.39.39,0,0,0,.42.45H178.59a.4.4,0,0,0,.42-.45C178.46,199,178.25,185.15,165.52,176.14Z"/>
		</g>
		<circle class="cls-1" cx="102.92" cy="102.91" r="99"/>
		<path class="cls-3" d="M71.28,101.35c2.2,6.47,1,16.59-2.79,18.54s-8.56-5-10.76-11.47-.95-13.3,2.8-15.25S69.09,94.88,71.28,101.35Z"/>
		<path class="cls-3" d="M130.18,101.35c-2.19,6.47-.94,16.59,2.8,18.54s8.56-5,10.76-11.47.94-13.3-2.8-15.25S132.38,94.88,130.18,101.35Z"/>
		<path class="cls-3" d="M100.39,44C63.27,42.62,62.73,81.48,63.28,94.28a170,170,0,0,0,4.24,29.62c1,3.86,2.92,10.33,5.61,13.14,7.24,7.55,16.24,14.24,21.8,16.56a17.19,17.19,0,0,0,5.46.59,17.19,17.19,0,0,0,5.46-.59c5.56-2.32,14.55-9,21.79-16.56,2.7-2.81,4.58-9.28,5.62-13.14a171,171,0,0,0,4.24-29.62C138.05,81.48,137.5,42.62,100.39,44Z"/>
		<path class="cls-4" d="M135.32,83c-1-11.92-2.88-18.88-5.89-23.51-3.46-5.32-8.5-6.78-19.35-3.76s-13.69-4.2-20.93-3.86S71.47,58.48,68.34,63.77c-3.52,6-4.17,22.09-4.06,26.94l-.39-.5c-.47-1.83-1.54-5.63-2.08-8.38-1.73-8.84-3.5-20.24-3.5-20.24S57,63.71,57,55.26,75.6,20.84,101.56,20.84,126.49,38.5,126.49,38.5c13,.45,15.74,13.45,16.37,24.1a44,44,0,0,1-3,18.56c-1.23,2.93-1.7,7.24-2.79,9.44A69.92,69.92,0,0,1,135.32,83Z"/>
		<path class="cls-4" d="M68.07,91.49l3.22-2.87-.21-.23h-1l-.14-.2q1.8-1.38,3.59-2.77c2.21-1.76,4.76-1.48,7.26-1.1A50,50,0,0,1,91.23,87.1c.31.12.63.19.94.29a1.24,1.24,0,0,1,.53,2.19,3.4,3.4,0,0,1-3,1A47.15,47.15,0,0,0,77,89.83a36.62,36.62,0,0,0-7.47,1.56c-.43.13-.88.2-1.32.3Z"/>
		<path class="cls-4" d="M129.64,88.37h-1l-.2.22,3.28,2.79-.23.32a11.28,11.28,0,0,1-1.31-.28,36.14,36.14,0,0,0-15-1.58c-1.86.16-3.7.48-5.54.76a3.74,3.74,0,0,1-3-1.77,1,1,0,0,1,.62-1.39c1.88-.61,3.72-1.33,5.63-1.79,2.58-.63,5.2-1.09,7.82-1.53a7.34,7.34,0,0,1,6,1.71c1,.79,2,1.56,2.94,2.34Z"/>
		<path class="cls-5" d="M135.3,102.91a18.46,18.46,0,0,0-.93,3.11,64.79,64.79,0,0,1-2.47,12.57c-1.59,5-4.46,6.3-7.9,8-2.68,1.35-6.56-2-8.85-3.84-4.77-3.85-6.38-.66-13.35-.41H99.66c-6.53.21-9.71-3.47-14.51.41-2.3,1.85-4.06,4.42-7.05,3.91-3.89-.65-7.07-1.61-8.66-6.56-1.12-3.51-2.25-11.38-3.33-14.91-.32-1-.81-1.27-1.12-2.31l-.48,0a143.2,143.2,0,0,0,4,24.22c1,3.5,2.86,9.36,5.49,11.9,7.09,6.84,15.89,12.9,21.34,15a15.63,15.63,0,0,0,4.46.53h.74a15.68,15.68,0,0,0,4.46-.53c5.44-2.11,14.24-8.17,21.33-15,2.64-2.54,4.48-8.4,5.49-11.9a143.12,143.12,0,0,0,4-24.22Zm-28.05,38.17c-2-.62-5.14-3-7.1-2.87-2-.1-4.5,3-6.48,3.63-4.51,1.42-6.57-3.6-8.39-9.51a2.89,2.89,0,0,1,1.79-3.6,40.44,40.44,0,0,1,12.79-2,54.35,54.35,0,0,1,14.58,2,2.87,2.87,0,0,1,1.86,3.7C114.34,138.13,111.72,142.49,107.25,141.08Z"/>
		<path class="cls-6" d="M164.46,175.43c-2.75-1.87-9.49-3.52-12.85-4.42l-3.54-.9.07,0-23.21-7.59c.1,3-.2,9.17-2.81,11.81-1.57,1.59-6.66,5.1-8.4,6.85-2.82,2.83-4.65,3.38-6.35,5.62-2.58,3.41-6,9.78-8.09,8.33-1-.69-7.92-9-8.83-11.16-1-2.5-6.72-6.16-7.74-7.35-6.29-7.32-2.54-9.65-7.24-14l-24,7.46.07,0-3.63.93a29.3,29.3,0,0,0-8.11,3.39C27,182.41,67.55,193.66,67,196.09c0,.2.14.39.39.39l32.39,1.81,38.28-1.14a.36.36,0,0,0,.39-.39C138,194.4,176.32,183.45,164.46,175.43Z"/>
		<path class="cls-7" d="M121.33,178.39s-4.28,1.9-8,13.54c-.75,2.3-1.35,4.24-1.84,5.87"/>
		<path class="cls-7" d="M113.06,178.94a27.5,27.5,0,0,0-3.72,3.24A54.31,54.31,0,0,0,102,191a71.7,71.7,0,0,0-3.71,7.31"/>
		<path class="cls-7" d="M77.92,178s2.51,1.86,2.9,3.22,2.46,4.12,3.5,6.62c.64,1.54,2.26,5.63,3.43,9.15"/>
		<path class="cls-7" d="M84.76,178s3.64.81,4.29,2.1S99,191,99.87,194.82"/>
		<path class="cls-7" d="M89.31,184.51s-3.18-.41-2.21,2.93c.93,3.18,4.3,1.05,4-1S89.31,184.51,89.31,184.51Z"/>
		<path class="cls-8" d="M119.88,156.5a21.85,21.85,0,0,1,.6,9.16c-.78,4.9-1.81,9-3.37,9.39a6.12,6.12,0,0,0-4,3.89s2.89-3.34,8.27-.55,5.13,14.13,7,10.67c.89-1.68,5.07-11.89,2.83-18.43-2-5.82-3.44-8.35-5.71-10.43s-4.14-4.13-6-4.61Z"/>
		<path class="cls-8" d="M80.17,155.86A37.6,37.6,0,0,0,89,179.68a17.74,17.74,0,0,0-13.5-1.09c-7.13,2.52-5.38,8.24-6.87,8.3s-.62-7.07-.45-11.29c.19-4.69,1.19-7.94,2.53-9.91C72.4,163.21,76.8,156.61,80.17,155.86Z"/>
	</symbol>
	<symbol id="sam" viewBox="0 0 205.92 206.43">
		<defs>
			<style>.cls-1{fill:none;stroke-width:7px;}.cls-1,.cls-3,.cls-4{stroke:#1bc398;stroke-miterlimit:10;}.cls-2{clip-path:url(#clip-path);}.cls-3,.cls-5{fill:#1bc398;}.cls-3,.cls-4{stroke-width:2px;}.cls-4{fill:#fff;}
			</style>
			<clipPath id="clip-path">
				<circle class="cls-1" cx="102.93" cy="103.14" r="99"/>
			</clipPath>
		</defs>
		<title>Sam</title>
		<g class="cls-2">
			<path class="cls-3" d="M168.56,176a32.2,32.2,0,0,0-10-4.63l-3.8-1,.08,0-27-8.77h0a37.43,37.43,0,0,1-49.84,0h0l-27,8.77.08,0-3.9,1a31.5,31.5,0,0,0-8.71,3.81c-13.7,9-14.09,23.62-14.66,26.35a.39.39,0,0,0,.42.45H181.63a.39.39,0,0,0,.42-.45C181.5,198.88,181.3,185,168.56,176Z"/>
			<path class="cls-4" d="M127.88,161.55l-3-1a5.87,5.87,0,0,1-4.18-4.83c-1.22-6.25-1.08-21.27-1-24a.4.4,0,0,0-.43-.37H86.67a.4.4,0,0,0-.43.37c0,2.66.15,17.38-1,24A5.83,5.83,0,0,1,81,160.58l-3,1h0a37.43,37.43,0,0,0,49.84,0Z"/>
			<path class="cls-4" d="M72.2,99.59c2.3,6.18,1,15.84-2.92,17.71s-8.94-4.77-11.23-11-1-12.71,2.92-14.58S69.91,93.41,72.2,99.59Z"/>
			<path class="cls-4" d="M133.72,99.59c-2.3,6.18-1,15.84,2.92,17.71s8.93-4.77,11.23-11,1-12.71-2.92-14.58S136,93.41,133.72,99.59Z"/>
			<path class="cls-4" d="M102.78,46.15C64,44.87,63.45,82,64,94.22a148.71,148.71,0,0,0,4.43,28.29c1.08,3.7,3,9.87,5.86,12.56,7.56,7.21,17,13.6,22.76,15.82a19.87,19.87,0,0,0,5.7.57,19.83,19.83,0,0,0,5.7-.57c5.81-2.22,15.21-8.61,22.77-15.82,2.81-2.69,4.77-8.86,5.86-12.56a149.56,149.56,0,0,0,4.42-28.29C142.12,82,141.55,44.87,102.78,46.15Z"/>
			<path class="cls-3" d="M110.32,139.93a9.31,9.31,0,0,1-4.93-2.92,3.3,3.3,0,0,0-4.86,0,9.31,9.31,0,0,1-4.93,2.92c-9.33,1.69-18.41-4-25.21-12.32a26,26,0,0,0,5,8.36c7.57,7.21,16.26,12.95,22.07,15.16a19.83,19.83,0,0,0,5.7.57,19.87,19.87,0,0,0,5.7-.57c5.81-2.21,14-8.32,21.59-15.53,1.77-1.69,3-4.45,4.08-7.4C127.71,136.54,119.65,141.62,110.32,139.93Z"/>
			<path class="cls-5" d="M139,90.79c-1.19-1.22-5.91-1.83-14-1.83-2.27,0-4.09.05-4.59.06-.88,0-1.77.08-2.65.14a55,55,0,0,0-9.29,1.22,32.32,32.32,0,0,1-5.89,1.09h-.28a29.7,29.7,0,0,1-6.12-1.09,54.86,54.86,0,0,0-9.29-1.22c-.88-.06-1.76-.1-2.65-.14-.5,0-2.32-.06-4.59-.06-8.12,0-12.84.61-14,1.83a1.09,1.09,0,0,0-.35.82c0,1,.08,2,.14,3v.15a1.81,1.81,0,0,0,.35,1l.06.09a9.26,9.26,0,0,0,.82,1A3.49,3.49,0,0,1,67.41,98l.87,2.23a24.09,24.09,0,0,0,1.42,3,4.87,4.87,0,0,0,2.42,2.13,10.69,10.69,0,0,0,2.11.63,43.66,43.66,0,0,0,8,.74c1.85,0,3.81-.11,6.37-.36s5.58-.53,7.44-2.86a16.36,16.36,0,0,0,2.45-4.51c.2-.52.39-1,.57-1.58l.27-.75a1.57,1.57,0,0,1,1.17-1.1,6.27,6.27,0,0,1,1.55-.19h.34a6.5,6.5,0,0,1,1.86.19,1.57,1.57,0,0,1,1.17,1.1l.26.72c.19.54.37,1.08.58,1.61a16.62,16.62,0,0,0,2.45,4.51c1.87,2.33,5,2.62,7.44,2.86s4.52.36,6.38.36a43.63,43.63,0,0,0,7.94-.74,10.69,10.69,0,0,0,2.11-.63A4.87,4.87,0,0,0,135,103.3a24.09,24.09,0,0,0,1.42-3c.16-.4.32-.8.47-1.2l.41-1a3.32,3.32,0,0,1,.75-1.15,10.19,10.19,0,0,0,.88-1.12,1.81,1.81,0,0,0,.35-1v-.11c.06-1,.12-2,.15-3A1.14,1.14,0,0,0,139,90.79Zm-22.54,14.13c-1-.11-2-.28-2.91-.45a4.91,4.91,0,0,1-3.37-1.88A14,14,0,0,1,108,97.21a10.7,10.7,0,0,1-.23-2.42,3.13,3.13,0,0,1,.2-1.17,2.13,2.13,0,0,1,1.25-1.15,30.66,30.66,0,0,1,8-1.49c2.25-.19,4.62-.28,7-.28,2.11,0,4.28.07,6.44.22a11.93,11.93,0,0,1,4,.9,1.69,1.69,0,0,1,.76,1.47,19.69,19.69,0,0,1-.77,5.71,12.33,12.33,0,0,1-1.86,4.12,4.38,4.38,0,0,1-2.2,1.27,12.83,12.83,0,0,1-1.46.34,32.89,32.89,0,0,1-6.47.61A51.86,51.86,0,0,1,116.49,104.92Zm-44.65-1.8A12.16,12.16,0,0,1,70,99a20.37,20.37,0,0,1-.77-5.71A1.72,1.72,0,0,1,70,91.81a12.17,12.17,0,0,1,4-.89c2.16-.15,4.33-.22,6.44-.22,2.41,0,4.77.09,7,.28a30.66,30.66,0,0,1,8,1.49,2.13,2.13,0,0,1,1.25,1.15,3.36,3.36,0,0,1,.21,1.17,11.28,11.28,0,0,1-.24,2.42,13.81,13.81,0,0,1-2.22,5.38,4.91,4.91,0,0,1-3.37,1.88c-.92.17-1.91.34-2.9.45a52.15,52.15,0,0,1-6.21.42,32.89,32.89,0,0,1-6.47-.61,13.51,13.51,0,0,1-1.47-.34A4.32,4.32,0,0,1,71.84,103.12Z"/>
		</g>
		<circle class="cls-1" cx="102.93" cy="103.14" r="99"/>
		<polyline class="cls-5" points="139.03 90.79 141.46 89.38 141.46 92.81 138.88 95.75"/>
		<polyline class="cls-5" points="66.25 91.7 63.87 90.7 64.03 94.22 65.83 95.84"/>
	</symbol>
	<symbol id="scott" viewBox="0 0 205.73 205.51">
		<defs>
			<style>.cls-1{fill:none;stroke-width:7px;}.cls-1,.cls-3,.cls-4{stroke:#1bc398;stroke-miterlimit:10;}.cls-2{clip-path:url(#clip-path);}.cls-3{fill:#fff;}.cls-3,.cls-4{stroke-width:2px;}.cls-4,.cls-5,.cls-6{fill:#1bc398;}.cls-6{opacity:0.3;}
			</style>
			<clipPath id="clip-path">
				<circle class="cls-1" cx="102.87" cy="102.74" r="99"/>
			</clipPath>
		</defs>
		<title>Scott</title>
		<g class="cls-2">
			<path class="cls-3" d="M169.42,174.13a32.73,32.73,0,0,0-10.15-4.71l-3.87-1,.07,0L125,158.45a6,6,0,0,1-4.26-4.91c-1.24-6.36-1.09-21.66-1.06-24.39a.41.41,0,0,0-.43-.38H86.06a.4.4,0,0,0-.43.38c0,2.7.15,17.69-1.06,24.39a5.94,5.94,0,0,1-4.26,4.91l-30.5,9.91.08,0-4,1.05a31.51,31.51,0,0,0-8.87,3.88c-14,9.12-14.35,24.05-14.93,26.82a.4.4,0,0,0,.43.45H182.73a.39.39,0,0,0,.42-.45C182.59,197.45,182.39,183.3,169.42,174.13Z"/>
			<path class="cls-4" d="M169.42,174.13a32.73,32.73,0,0,0-10.15-4.71l-3.87-1,.07,0-26.23-8.52a75.49,75.49,0,0,1-53.19,0l-26.24,8.52.08,0-4,1.05a31.51,31.51,0,0,0-8.87,3.88c-14,9.12-14.35,24.05-14.93,26.82a.4.4,0,0,0,.43.45H182.73a.39.39,0,0,0,.42-.45C182.59,197.45,182.39,183.3,169.42,174.13Z"/>
			<path class="cls-3" d="M71.33,96.37c2.34,6.29,1,16.13-3,18s-9.1-4.86-11.43-11.15-1-12.94,3-14.84S69,90.07,71.33,96.37Z"/>
			<path class="cls-3" d="M134,96.37c-2.33,6.29-1,16.13,3,18s9.09-4.86,11.43-11.15,1-12.94-3-14.84S136.29,90.07,134,96.37Z"/>
			<path class="cls-3" d="M102.28,40.56c-39.46-1.3-40,36.48-39.45,48.93.43,9.07,2.58,22.26,4.51,28.8,1.1,3.76,3.1,10,6,12.78,7.7,7.35,17.26,13.86,23.17,16.11a20.16,20.16,0,0,0,5.81.58,20.09,20.09,0,0,0,5.8-.58c5.91-2.25,15.47-8.76,23.17-16.11,2.87-2.73,4.87-9,6-12.78,1.92-6.54,4.07-19.73,4.5-28.8C142.32,77,141.73,39.26,102.28,40.56Z"/>
		</g>
		<circle class="cls-1" cx="102.87" cy="102.74" r="99"/>
		<path class="cls-5" d="M142.33,92.54c-.56,1.26-1.12,2.51-1.74,3.92a2.92,2.92,0,0,1-.41-2.64c1-7.46,0-14.88-.44-22.31-.1-1.84.3-3.8-.23-5.49-.7-2.24-2.15-4.24-3.16-6.4a5.71,5.71,0,0,0-4.65-3.69c-1.4-.18-2.17-1.48-3.16-2.39-1.91,2.93-5.14,3.32-8.08,4.11-4.19,1.11-8.51,1-12.8.86-6.32-.26-12.34,1.17-18.35,2.87-3.22.9-6.36,2-9.63,2.78-5.49,1.29-8.76,5.33-11.54,9.93-2.57,4.26-2.88,9.08-3.72,13.78C63.78,91.42,64.1,95,64,99.11l-.49-1.22a46.22,46.22,0,0,1-2.79-10.06c-.44-2.74-.86-5.47-1.2-8.22-.43-3.52-1.09-7.06-.2-10.81-1.19,1-2,.79-2-.64-.06-3.62-.51-7.32,1.58-10.66-.76-.53-1.21.57-2,.29-.28-5.54.41-10.79,4.76-14.89.4-.38.7-.92,1.33-1-.13-.55,2.48-.49.34-1.55-.28-.14.07-.74.23-1.14,1.27-3.16,4.06-4.47,6.87-5.74a18.49,18.49,0,0,1,3-.88c1.1-.28,1.09-.27,1.88-1.52.13-.2.47-.27.71-.4a48.78,48.78,0,0,1,17.24-5c2.84-.35,5.6-1.41,8.56-1.15a24.67,24.67,0,0,1,2.67.34,29.38,29.38,0,0,0,7.79.74c7.71-.46,14.26,2.49,18.53,9.35.36.59.54.7,1.31.75a10.72,10.72,0,0,1,6.12,2.83c4,3.38,7.16,7.41,7.93,12.89-.51.46-.66-.58-1.27-.21a24.15,24.15,0,0,1,3.76,10.09c-.2.32-.47.18-.7,0a6.73,6.73,0,0,1-.65-.52c-.51.49.05.77.16,1.09,2.48,7.51.88,14.65-1.86,21.72C144.35,86.55,143.38,89.56,142.33,92.54Z"/>
		<path class="cls-5" d="M89.1,122.13a107.63,107.63,0,0,1,12.21-.57,16.52,16.52,0,0,0,2,0,96.9,96.9,0,0,1,12.66.66s7.35,2.06,6.46-1.85c-.81-2.94-2.78-3.43-5.64-4.22-4.24-1.18-8.44-1.56-12.68,0a3.46,3.46,0,0,1-1.58.42h0a3.53,3.53,0,0,1-1.58-.42c-4.24-1.61-8.43-1.23-12.68,0-2.85.79-4.88,1.28-5.7,4.22C82.18,124.39,89.1,122.13,89.1,122.13Z"/>
		<path class="cls-6" d="M102.53,148.1h.39a18.7,18.7,0,0,0,4.77-.53c5.81-2.11,15.21-8.16,22.78-15,2.82-2.54,4.78-8.39,5.87-11.89A132.65,132.65,0,0,0,141,96.48l-.52,0c-.33,1-.85,1.28-1.19,2.31-1.16,3.53-2.06,11.39-3.26,14.9-1.45,4.22-4.3,5.86-7.65,6.57a18.15,18.15,0,0,0-5.84,2.33c-1.56,1-4,3.36-4.61,4.72-2.37,5.57-3.63,9.49-8.44,8.07-2.12-.62-4.82-3.73-6.92-3.63h0c-2.1-.1-4.8,3-6.92,3.63-4.81,1.42-6.08-2.5-8.44-8.07-.58-1.36-3-3.75-4.61-4.72a18.2,18.2,0,0,0-5.85-2.33c-3.34-.71-6.2-2.35-7.64-6.57-1.2-3.51-2.41-11.37-3.56-14.9-.34-1-.86-1.27-1.2-2.31l-.51,0a130,130,0,0,0,4.92,24.2c1.08,3.5,3,9.35,5.87,11.89,7.56,6.84,17,12.89,22.78,15a18.67,18.67,0,0,0,4.76.53h.4Z"/>
		<path class="cls-5" d="M102.38,134.93c-4.25.23-5.6-2-5.73-3.84s5.44-2,5.44-2h.58s5.56.12,5.43,2S106.62,135.16,102.38,134.93Z"/>
		<path class="cls-5" d="M140.49,84.51c-2-.35-3.87-.61-5.68-1-8.82-1.9-17.5-2-25.94,1.59a6.22,6.22,0,0,1-2.22.22c-2.57,0-5.14,0-7.7-.07a17,17,0,0,1-3.48-.46c-2.48-.62-4.88-1.54-7.39-2-8-1.58-15.77.4-23.91,1.85a24.92,24.92,0,0,0,.69,3.08c.31.86,1.1,1.61,1.29,2.48.47,2.16.56,4.38,1.08,6.52,1.33,5.48,4.42,9.61,10.59,11s11.74.06,16.14-4.48a23.62,23.62,0,0,0,5.7-10.77,4.69,4.69,0,0,0-.08-2.2,1.88,1.88,0,0,1,1.72-2.58,10.12,10.12,0,0,1,2.46,0,1.88,1.88,0,0,1,1.77,2.67,2.82,2.82,0,0,0-.21,1.44,23.71,23.71,0,0,0,6.24,11.85c4.34,4.25,9.68,5.45,15.67,4.12s9.1-5.11,10.45-10.38c.61-2.38.78-4.85,1.19-7.28.1-.59.13-1.45.54-1.71C141.06,87.32,140.5,85.9,140.49,84.51ZM83.14,106.88c-6.17.6-11.42-2.46-13.52-7.91a17.33,17.33,0,0,1-1.21-9.64,5.57,5.57,0,0,1,4.46-4.79c2.49-.57,5-.88,7.57-1.3a34,34,0,0,1,12,1.89c3.66,1.4,4.87,3.22,4.8,6.88A15.53,15.53,0,0,1,83.14,106.88Zm51.2-5.34c-3.61,5.72-12.63,7.32-19,3.25a15.41,15.41,0,0,1-7.46-13.93,5.73,5.73,0,0,1,3.72-5.36c3.69-1.68,7.64-2.09,12.72-2.25,1.79.24,4.63.49,7.41,1A6,6,0,0,1,137,90,17.88,17.88,0,0,1,134.34,101.54Z"/>
	</symbol>
</svg>