<svg id="Layer_1" data-name="Layer 1" xmlns="http://www.w3.org/2000/svg" xmlns:xlink="http://www.w3.org/1999/xlink" viewBox="0 0 206.84 205.84"><defs><style>.cls-1,.cls-6{fill:none;}.cls-1,.cls-3,.cls-4{stroke:#1bc398;}.cls-1,.cls-3,.cls-4,.cls-6{stroke-miterlimit:10;}.cls-1{stroke-width:7px;}.cls-2{clip-path:url(#clip-path);}.cls-3,.cls-5{fill:#1bc398;}.cls-3,.cls-4,.cls-6{stroke-width:2px;}.cls-4{fill:#fff;}.cls-6{stroke:#fff;}</style><clipPath id="clip-path"><circle class="cls-1" cx="103.46" cy="102.74" r="99"/></clipPath></defs><title>LyfSquad</title><g class="cls-2"><path class="cls-3" d="M131.07,188.47c9.49,1.73,4.88,13.81,12.4,7.62s8.62-91,8.58-102.56c0-12.31,2.21-24-5.57-35.75-9.54-14.38-27.44-17.6-43.64-17.6s-29.13,4.07-42,17.71c-7.81,8.31-9.11,29.77-8,41,1.14,11.54,6.08,91,13.6,97.21s-1.52-5.89,8-7.62Z"/><path class="cls-4" d="M157.94,176.25a26.39,26.39,0,0,0-8.57-4.47l-28.92-9h0c-2.07-.62-3.22-2.53-3.59-4.66-1-6-.92-21.93-.9-24.52a.35.35,0,0,0-.36-.36H90.09a.35.35,0,0,0-.37.36c0,2.56.13,18.17-.89,24.52a5.47,5.47,0,0,1-3.6,4.66h0l-29,9.05a25.29,25.29,0,0,0-7.48,3.67C37,184.14,36.66,198.3,36.17,200.93a.36.36,0,0,0,.36.43H169.15a.36.36,0,0,0,.36-.43C169,198.38,168.87,185,157.94,176.25Z"/><path class="cls-4" d="M157.94,176.25a26.39,26.39,0,0,0-8.57-4.47l-28.92-9h0c-2.07-.62-3.22-2.53-3.59-4.66-1-6-.92-21.93-.9-24.52a.35.35,0,0,0-.36-.36H90.09a.35.35,0,0,0-.37.36c0,2.56.13,18.17-.89,24.52a5.47,5.47,0,0,1-3.6,4.66h0l-29,9.05a25.29,25.29,0,0,0-7.48,3.67C37,184.14,36.66,198.3,36.17,200.93a.36.36,0,0,0,.36.43H169.15a.36.36,0,0,0,.36-.43C169,198.38,168.87,185,157.94,176.25Z"/><path class="cls-4" d="M102.84,46.75c-34.7,18-37.58,39.24-37,51.52.43,8.91,1,18.9,2.92,25.33a20.52,20.52,0,0,0,5.87,9.79c4.7,4.1,13.84,9.37,20,11.77,6.33,2.48,10.87,2.72,16.77-.11,9.42-4.5,15.8-8.78,19.14-12A24,24,0,0,0,136.8,123c1.89-6.43,2.11-16.15,2.53-25.06C139.9,86.06,140.66,65.18,102.84,46.75Z"/><path class="cls-3" d="M142.23,169.56c-1,4.2-4.72,13.16-19.12,17.32-11.18,3.23-17.2,8.78-20.28,12.84-3.09-4.06-9.11-9.58-20.25-12.79-14.45-4.18-18.17-13.18-19.14-17.37l-4,1.26v30.54h86.9V170.82Z"/></g><circle class="cls-1" cx="103.46" cy="102.74" r="99"/><path class="cls-5" d="M102.52,42.34s7,16.18,9.46,18.76c2.93,3.08,7.64,4.53,13.17,8.07,9.86,6.32,12.08,17,13.9,24.83.9,3.92,10.17-14.59,13.36-18.73,0,0,1.56-23.73-23.49-30C109.94,40.44,102.52,42.34,102.52,42.34Z"/><path class="cls-5" d="M52.88,102.74s13.5-1.84,13.85-6.8c.78-10.86,3.7-20.13,12.41-24.44,11.37-5.62,31-5,35.34-8.65,3.91-3.32,13.58-13.27,13-20.12,0,0-28.67-10.07-53.57,1.25C43.15,58,52.88,102.74,52.88,102.74Z"/><path class="cls-5" d="M131.47,90.84l-2.22-.43c-2-.38-4-.92-6.08-1.1a31.82,31.82,0,0,0-8.45.82,40,40,0,0,0-4,.87,2.13,2.13,0,0,1-2.43-.88c-.3-.36-.58-.75-1-1.31l1.45.46c.08-1,.69-1,1.3-1,2.77-.4,5.54-.78,8.29-1.3a12.4,12.4,0,0,1,9,1.34c1.3.77,2.65,1.43,4,2.15a1.43,1.43,0,0,1,.27.23Z"/><path class="cls-5" d="M73.52,91.71c1-.6,1.86-1.26,2.84-1.78,1.47-.77,3-1.47,4.47-2.12,1.87-.8,3.84-.49,5.79-.3,2.92.29,5.83.58,8.74.93.36,0,.7.41,1,.62l0,.32,1.18-.44a2.82,2.82,0,0,1-3.14,2.24c-2.79-.38-5.58-.83-8.37-1.09a19.1,19.1,0,0,0-8.22.77c-1.37.47-2.81.7-4.21,1Z"/><path class="cls-5" d="M109.93,123.61a10.24,10.24,0,0,0-6.82-.34,2.62,2.62,0,0,1-1.52,0,8.49,8.49,0,0,0-6.14.25c-1.81.7-2.12,1.2-5,1.66,5.84,5.73,7.6,6,15.21,5.49,4.88-.32,6.15-2.9,9-5.62C112.68,124.81,111.8,124.23,109.93,123.61ZM94.58,125.7c2.59.23,5.26.67,7.94.66s5.38-.43,8-.67A25.37,25.37,0,0,1,94.58,125.7Z"/><path class="cls-3" d="M159,174.59a26.2,26.2,0,0,0-8.57-4.47l-12.05-3.76c-9.8,11.56-21.68,18.34-34.48,18.34s-24.68-6.78-34.48-18.34L57.3,170.14a25.08,25.08,0,0,0-7.48,3.68c-6.23,4.58-8.64,10.89,7.35,16.45,14.22,4.95,46.73,9.43,46.73,9.43s29.26-5.82,43.75-10.65C163.62,183.73,164.73,179.15,159,174.59Z"/><path class="cls-6" d="M112.81,65.26c2-1.1,8.5-6.93,7.48-17.19C118.42,29.26,91.06,33.7,91.2,33.94"/><path class="cls-5" d="M51.47,90s.18,20.71-2.92,36.39c-5.4,27.38,4.72,37.26.11,54.56-4.37,16.39,26.16,4,26.16,4"/><path class="cls-5" d="M152.41,75.27c1.54,3.47-.52,49.43,2.25,61.19,7.66,32.43,1.56,26.09-1.55,46.57l-15.33,3.19"/></svg>