<?xml version="1.0" encoding="utf-8"?>
<!-- Generator: Adobe Illustrator 16.0.0, SVG Export Plug-In . SVG Version: 6.00 Build 0)  -->
<!DOCTYPE svg PUBLIC "-//W3C//DTD SVG 1.1//EN" "http://www.w3.org/Graphics/SVG/1.1/DTD/svg11.dtd">
<svg version="1.1" id="Layer_1" xmlns="http://www.w3.org/2000/svg" xmlns:xlink="http://www.w3.org/1999/xlink" x="0px" y="0px"
	 width="205.075px" height="204.989px" viewBox="0 0 205.075 204.989" enable-background="new 0 0 205.075 204.989"
	 xml:space="preserve">
<g>
	<g>
		<path fill="#1BC398" stroke="#1BC398" stroke-width="2" stroke-miterlimit="10" d="M130.106,188.229
			c9.492,1.726,3.864,11.225,11.38,5.028s9.642-88.374,9.608-99.973c-0.033-12.304,2.211-24.027-5.569-35.748
			c-9.547-14.382-27.449-17.601-43.643-17.601s-29.129,4.066-41.96,17.712c-7.813,8.31-9.108,29.765-8,40.984
			c1.141,11.543,6.082,91.017,13.596,97.213s-1.52-5.891,7.971-7.616H130.106z"/>
		<path fill="#FFFFFF" stroke="#1BC398" stroke-width="2" stroke-miterlimit="10" d="M156.978,176.011
			c-2.541-2.021-5.471-3.507-8.568-4.473l-28.918-9.017l0,0c-2.072-0.628-3.223-2.533-3.594-4.667
			c-1.043-6.033-0.92-21.932-0.893-24.521c0.002-0.203-0.162-0.359-0.365-0.359H89.126c-0.203,0-0.369,0.156-0.367,0.359
			c0.025,2.563,0.129,18.169-0.893,24.521c-0.344,2.138-1.521,4.039-3.592,4.667l0,0l-28.998,9.041
			c-2.668,0.832-5.229,2.02-7.479,3.676c-11.762,8.654,1.538,9.3,1.05,11.936c-0.041,0.226,0.131,0.43,0.359,0.43l52.675,13.517
			l53.599-13.309c0.23,0,0.402-0.204,0.361-0.43C155.367,184.823,167.909,184.71,156.978,176.011z"/>
		<path fill="#FFFFFF" stroke="#1BC398" stroke-width="2" stroke-miterlimit="10" d="M156.978,176.011
			c-2.541-2.021-5.471-3.507-8.568-4.473l-28.918-9.017l0,0c-2.072-0.628-3.223-2.533-3.594-4.667
			c-1.043-6.033-0.92-21.932-0.893-24.521c0.002-0.203-0.162-0.359-0.365-0.359H89.126c-0.203,0-0.369,0.156-0.367,0.359
			c0.025,2.563,0.129,18.169-0.893,24.521c-0.344,2.138-1.521,4.039-3.592,4.667l0,0l-28.998,9.041
			c-2.668,0.832-5.229,2.02-7.479,3.676c-11.762,8.654,1.538,9.3,1.05,11.936c-0.041,0.226,0.131,0.43,0.359,0.43l52.675,13.517
			l41.767-8.195c0.23,0,13.343-7.534,13.302-7.76C156.476,182.606,167.909,184.71,156.978,176.011z"/>
		<path fill="#FFFFFF" stroke="#1BC398" stroke-width="2" stroke-miterlimit="10" d="M101.882,46.503
			c-34.7,17.959-37.582,39.248-36.998,51.52c0.424,8.91,1.035,18.906,2.922,25.336c1.084,3.692,2.933,7.226,5.861,9.785
			c4.699,4.107,13.842,9.378,19.958,11.776c6.323,2.479,10.862,2.717,16.77-0.108c9.418-4.506,15.796-8.79,19.141-11.998
			c2.806-2.691,5.221-6.407,6.305-10.1c1.887-6.43,2.111-16.151,2.536-25.062C138.938,85.815,139.705,64.935,101.882,46.503z"/>
		<path fill="#1BC398" stroke="#1BC398" stroke-width="2" stroke-miterlimit="10" d="M141.271,169.313
			c-0.975,4.205-4.725,13.169-19.123,17.328c-11.178,3.229-17.199,8.773-20.281,12.837c-3.09-4.06-9.107-9.577-20.25-12.796
			c-14.443-4.172-18.17-13.179-19.131-17.367l-4.057,1.266l3.637,22.566l39.816,7.974l40.215-6.865l3.238-23.675L141.271,169.313z"
			/>
	</g>
	<path fill="#1BC398" d="M102.5,205C45.981,205,0,159.019,0,102.5S45.981,0,102.5,0S205,45.981,205,102.5S159.019,205,102.5,205z
		 M102.5,7C49.841,7,7,49.841,7,102.5S49.841,198,102.5,198s95.5-42.841,95.5-95.5S155.159,7,102.5,7z"/>
	<path fill="#1BC398" d="M51.923,102.5c0,0,13.493-1.841,13.848-6.806c0.776-10.862,3.698-20.131,12.415-24.441
		c11.362-5.618,31.008-4.985,35.333-8.646c3.917-3.315,13.577-13.27,12.999-20.118c0,0-28.665-10.072-53.569,1.247
		C42.192,57.714,51.923,102.5,51.923,102.5z"/>
	<path fill="#1BC398" d="M130.512,90.601c-0.741-0.144-1.482-0.289-2.225-0.43c-2.022-0.384-4.03-0.925-6.072-1.107
		c-2.824-0.254-5.649,0.323-8.459,0.826c-1.355,0.243-2.718,0.48-4.048,0.87c-1.043,0.306-1.771-0.091-2.426-0.878
		c-0.304-0.365-0.581-0.759-1.004-1.314c0.596,0.189,0.985,0.313,1.447,0.461c0.088-1.021,0.696-0.959,1.307-1.047
		c2.766-0.398,5.536-0.778,8.29-1.295c3.164-0.594,6.168-0.35,9,1.339c1.296,0.772,2.644,1.434,3.966,2.15
		c0.101,0.055,0.181,0.155,0.271,0.234C130.543,90.474,130.527,90.537,130.512,90.601z"/>
	<path fill="#1BC398" d="M72.565,91.464c0.943-0.597,1.858-1.262,2.839-1.775c1.464-0.768,2.956-1.475,4.467-2.122
		c1.868-0.801,3.843-0.489,5.794-0.297c2.914,0.288,5.828,0.58,8.739,0.924c0.358,0.043,0.698,0.411,1.047,0.628
		c-0.019,0.106-0.036,0.213-0.055,0.319c0.396-0.147,0.791-0.295,1.186-0.442c-0.534,1.631-1.692,2.441-3.146,2.241
		c-2.787-0.384-5.573-0.834-8.366-1.098c-2.78-0.263-5.539-0.15-8.221,0.773c-1.366,0.47-2.805,0.696-4.211,1.033
		C72.614,91.587,72.59,91.525,72.565,91.464z"/>
	<path fill="#1BC398" d="M108.973,123.365c-2.277-0.762-4.462-1.138-6.819-0.339c-0.439,0.148-1.087,0.135-1.527-0.021
		c-2.113-0.747-4.131-0.529-6.138,0.249c-1.807,0.7-2.114,1.205-5.017,1.662c5.84,5.729,7.596,5.982,15.213,5.488
		c4.877-0.317,6.146-2.897,8.967-5.615C111.717,124.57,110.839,123.989,108.973,123.365z M93.625,125.457
		c2.589,0.234,5.261,0.666,7.932,0.664c2.691-0.002,5.383-0.435,8.012-0.673C104.242,127.131,98.88,127.203,93.625,125.457z"/>
	<g>
		<path fill="#1BC398" stroke="#1BC398" stroke-width="2" stroke-miterlimit="10" d="M158.037,174.348
			c-2.541-2.021-5.47-3.507-8.569-4.473l-12.046-3.757c-9.803,11.556-21.677,18.335-34.479,18.335
			c-12.804,0-24.678-6.779-34.48-18.335l-12.126,3.781c-2.667,0.832-5.229,2.02-7.479,3.676c-6.224,4.579-8.633,10.896,7.351,16.454
			c14.221,4.944,46.734,9.428,46.734,9.428s29.258-5.82,43.748-10.65C162.661,183.482,163.769,178.909,158.037,174.348z"/>
	</g>
	<path fill="#1BC398" d="M50.514,89.71c0,0,0.172,20.706-2.922,36.383c-5.404,27.381,4.719,37.264,0.108,54.566
		c-4.367,16.391,26.162,3.99,26.162,3.99"/>
	<g>
		<path fill="#1BC398" d="M127.956,44.982c-18.976-4.786-26.395-2.882-26.395-2.882s7.003,16.172,9.463,18.761
			c2.924,3.076,7.636,4.524,13.163,8.063c9.865,6.318,12.082,16.96,13.898,24.834c0.905,3.922,10.174-14.588,13.37-18.737
			C151.456,75.021,153.007,51.301,127.956,44.982z"/>
		<path fill="#1BC398" d="M153.705,136.216c-2.776-11.756-0.717-57.717-2.249-61.194l-14.633,110.958l15.331-3.192
			C155.258,162.304,161.362,168.649,153.705,136.216z"/>
	</g>
	<g>
		<g>
			<path fill="#FFFFFF" d="M111.823,65.657c8.811-4.676,11.153-17.945,6.034-26.059c-0.686-1.087-2.417-0.085-1.727,1.01
				c4.561,7.228,2.557,19.144-5.317,23.322C109.674,64.535,110.685,66.262,111.823,65.657L111.823,65.657z"/>
		</g>
	</g>
</g>
<g>
</g>
<g>
</g>
<g>
</g>
<g>
</g>
<g>
</g>
<g>
</g>
</svg>
