<svg id="Layer_1" data-name="Layer 1" xmlns="http://www.w3.org/2000/svg" xmlns:xlink="http://www.w3.org/1999/xlink" viewBox="0 0 205.18 205.18"><defs><style>.cls-1{fill:none;stroke-width:7px;}.cls-1,.cls-3,.cls-4,.cls-6{stroke:#1bc398;stroke-miterlimit:10;}.cls-2{clip-path:url(#clip-path);}.cls-3{fill:#fff;}.cls-3,.cls-4{stroke-width:2px;}.cls-4,.cls-5,.cls-6{fill:#1bc398;}</style><clipPath id="clip-path"><circle class="cls-1" cx="102.61" cy="102.62" r="99"/></clipPath></defs><title>LyfSquad</title><g class="cls-2"><path class="cls-3" d="M169.17,174A32.7,32.7,0,0,0,159,169.3l-3.87-1,.08,0-30.49-9.91a6,6,0,0,1-4.26-4.92c-1.24-6.36-1.1-21.65-1.06-24.38a.41.41,0,0,0-.44-.38H85.8a.4.4,0,0,0-.43.38c0,2.7.15,17.69-1.06,24.38a5.93,5.93,0,0,1-4.26,4.92l-30.49,9.91.08,0-4,1.06a31.9,31.9,0,0,0-8.87,3.87C22.86,182.32,22.46,197.25,21.88,200a.4.4,0,0,0,.43.45H182.47a.4.4,0,0,0,.43-.45C182.34,197.33,182.13,183.18,169.17,174Z"/><path class="cls-4" d="M169.17,174A32.7,32.7,0,0,0,159,169.3l-3.87-1,.08,0L129,159.72a75.37,75.37,0,0,1-53.2,0l-26.23,8.53.08,0-4,1.06a31.9,31.9,0,0,0-8.87,3.87C22.86,182.32,22.46,197.25,21.88,200a.4.4,0,0,0,.43.45H182.47a.4.4,0,0,0,.43-.45C182.34,197.33,182.13,183.18,169.17,174Z"/><path class="cls-3" d="M71.08,96.25c2.34,6.3,1,16.13-3,18s-9.1-4.85-11.44-11.15-1-12.93,3-14.83S68.74,90,71.08,96.25Z"/><path class="cls-3" d="M133.7,96.25c-2.34,6.3-1,16.13,3,18s9.1-4.85,11.44-11.15,1-12.93-3-14.83S136,90,133.7,96.25Z"/><path class="cls-3" d="M102,40.45C62.56,39.14,62,76.93,62.57,89.38c.44,9.07,2.59,22.25,4.51,28.8,1.1,3.76,3.1,10,6,12.78,7.69,7.34,17.26,13.85,23.17,16.11a19.8,19.8,0,0,0,5.8.57,19.88,19.88,0,0,0,5.81-.57c5.91-2.26,15.47-8.77,23.17-16.11,2.86-2.73,4.86-9,6-12.78a152,152,0,0,0,4.51-28.8C142.06,76.93,141.48,39.14,102,40.45Z"/><path class="cls-5" d="M148.19,68.3C148,63.9,141.76,53,141.76,53s-3.27-8.59-6.36-12.62-8.57-5.29-8.57-5.29,1.55,2.55.19,2.71-2.2-1.67-2.2-1.67c.09.76-.66,2.1-1.94,1.67-1.07-.35.7-3,.7-3a7,7,0,0,1-3.26.15c1.59-.15,2.74-2,2.74-2-2.82,1-10.5.3-10.5.3a14.3,14.3,0,0,0,3.7-2.82c-2.38,1.6-8.2,2.74-8.2,2.74a2.84,2.84,0,0,0,1.68-2c-1.33,1.44-6,1.82-6,1.82a2,2,0,0,0,.7-2.13c-.7,2.13-6.34,2.77-6.7,2.66s1.76-1.67,1.76-1.67a47,47,0,0,0-7,2.59c-.08-.61,1.59-2.13,1.59-2.13a14.76,14.76,0,0,0-7.94,4.86c-.35-1.52,4.24-4.86,4.24-4.86-11.52,1.7-15.18,9.72-15.18,9.72-.7-1.82,2.83-5.77,2.83-5.77-5.3,1.82-10.94,8.51-10.94,8.51a23.64,23.64,0,0,0,0-5.47,26.19,26.19,0,0,1-5.29,10C57,55,60.07,62.3,60.07,62.3c-4.25,1.13-4.63,8-4.85,11.41a41,41,0,0,0,.07,8.93c.73,4.55,2.05,6.78,4.57,10.56,2.81,4.2,5.21-4.2,5.1-6.34a59.3,59.3,0,0,1-.19-8.94c.87-8.46,6.89-12.57,15.15-12.81,4.5-.13,17.73,8,33.08,3.57,11.37-3.27,18.85-4.8,24.61,3,2.36,3.18.78,7.67-.31,11.7a.11.11,0,0,1,0,0c.26,2.29.08,4.78,1.55,6.69a2.67,2.67,0,0,1,.5,2.06,3.5,3.5,0,0,0,3.29,0C147.93,89.22,148.32,71.55,148.19,68.3Z"/></g><circle class="cls-1" cx="102.61" cy="102.62" r="99"/><path class="cls-6" d="M141,86.7s0-.07,0-.09a.33.33,0,0,0-.19-.23h0l-.05,0c-3.3-1.45-17.18-2.23-24.67-1.29s-12,3.24-14.5,3.32c-2.5-.07-7-2.31-14.54-3.22s-21.36,0-24.66,1.46l0,0h0a.34.34,0,0,0-.19.23V87c0,.5-.14,2.68-.1,3.92a1.09,1.09,0,0,1,0,.18,1,1,0,0,0,.59.79h0c.65.28,1.81,1.49,3,7.4.54,3,1.21,9.18,6.52,11,2.42.84,14.12,2.52,20.06-3,1.25-1.15,2.6-3.68,3.73-6.28.67-1.76,2.44-6.82,2.71-7.59a2.63,2.63,0,0,1,2.59-2.21h.57a2.62,2.62,0,0,1,2.6,2.19c.28.77,2.08,5.82,2.76,7.58,1.15,2.58,2.52,5.1,3.78,6.25,6,5.44,17.66,3.68,20.07,2.83,5.31-1.92,5.93-8.14,6.45-11.1,1.16-5.92,2.3-7.13,3-7.41,0,0,0,0,0,0a1,1,0,0,0,.59-.78v-.19C141.1,89.38,141,87.2,141,86.7Z"/></svg>