<svg id="Layer_1" data-name="Layer 1" xmlns="http://www.w3.org/2000/svg" xmlns:xlink="http://www.w3.org/1999/xlink" viewBox="0 0 206.18 206.15"><defs><style>.cls-1{fill:none;stroke-width:7px;}.cls-1,.cls-3,.cls-6{stroke:#1bc398;}.cls-1,.cls-3,.cls-6,.cls-7{stroke-miterlimit:10;}.cls-2{clip-path:url(#clip-path);}.cls-3{fill:#fff;}.cls-3,.cls-6{stroke-width:2px;}.cls-4,.cls-5,.cls-6,.cls-7,.cls-8{fill:#1bc398;}.cls-5{opacity:0.3;}.cls-7,.cls-8{stroke:#fff;stroke-width:1.5px;}.cls-8{stroke-linejoin:round;}</style><clipPath id="clip-path"><circle class="cls-1" cx="102.92" cy="102.91" r="99"/></clipPath></defs><title>LyfSquad</title><g class="cls-2"><path class="cls-3" d="M165.52,176.14a32.2,32.2,0,0,0-10-4.63l-3.8-1,.08,0-30-9.74a5.87,5.87,0,0,1-4.18-4.83c-1.22-6.25-1.08-21.28-1-24a.4.4,0,0,0-.43-.37H83.63a.4.4,0,0,0-.43.37c0,2.66.15,17.38-1,24A5.83,5.83,0,0,1,78,160.74l-30,9.74.08,0-3.9,1a31.37,31.37,0,0,0-8.71,3.81c-13.7,9-14.09,23.63-14.66,26.35a.39.39,0,0,0,.42.45H178.59a.4.4,0,0,0,.42-.45C178.46,199,178.25,185.15,165.52,176.14Z"/></g><circle class="cls-1" cx="102.92" cy="102.91" r="99"/><path class="cls-3" d="M71.28,101.35c2.2,6.47,1,16.59-2.79,18.54s-8.56-5-10.76-11.47-.95-13.3,2.8-15.25S69.09,94.88,71.28,101.35Z"/><path class="cls-3" d="M130.18,101.35c-2.19,6.47-.94,16.59,2.8,18.54s8.56-5,10.76-11.47.94-13.3-2.8-15.25S132.38,94.88,130.18,101.35Z"/><path class="cls-3" d="M100.39,44C63.27,42.62,62.73,81.48,63.28,94.28a170,170,0,0,0,4.24,29.62c1,3.86,2.92,10.33,5.61,13.14,7.24,7.55,16.24,14.24,21.8,16.56a17.19,17.19,0,0,0,5.46.59,17.19,17.19,0,0,0,5.46-.59c5.56-2.32,14.55-9,21.79-16.56,2.7-2.81,4.58-9.28,5.62-13.14a171,171,0,0,0,4.24-29.62C138.05,81.48,137.5,42.62,100.39,44Z"/><path class="cls-4" d="M135.32,83c-1-11.92-2.88-18.88-5.89-23.51-3.46-5.32-8.5-6.78-19.35-3.76s-13.69-4.2-20.93-3.86S71.47,58.48,68.34,63.77c-3.52,6-4.17,22.09-4.06,26.94l-.39-.5c-.47-1.83-1.54-5.63-2.08-8.38-1.73-8.84-3.5-20.24-3.5-20.24S57,63.71,57,55.26,75.6,20.84,101.56,20.84,126.49,38.5,126.49,38.5c13,.45,15.74,13.45,16.37,24.1a44,44,0,0,1-3,18.56c-1.23,2.93-1.7,7.24-2.79,9.44A69.92,69.92,0,0,1,135.32,83Z"/><path class="cls-4" d="M68.07,91.49l3.22-2.87-.21-.23h-1l-.14-.2q1.8-1.38,3.59-2.77c2.21-1.76,4.76-1.48,7.26-1.1A50,50,0,0,1,91.23,87.1c.31.12.63.19.94.29a1.24,1.24,0,0,1,.53,2.19,3.4,3.4,0,0,1-3,1A47.15,47.15,0,0,0,77,89.83a36.62,36.62,0,0,0-7.47,1.56c-.43.13-.88.2-1.32.3Z"/><path class="cls-4" d="M129.64,88.37h-1l-.2.22,3.28,2.79-.23.32a11.28,11.28,0,0,1-1.31-.28,36.14,36.14,0,0,0-15-1.58c-1.86.16-3.7.48-5.54.76a3.74,3.74,0,0,1-3-1.77,1,1,0,0,1,.62-1.39c1.88-.61,3.72-1.33,5.63-1.79,2.58-.63,5.2-1.09,7.82-1.53a7.34,7.34,0,0,1,6,1.71c1,.79,2,1.56,2.94,2.34Z"/><path class="cls-5" d="M135.3,102.91a18.46,18.46,0,0,0-.93,3.11,64.79,64.79,0,0,1-2.47,12.57c-1.59,5-4.46,6.3-7.9,8-2.68,1.35-6.56-2-8.85-3.84-4.77-3.85-6.38-.66-13.35-.41H99.66c-6.53.21-9.71-3.47-14.51.41-2.3,1.85-4.06,4.42-7.05,3.91-3.89-.65-7.07-1.61-8.66-6.56-1.12-3.51-2.25-11.38-3.33-14.91-.32-1-.81-1.27-1.12-2.31l-.48,0a143.2,143.2,0,0,0,4,24.22c1,3.5,2.86,9.36,5.49,11.9,7.09,6.84,15.89,12.9,21.34,15a15.63,15.63,0,0,0,4.46.53h.74a15.68,15.68,0,0,0,4.46-.53c5.44-2.11,14.24-8.17,21.33-15,2.64-2.54,4.48-8.4,5.49-11.9a143.12,143.12,0,0,0,4-24.22Zm-28.05,38.17c-2-.62-5.14-3-7.1-2.87-2-.1-4.5,3-6.48,3.63-4.51,1.42-6.57-3.6-8.39-9.51a2.89,2.89,0,0,1,1.79-3.6,40.44,40.44,0,0,1,12.79-2,54.35,54.35,0,0,1,14.58,2,2.87,2.87,0,0,1,1.86,3.7C114.34,138.13,111.72,142.49,107.25,141.08Z"/><path class="cls-6" d="M164.46,175.43c-2.75-1.87-9.49-3.52-12.85-4.42l-3.54-.9.07,0-23.21-7.59c.1,3-.2,9.17-2.81,11.81-1.57,1.59-6.66,5.1-8.4,6.85-2.82,2.83-4.65,3.38-6.35,5.62-2.58,3.41-6,9.78-8.09,8.33-1-.69-7.92-9-8.83-11.16-1-2.5-6.72-6.16-7.74-7.35-6.29-7.32-2.54-9.65-7.24-14l-24,7.46.07,0-3.63.93a29.3,29.3,0,0,0-8.11,3.39C27,182.41,67.55,193.66,67,196.09c0,.2.14.39.39.39l32.39,1.81,38.28-1.14a.36.36,0,0,0,.39-.39C138,194.4,176.32,183.45,164.46,175.43Z"/><path class="cls-7" d="M121.33,178.39s-4.28,1.9-8,13.54c-.75,2.3-1.35,4.24-1.84,5.87"/><path class="cls-7" d="M113.06,178.94a27.5,27.5,0,0,0-3.72,3.24A54.31,54.31,0,0,0,102,191a71.7,71.7,0,0,0-3.71,7.31"/><path class="cls-7" d="M77.92,178s2.51,1.86,2.9,3.22,2.46,4.12,3.5,6.62c.64,1.54,2.26,5.63,3.43,9.15"/><path class="cls-7" d="M84.76,178s3.64.81,4.29,2.1S99,191,99.87,194.82"/><path class="cls-7" d="M89.31,184.51s-3.18-.41-2.21,2.93c.93,3.18,4.3,1.05,4-1S89.31,184.51,89.31,184.51Z"/><path class="cls-8" d="M119.88,156.5a21.85,21.85,0,0,1,.6,9.16c-.78,4.9-1.81,9-3.37,9.39a6.12,6.12,0,0,0-4,3.89s2.89-3.34,8.27-.55,5.13,14.13,7,10.67c.89-1.68,5.07-11.89,2.83-18.43-2-5.82-3.44-8.35-5.71-10.43s-4.14-4.13-6-4.61Z"/><path class="cls-8" d="M80.17,155.86A37.6,37.6,0,0,0,89,179.68a17.74,17.74,0,0,0-13.5-1.09c-7.13,2.52-5.38,8.24-6.87,8.3s-.62-7.07-.45-11.29c.19-4.69,1.19-7.94,2.53-9.91C72.4,163.21,76.8,156.61,80.17,155.86Z"/></svg>