<svg id="Layer_1" data-name="Layer 1" xmlns="http://www.w3.org/2000/svg" xmlns:xlink="http://www.w3.org/1999/xlink" viewBox="0 0 205.92 206.43"><defs><style>.cls-1{fill:none;stroke-width:7px;}.cls-1,.cls-3,.cls-4{stroke:#1bc398;stroke-miterlimit:10;}.cls-2{clip-path:url(#clip-path);}.cls-3,.cls-5{fill:#1bc398;}.cls-3,.cls-4{stroke-width:2px;}.cls-4{fill:#fff;}</style><clipPath id="clip-path"><circle class="cls-1" cx="102.93" cy="103.14" r="99"/></clipPath></defs><title>LyfSquad</title><g class="cls-2"><path class="cls-3" d="M168.56,176a32.2,32.2,0,0,0-10-4.63l-3.8-1,.08,0-27-8.77h0a37.43,37.43,0,0,1-49.84,0h0l-27,8.77.08,0-3.9,1a31.5,31.5,0,0,0-8.71,3.81c-13.7,9-14.09,23.62-14.66,26.35a.39.39,0,0,0,.42.45H181.63a.39.39,0,0,0,.42-.45C181.5,198.88,181.3,185,168.56,176Z"/><path class="cls-4" d="M127.88,161.55l-3-1a5.87,5.87,0,0,1-4.18-4.83c-1.22-6.25-1.08-21.27-1-24a.4.4,0,0,0-.43-.37H86.67a.4.4,0,0,0-.43.37c0,2.66.15,17.38-1,24A5.83,5.83,0,0,1,81,160.58l-3,1h0a37.43,37.43,0,0,0,49.84,0Z"/><path class="cls-4" d="M72.2,99.59c2.3,6.18,1,15.84-2.92,17.71s-8.94-4.77-11.23-11-1-12.71,2.92-14.58S69.91,93.41,72.2,99.59Z"/><path class="cls-4" d="M133.72,99.59c-2.3,6.18-1,15.84,2.92,17.71s8.93-4.77,11.23-11,1-12.71-2.92-14.58S136,93.41,133.72,99.59Z"/><path class="cls-4" d="M102.78,46.15C64,44.87,63.45,82,64,94.22a148.71,148.71,0,0,0,4.43,28.29c1.08,3.7,3,9.87,5.86,12.56,7.56,7.21,17,13.6,22.76,15.82a19.87,19.87,0,0,0,5.7.57,19.83,19.83,0,0,0,5.7-.57c5.81-2.22,15.21-8.61,22.77-15.82,2.81-2.69,4.77-8.86,5.86-12.56a149.56,149.56,0,0,0,4.42-28.29C142.12,82,141.55,44.87,102.78,46.15Z"/><path class="cls-3" d="M110.32,139.93a9.31,9.31,0,0,1-4.93-2.92,3.3,3.3,0,0,0-4.86,0,9.31,9.31,0,0,1-4.93,2.92c-9.33,1.69-18.41-4-25.21-12.32a26,26,0,0,0,5,8.36c7.57,7.21,16.26,12.95,22.07,15.16a19.83,19.83,0,0,0,5.7.57,19.87,19.87,0,0,0,5.7-.57c5.81-2.21,14-8.32,21.59-15.53,1.77-1.69,3-4.45,4.08-7.4C127.71,136.54,119.65,141.62,110.32,139.93Z"/><path class="cls-5" d="M139,90.79c-1.19-1.22-5.91-1.83-14-1.83-2.27,0-4.09.05-4.59.06-.88,0-1.77.08-2.65.14a55,55,0,0,0-9.29,1.22,32.32,32.32,0,0,1-5.89,1.09h-.28a29.7,29.7,0,0,1-6.12-1.09,54.86,54.86,0,0,0-9.29-1.22c-.88-.06-1.76-.1-2.65-.14-.5,0-2.32-.06-4.59-.06-8.12,0-12.84.61-14,1.83a1.09,1.09,0,0,0-.35.82c0,1,.08,2,.14,3v.15a1.81,1.81,0,0,0,.35,1l.06.09a9.26,9.26,0,0,0,.82,1A3.49,3.49,0,0,1,67.41,98l.87,2.23a24.09,24.09,0,0,0,1.42,3,4.87,4.87,0,0,0,2.42,2.13,10.69,10.69,0,0,0,2.11.63,43.66,43.66,0,0,0,8,.74c1.85,0,3.81-.11,6.37-.36s5.58-.53,7.44-2.86a16.36,16.36,0,0,0,2.45-4.51c.2-.52.39-1,.57-1.58l.27-.75a1.57,1.57,0,0,1,1.17-1.1,6.27,6.27,0,0,1,1.55-.19h.34a6.5,6.5,0,0,1,1.86.19,1.57,1.57,0,0,1,1.17,1.1l.26.72c.19.54.37,1.08.58,1.61a16.62,16.62,0,0,0,2.45,4.51c1.87,2.33,5,2.62,7.44,2.86s4.52.36,6.38.36a43.63,43.63,0,0,0,7.94-.74,10.69,10.69,0,0,0,2.11-.63A4.87,4.87,0,0,0,135,103.3a24.09,24.09,0,0,0,1.42-3c.16-.4.32-.8.47-1.2l.41-1a3.32,3.32,0,0,1,.75-1.15,10.19,10.19,0,0,0,.88-1.12,1.81,1.81,0,0,0,.35-1v-.11c.06-1,.12-2,.15-3A1.14,1.14,0,0,0,139,90.79Zm-22.54,14.13c-1-.11-2-.28-2.91-.45a4.91,4.91,0,0,1-3.37-1.88A14,14,0,0,1,108,97.21a10.7,10.7,0,0,1-.23-2.42,3.13,3.13,0,0,1,.2-1.17,2.13,2.13,0,0,1,1.25-1.15,30.66,30.66,0,0,1,8-1.49c2.25-.19,4.62-.28,7-.28,2.11,0,4.28.07,6.44.22a11.93,11.93,0,0,1,4,.9,1.69,1.69,0,0,1,.76,1.47,19.69,19.69,0,0,1-.77,5.71,12.33,12.33,0,0,1-1.86,4.12,4.38,4.38,0,0,1-2.2,1.27,12.83,12.83,0,0,1-1.46.34,32.89,32.89,0,0,1-6.47.61A51.86,51.86,0,0,1,116.49,104.92Zm-44.65-1.8A12.16,12.16,0,0,1,70,99a20.37,20.37,0,0,1-.77-5.71A1.72,1.72,0,0,1,70,91.81a12.17,12.17,0,0,1,4-.89c2.16-.15,4.33-.22,6.44-.22,2.41,0,4.77.09,7,.28a30.66,30.66,0,0,1,8,1.49,2.13,2.13,0,0,1,1.25,1.15,3.36,3.36,0,0,1,.21,1.17,11.28,11.28,0,0,1-.24,2.42,13.81,13.81,0,0,1-2.22,5.38,4.91,4.91,0,0,1-3.37,1.88c-.92.17-1.91.34-2.9.45a52.15,52.15,0,0,1-6.21.42,32.89,32.89,0,0,1-6.47-.61,13.51,13.51,0,0,1-1.47-.34A4.32,4.32,0,0,1,71.84,103.12Z"/></g><circle class="cls-1" cx="102.93" cy="103.14" r="99"/><polyline class="cls-5" points="139.03 90.79 141.46 89.38 141.46 92.81 138.88 95.75"/><polyline class="cls-5" points="66.25 91.7 63.87 90.7 64.03 94.22 65.83 95.84"/></svg>