<svg id="Layer_1" data-name="Layer 1" xmlns="http://www.w3.org/2000/svg" xmlns:xlink="http://www.w3.org/1999/xlink" viewBox="0 0 205.73 205.51"><defs><style>.cls-1{fill:none;stroke-width:7px;}.cls-1,.cls-3,.cls-4{stroke:#1bc398;stroke-miterlimit:10;}.cls-2{clip-path:url(#clip-path);}.cls-3{fill:#fff;}.cls-3,.cls-4{stroke-width:2px;}.cls-4,.cls-5,.cls-6{fill:#1bc398;}.cls-6{opacity:0.3;}</style><clipPath id="clip-path"><circle class="cls-1" cx="102.87" cy="102.74" r="99"/></clipPath></defs><title>LyfSquad</title><g class="cls-2"><path class="cls-3" d="M169.42,174.13a32.73,32.73,0,0,0-10.15-4.71l-3.87-1,.07,0L125,158.45a6,6,0,0,1-4.26-4.91c-1.24-6.36-1.09-21.66-1.06-24.39a.41.41,0,0,0-.43-.38H86.06a.4.4,0,0,0-.43.38c0,2.7.15,17.69-1.06,24.39a5.94,5.94,0,0,1-4.26,4.91l-30.5,9.91.08,0-4,1.05a31.51,31.51,0,0,0-8.87,3.88c-14,9.12-14.35,24.05-14.93,26.82a.4.4,0,0,0,.43.45H182.73a.39.39,0,0,0,.42-.45C182.59,197.45,182.39,183.3,169.42,174.13Z"/><path class="cls-4" d="M169.42,174.13a32.73,32.73,0,0,0-10.15-4.71l-3.87-1,.07,0-26.23-8.52a75.49,75.49,0,0,1-53.19,0l-26.24,8.52.08,0-4,1.05a31.51,31.51,0,0,0-8.87,3.88c-14,9.12-14.35,24.05-14.93,26.82a.4.4,0,0,0,.43.45H182.73a.39.39,0,0,0,.42-.45C182.59,197.45,182.39,183.3,169.42,174.13Z"/><path class="cls-3" d="M71.33,96.37c2.34,6.29,1,16.13-3,18s-9.1-4.86-11.43-11.15-1-12.94,3-14.84S69,90.07,71.33,96.37Z"/><path class="cls-3" d="M134,96.37c-2.33,6.29-1,16.13,3,18s9.09-4.86,11.43-11.15,1-12.94-3-14.84S136.29,90.07,134,96.37Z"/><path class="cls-3" d="M102.28,40.56c-39.46-1.3-40,36.48-39.45,48.93.43,9.07,2.58,22.26,4.51,28.8,1.1,3.76,3.1,10,6,12.78,7.7,7.35,17.26,13.86,23.17,16.11a20.16,20.16,0,0,0,5.81.58,20.09,20.09,0,0,0,5.8-.58c5.91-2.25,15.47-8.76,23.17-16.11,2.87-2.73,4.87-9,6-12.78,1.92-6.54,4.07-19.73,4.5-28.8C142.32,77,141.73,39.26,102.28,40.56Z"/></g><circle class="cls-1" cx="102.87" cy="102.74" r="99"/><path class="cls-5" d="M142.33,92.54c-.56,1.26-1.12,2.51-1.74,3.92a2.92,2.92,0,0,1-.41-2.64c1-7.46,0-14.88-.44-22.31-.1-1.84.3-3.8-.23-5.49-.7-2.24-2.15-4.24-3.16-6.4a5.71,5.71,0,0,0-4.65-3.69c-1.4-.18-2.17-1.48-3.16-2.39-1.91,2.93-5.14,3.32-8.08,4.11-4.19,1.11-8.51,1-12.8.86-6.32-.26-12.34,1.17-18.35,2.87-3.22.9-6.36,2-9.63,2.78-5.49,1.29-8.76,5.33-11.54,9.93-2.57,4.26-2.88,9.08-3.72,13.78C63.78,91.42,64.1,95,64,99.11l-.49-1.22a46.22,46.22,0,0,1-2.79-10.06c-.44-2.74-.86-5.47-1.2-8.22-.43-3.52-1.09-7.06-.2-10.81-1.19,1-2,.79-2-.64-.06-3.62-.51-7.32,1.58-10.66-.76-.53-1.21.57-2,.29-.28-5.54.41-10.79,4.76-14.89.4-.38.7-.92,1.33-1-.13-.55,2.48-.49.34-1.55-.28-.14.07-.74.23-1.14,1.27-3.16,4.06-4.47,6.87-5.74a18.49,18.49,0,0,1,3-.88c1.1-.28,1.09-.27,1.88-1.52.13-.2.47-.27.71-.4a48.78,48.78,0,0,1,17.24-5c2.84-.35,5.6-1.41,8.56-1.15a24.67,24.67,0,0,1,2.67.34,29.38,29.38,0,0,0,7.79.74c7.71-.46,14.26,2.49,18.53,9.35.36.59.54.7,1.31.75a10.72,10.72,0,0,1,6.12,2.83c4,3.38,7.16,7.41,7.93,12.89-.51.46-.66-.58-1.27-.21a24.15,24.15,0,0,1,3.76,10.09c-.2.32-.47.18-.7,0a6.73,6.73,0,0,1-.65-.52c-.51.49.05.77.16,1.09,2.48,7.51.88,14.65-1.86,21.72C144.35,86.55,143.38,89.56,142.33,92.54Z"/><path class="cls-5" d="M89.1,122.13a107.63,107.63,0,0,1,12.21-.57,16.52,16.52,0,0,0,2,0,96.9,96.9,0,0,1,12.66.66s7.35,2.06,6.46-1.85c-.81-2.94-2.78-3.43-5.64-4.22-4.24-1.18-8.44-1.56-12.68,0a3.46,3.46,0,0,1-1.58.42h0a3.53,3.53,0,0,1-1.58-.42c-4.24-1.61-8.43-1.23-12.68,0-2.85.79-4.88,1.28-5.7,4.22C82.18,124.39,89.1,122.13,89.1,122.13Z"/><path class="cls-6" d="M102.53,148.1h.39a18.7,18.7,0,0,0,4.77-.53c5.81-2.11,15.21-8.16,22.78-15,2.82-2.54,4.78-8.39,5.87-11.89A132.65,132.65,0,0,0,141,96.48l-.52,0c-.33,1-.85,1.28-1.19,2.31-1.16,3.53-2.06,11.39-3.26,14.9-1.45,4.22-4.3,5.86-7.65,6.57a18.15,18.15,0,0,0-5.84,2.33c-1.56,1-4,3.36-4.61,4.72-2.37,5.57-3.63,9.49-8.44,8.07-2.12-.62-4.82-3.73-6.92-3.63h0c-2.1-.1-4.8,3-6.92,3.63-4.81,1.42-6.08-2.5-8.44-8.07-.58-1.36-3-3.75-4.61-4.72a18.2,18.2,0,0,0-5.85-2.33c-3.34-.71-6.2-2.35-7.64-6.57-1.2-3.51-2.41-11.37-3.56-14.9-.34-1-.86-1.27-1.2-2.31l-.51,0a130,130,0,0,0,4.92,24.2c1.08,3.5,3,9.35,5.87,11.89,7.56,6.84,17,12.89,22.78,15a18.67,18.67,0,0,0,4.76.53h.4Z"/><path class="cls-5" d="M102.38,134.93c-4.25.23-5.6-2-5.73-3.84s5.44-2,5.44-2h.58s5.56.12,5.43,2S106.62,135.16,102.38,134.93Z"/><path class="cls-5" d="M140.49,84.51c-2-.35-3.87-.61-5.68-1-8.82-1.9-17.5-2-25.94,1.59a6.22,6.22,0,0,1-2.22.22c-2.57,0-5.14,0-7.7-.07a17,17,0,0,1-3.48-.46c-2.48-.62-4.88-1.54-7.39-2-8-1.58-15.77.4-23.91,1.85a24.92,24.92,0,0,0,.69,3.08c.31.86,1.1,1.61,1.29,2.48.47,2.16.56,4.38,1.08,6.52,1.33,5.48,4.42,9.61,10.59,11s11.74.06,16.14-4.48a23.62,23.62,0,0,0,5.7-10.77,4.69,4.69,0,0,0-.08-2.2,1.88,1.88,0,0,1,1.72-2.58,10.12,10.12,0,0,1,2.46,0,1.88,1.88,0,0,1,1.77,2.67,2.82,2.82,0,0,0-.21,1.44,23.71,23.71,0,0,0,6.24,11.85c4.34,4.25,9.68,5.45,15.67,4.12s9.1-5.11,10.45-10.38c.61-2.38.78-4.85,1.19-7.28.1-.59.13-1.45.54-1.71C141.06,87.32,140.5,85.9,140.49,84.51ZM83.14,106.88c-6.17.6-11.42-2.46-13.52-7.91a17.33,17.33,0,0,1-1.21-9.64,5.57,5.57,0,0,1,4.46-4.79c2.49-.57,5-.88,7.57-1.3a34,34,0,0,1,12,1.89c3.66,1.4,4.87,3.22,4.8,6.88A15.53,15.53,0,0,1,83.14,106.88Zm51.2-5.34c-3.61,5.72-12.63,7.32-19,3.25a15.41,15.41,0,0,1-7.46-13.93,5.73,5.73,0,0,1,3.72-5.36c3.69-1.68,7.64-2.09,12.72-2.25,1.79.24,4.63.49,7.41,1A6,6,0,0,1,137,90,17.88,17.88,0,0,1,134.34,101.54Z"/></svg>