<?xml version="1.0" standalone="no"?>
<!DOCTYPE svg PUBLIC "-//W3C//DTD SVG 20010904//EN"
 "http://www.w3.org/TR/2001/REC-SVG-20010904/DTD/svg10.dtd">
<svg version="1.0" xmlns="http://www.w3.org/2000/svg"
 width="1300.000000pt" height="1300.000000pt" viewBox="0 0 1300.000000 1300.000000"
 preserveAspectRatio="xMidYMid meet">
<metadata>
Created by potrace 1.11, written by Peter Selinger 2001-2013
</metadata>
<g transform="translate(0.000000,1300.000000) scale(0.100000,-0.100000)"
fill="#000000" stroke="none">
<path d="M0 6500 l0 -6500 6500 0 6500 0 0 6500 0 6500 -6500 0 -6500 0 0
-6500z m5484 6038 c28 -8 60 -32 103 -74 50 -51 73 -87 126 -196 36 -73 100
-221 143 -328 42 -107 103 -260 136 -340 47 -113 191 -591 674 -2230 541
-1836 618 -2088 642 -2113 76 -76 232 -18 232 87 0 22 -887 3053 -1060 3621
-41 132 -46 213 -26 354 31 211 102 379 220 526 73 90 149 155 267 226 161 96
273 115 360 61 90 -58 145 -159 318 -591 l130 -322 616 -2092 c339 -1150 623
-2103 630 -2118 16 -30 70 -59 109 -59 64 0 128 50 141 110 5 21 -108 418
-445 1562 -248 843 -479 1623 -513 1733 -51 168 -61 212 -61 275 0 171 120
376 248 425 157 60 345 -78 568 -415 359 -542 586 -1062 981 -2240 412 -1232
573 -2031 594 -2950 20 -946 -160 -1882 -501 -2594 -280 -584 -675 -1090
-1148 -1467 -618 -493 -1133 -662 -2252 -740 -217 -15 -674 -7 -856 16 -370
45 -750 153 -1173 334 -981 421 -1750 1294 -2265 2571 -122 304 -143 372 -149
485 -8 154 28 265 132 402 71 95 222 219 327 269 l38 18 -93 31 c-315 105
-500 336 -524 651 -14 192 80 494 222 716 284 442 832 805 1450 963 264 67
478 89 735 74 193 -11 306 -26 679 -90 176 -30 308 -48 327 -44 87 16 113 88
95 259 -7 57 -22 148 -36 202 -28 116 -873 2985 -945 3209 -135 419 -145 802
-29 1150 75 225 210 401 412 536 196 131 312 169 421 137z"/>
<path d="M4641 5819 c-226 -26 -442 -124 -646 -291 -74 -61 -422 -386 -605
-565 l-134 -132 109 -113 c274 -283 533 -713 803 -1334 l78 -179 75 -38 c158
-80 346 -115 547 -103 322 21 564 125 759 329 165 172 265 373 325 651 19 86
22 134 22 321 1 192 -2 235 -22 335 -154 760 -662 1194 -1311 1119z"/>
</g>
</svg>
