<?xml version="1.0" encoding="UTF-8" standalone="no"?>
<svg
   xmlns:svg="http://www.w3.org/2000/svg"
   xmlns="http://www.w3.org/2000/svg"
   height="58.65799"
   width="41.629654"
   viewBox="0 0 41.629654 58.65799"
   id="lyf-ok">
  <path
     style="fill:#ffffff"
     d="m 40.400613,26.15132 c -0.47,-1.88 -1,-3.73 -1.66,-5.56 -0.36,-1 -0.72,-2.1 -1.09,-3.16 a 36.66,36.66 0 0 0 -3.74,-7.9300003 c -0.55,-0.83 -1.37,-2.08 -2.44,-2.24 a 1.13,1.13 0 0 0 -0.94,0.4 3.06,3.06 0 0 0 -0.75,2.3500003 9.89,9.89 0 0 0 0.55,2.51 l 4.25,14.34 v 0 a 0.5,0.5 0 0 1 0,0.32 0.47,0.47 0 0 1 -0.21,0.21 0.47,0.47 0 0 1 -0.4,0 l -0.1,-0.06 a 0.54,0.54 0 0 1 -0.13,-0.17 v 0 -0.06 l -5.66,-18.9400003 c 0,-0.06 -0.68,-1.7 -0.94,-2.32 -1.46,-3.54 -1.63,-5 -4.22,-3.19 -1.8,1.24 -2.31,3.79 -1.75,6.55 l 0.26,0.8600003 4.56,15.38 c 0,0 0,0 0,0.08 v 0 a 0.13,0.13 0 0 1 0,0.06 v 0.11 0 0 a 0.42,0.42 0 0 1 -0.35,0.19 h -0.12 a 0.39,0.39 0 0 1 -0.2,-0.16 v -0.06 c 0,0 0,0 0,0 v 0 c 0,-0.09 -0.06,-0.2 -0.09,-0.29 v -0.12 c 0,0 0,-0.07 0,-0.11 v -0.12 a 0.93,0.93 0 0 1 0,-0.13 1,1 0 0 1 0,-0.14 c 0,0 0,-0.1 -0.05,-0.15 -0.05,-0.05 0,-0.1 0,-0.16 a 1,1 0 0 1 0,-0.16 l -0.06,-0.18 a 1.33,1.33 0 0 0 0,-0.19 l -0.06,-0.2 -0.06,-0.21 a 1.87,1.87 0 0 1 -0.07,-0.22 2,2 0 0 0 -0.07,-0.23 l -0.07,-0.24 -0.07,-0.25 -0.47,-0.25 c 0,-0.09 0,-0.18 -0.08,-0.26 -0.08,-0.08 0,-0.19 -0.08,-0.28 -0.08,-0.09 -0.05,-0.18 -0.08,-0.28 l -0.09,-0.29 a 2.45,2.45 0 0 1 -0.08,-0.29 l -0.09,-0.3 -0.08,-0.3 -0.09,-0.31 c 0,-0.1 -0.07,-0.21 -0.1,-0.31 l -0.09,-0.31 -0.09,-0.32 c 0,-0.11 -0.07,-0.21 -0.1,-0.32 l -0.09,-0.32 c 0,-0.11 -0.07,-0.22 -0.1,-0.33 -0.03,-0.11 -0.06,-0.21 -0.1,-0.32 l -0.09,-0.33 c 0,-0.11 -0.07,-0.22 -0.1,-0.33 -0.03,-0.11 -0.07,-0.21 -0.1,-0.32 l -0.09,-0.33 c 0,-0.11 -0.07,-0.22 -0.1,-0.33 -0.03,-0.11 -0.07,-0.21 -0.1,-0.32 -0.03,-0.11 -0.06,-0.22 -0.1,-0.33 l -0.09,-0.32 a 3,3 0 0 0 -0.1,-0.32 l -0.09,-0.33 c 0,-0.1 -0.07,-0.21 -0.1,-0.32 l -0.09,-0.31 -0.09,-0.29 c 0,-0.1 -0.07,-0.21 -0.1,-0.31 l -0.09,-0.31 -0.09,-0.31 -0.09,-0.3 -0.09,-0.3 -0.09,-0.3 c 0,-0.09 0,-0.19 -0.08,-0.29 l -0.09,-0.29 c 0,-0.09 -0.05,-0.19 -0.08,-0.28 a 2.29,2.29 0 0 1 -0.08,-0.28 l -0.12,-0.31 c 0,-0.08 -0.05,-0.17 -0.07,-0.26 l -0.08,-0.2600003 c 0,-0.08 0,-0.16 -0.07,-0.24 a 2.17,2.17 0 0 1 -0.07,-0.24 2,2 0 0 1 -0.07,-0.23 l -0.06,-0.22 a 1.18,1.18 0 0 1 -0.07,-0.2 c 0,-0.07 0,-0.13 -0.05,-0.19 l -0.04,-0.16 a 1,1 0 0 0 -0.05,-0.16 c 0,-0.05 0,-0.11 0,-0.16 v -0.14 -0.13 c 0,0 0,-0.07 0,-0.11 v -0.1 c 0,0 0,-0.06 0,-0.1 v -0.08 -0.07 a 0.14,0.14 0 0 0 0,-0.06 v 0 c 0,0 0,0 0,-0.05 v -0.09 c 0,-0.09 -0.8,-1.92 -1.09,-2.61 -1.63,-4 -1.83,-5.61 -4.72,-3.56 -2,1.38 -2.59,4.24 -2,7.32 l 0.45,1.27 4.22,14.2500003 a 10,10 0 0 1 0.51,2.47 c 0,0.68 -0.15,1 -0.89,0.93 -2.22,-0.36 -4.44,-0.91 -6.7000004,-0.6 -4.22,0.57 -9.27000005,3.46 -9.81000005,8.08 a 3.6,3.6 0 0 0 3.08000005,3.84 c 0,0 -3.33000005,1.46 -2.31000005,4.32 2.08000005,5.8 5.68000005,11.48 11.55000045,14 a 21.9,21.9 0 0 0 5,1.6 22.78,22.78 0 0 0 5.47,0.21 c 2.87,-0.27 5.92,-0.59 8.66,-2.27 a 19.75,19.75 0 0 0 6.3,-6.17 21.9,21.9 0 0 0 2.21,-4.44 34,34 0 0 0 0.43,-19.55 z m -28.32,20.54 a 4.91,4.91 0 0 1 -2,-0.69 c -1.6200004,-3.85 -3.1600004,-6.46 -4.9000004,-8 0.39,-0.39 0.79,-0.8 1.23,-1.22 0.25,-0.24 0.52,-0.49 0.8,-0.73 1.23,-1.18 2.43,-2.46 4.2600004,-2.84 a 5.66,5.66 0 0 1 2.88,0.08 c 6,1.84 6.25,14.12 -2.27,13.4 z" />
</svg>
